<svg xmlns="http://www.w3.org/2000/svg" xmlns:xlink="http://www.w3.org/1999/xlink" width="98" height="97.999" viewBox="0 0 98 97.999">
  <defs>
    <clipPath id="clip-path">
      <rect id="Rectangle_412572" data-name="Rectangle 412572" width="57" height="55" transform="translate(1140.051 3879)" fill="#fff" stroke="#707070" stroke-width="1"/>
    </clipPath>
  </defs>
  <g id="Group_1206431" data-name="Group 1206431" transform="translate(-1119.086 -3857.106)">
    <g id="Group_1204751" data-name="Group 1204751" transform="translate(1119.086 3857.106)">
      <g id="Group_1204438" data-name="Group 1204438">
        <g id="Group_1204285" data-name="Group 1204285">
          <g id="Group_1204180" data-name="Group 1204180">
            <g id="Group_1204143" data-name="Group 1204143">
              <g id="Group_1188789" data-name="Group 1188789" transform="translate(0)">
                <path id="Path_1243039" data-name="Path 1243039" d="M41.05,0h0a41.05,41.05,0,0,1,0,82.1h0a41.05,41.05,0,0,1,0-82.1Z" transform="translate(7.951 7.949)" fill="#ffc63f"/>
                <rect id="Rectangle_400907" data-name="Rectangle 400907" width="88.438" height="88.437" rx="44.218" transform="translate(4.782 4.781)" fill="none"/>
                <g id="Group_1098742" data-name="Group 1098742" transform="translate(0)">
                  <g id="Rectangle_400898" data-name="Rectangle 400898" transform="translate(0)" fill="none" stroke="#fff" stroke-width="2" opacity="0.859">
                    <rect width="98" height="97.999" rx="48.999" stroke="none"/>
                    <rect x="1" y="1" width="96" height="95.999" rx="47.999" fill="none"/>
                  </g>
                  <g id="Rectangle_400907-2" data-name="Rectangle 400907" transform="translate(0)" fill="none" stroke="#0f1f33" stroke-linecap="round" stroke-width="2">
                    <rect width="98" height="97.999" rx="48.999" stroke="none"/>
                    <rect x="1" y="1" width="96" height="95.999" rx="47.999" fill="none"/>
                  </g>
                </g>
              </g>
            </g>
          </g>
        </g>
      </g>
    </g>
    <g id="Mask_Group_1099544" data-name="Mask Group 1099544" clip-path="url(#clip-path)">
      <g id="viral-marketing_7151606" transform="translate(1139.217 3877.167)">
        <circle id="Ellipse_13025" data-name="Ellipse 13025" cx="12.833" cy="12.833" r="12.833" transform="translate(26.837 13.187)" fill="#66bb6a"/>
        <path id="Path_1328766" data-name="Path 1328766" d="M39.671,38.854a12.833,12.833,0,0,1,0-25.667v-8.6A1.833,1.833,0,0,0,37.837,2.75H8A1.833,1.833,0,0,0,6.163,4.583V47.068H39.671V38.855Z" fill="#bdddf4"/>
        <path id="Path_1328767" data-name="Path 1328767" d="M6.163,47.068v7.015A1.833,1.833,0,0,0,8,55.917H37.837a1.833,1.833,0,0,0,1.833-1.833V47.068Z" fill="#546f7a"/>
        <g id="Group_1207140" data-name="Group 1207140">
          <circle id="Ellipse_13026" data-name="Ellipse 13026" cx="2.75" cy="2.75" r="2.75" transform="translate(31.421 23.271)" fill="#ffd54f"/>
          <circle id="Ellipse_13027" data-name="Ellipse 13027" cx="2.75" cy="2.75" r="2.75" transform="translate(40.587 17.771)" fill="#ffd54f"/>
          <circle id="Ellipse_13028" data-name="Ellipse 13028" cx="2.75" cy="2.75" r="2.75" transform="translate(40.587 28.771)" fill="#ffd54f"/>
        </g>
        <g id="Group_1207141" data-name="Group 1207141">
          <path id="Path_1328768" data-name="Path 1328768" d="M24.868,50.575h-3.9a.917.917,0,1,0,0,1.833h3.9a.917.917,0,1,0,0-1.833Z"/>
          <path id="Path_1328769" data-name="Path 1328769" d="M53.421,26.021a13.756,13.756,0,0,0-12.833-13.7V4.583a2.753,2.753,0,0,0-2.75-2.75H8a2.753,2.753,0,0,0-2.75,2.75v49.5A2.753,2.753,0,0,0,8,56.833H37.837a2.753,2.753,0,0,0,2.75-2.75V39.725a13.756,13.756,0,0,0,12.833-13.7ZM8,3.667H37.837a.918.918,0,0,1,.917.917v7.734a13.733,13.733,0,0,0,0,27.407v6.427H7.079V4.583A.918.918,0,0,1,8,3.667ZM37.837,55H8a.918.918,0,0,1-.917-.917v-6.1H38.754v6.1A.918.918,0,0,1,37.837,55Zm1.833-17.063A11.917,11.917,0,1,1,51.587,26.021,11.93,11.93,0,0,1,39.671,37.937Z"/>
          <path id="Path_1328770" data-name="Path 1328770" d="M43.337,24.187a3.667,3.667,0,1,0-3.667-3.667,3.6,3.6,0,0,0,.04.4l-3.364,2.165a3.667,3.667,0,1,0,0,5.869l3.364,2.165a3.6,3.6,0,0,0-.04.4,3.7,3.7,0,1,0,.709-2.149l-2.873-1.849a3.581,3.581,0,0,0,0-3l2.873-1.849A3.655,3.655,0,0,0,43.337,24.187Zm0,5.5A1.833,1.833,0,1,1,41.5,31.521,1.835,1.835,0,0,1,43.337,29.687Zm-11-3.667a1.833,1.833,0,1,1,1.833,1.833A1.835,1.835,0,0,1,32.337,26.021Zm11-7.333A1.833,1.833,0,1,1,41.5,20.521,1.835,1.835,0,0,1,43.337,18.687Z"/>
          <path id="Path_1328771" data-name="Path 1328771" d="M11.149,26.937h3.639l-.423.423a.917.917,0,0,0,1.3,1.3l1.987-1.987a.916.916,0,0,0,0-1.3l-1.987-1.987a.917.917,0,0,0-1.3,1.3l.423.423H11.149a.917.917,0,1,0,0,1.833Z"/>
          <path id="Path_1328772" data-name="Path 1328772" d="M15.012,18.176h3.639l-.423.423a.917.917,0,1,0,1.3,1.3l1.987-1.987a.916.916,0,0,0,0-1.3l-1.987-1.987a.917.917,0,0,0-1.3,1.3l.423.423H15.013a.917.917,0,1,0,0,1.833Z"/>
          <path id="Path_1328773" data-name="Path 1328773" d="M19.524,32.147a.917.917,0,0,0-1.3,1.3l.423.423H15.012a.917.917,0,0,0,0,1.833h3.639l-.423.423a.917.917,0,0,0,1.3,1.3l1.987-1.987a.916.916,0,0,0,0-1.3l-1.987-1.987Z"/>
        </g>
      </g>
    </g>
  </g>
</svg>
