<svg xmlns="http://www.w3.org/2000/svg" xmlns:xlink="http://www.w3.org/1999/xlink" width="98" height="97.998" viewBox="0 0 98 97.998">
  <defs>
    <clipPath id="clip-path">
      <rect id="Rectangle_412572" data-name="Rectangle 412572" width="57" height="55" transform="translate(1140.051 3879)" fill="#fff" stroke="#707070" stroke-width="1"/>
    </clipPath>
  </defs>
  <g id="Group_1206567" data-name="Group 1206567" transform="translate(-1119.086 -3857.106)">
    <g id="Group_1204751" data-name="Group 1204751" transform="translate(1119.086 3857.106)">
      <g id="Group_1204438" data-name="Group 1204438">
        <g id="Group_1204285" data-name="Group 1204285">
          <g id="Group_1204180" data-name="Group 1204180">
            <g id="Group_1204143" data-name="Group 1204143">
              <g id="Group_1188789" data-name="Group 1188789" transform="translate(0)">
                <path id="Path_1243039" data-name="Path 1243039" d="M41.05,0h0a41.05,41.05,0,0,1,0,82.1h0a41.05,41.05,0,0,1,0-82.1Z" transform="translate(7.951 7.949)" fill="#ffc63f"/>
                <rect id="Rectangle_400907" data-name="Rectangle 400907" width="88.438" height="88.437" rx="44.218" transform="translate(4.782 4.781)" fill="none"/>
                <g id="Group_1098742" data-name="Group 1098742" transform="translate(0)">
                  <g id="Rectangle_400898" data-name="Rectangle 400898" transform="translate(0)" fill="none" stroke="#fff" stroke-width="2" opacity="0.859">
                    <rect width="98" height="97.999" rx="48.999" stroke="none"/>
                    <rect x="1" y="1" width="96" height="95.999" rx="47.999" fill="none"/>
                  </g>
                  <g id="Rectangle_400907-2" data-name="Rectangle 400907" transform="translate(0)" fill="none" stroke="#0f1f33" stroke-linecap="round" stroke-width="2">
                    <rect width="98" height="97.999" rx="48.999" stroke="none"/>
                    <rect x="1" y="1" width="96" height="95.999" rx="47.999" fill="none"/>
                  </g>
                </g>
              </g>
            </g>
          </g>
        </g>
      </g>
    </g>
    <g id="Mask_Group_1099548" data-name="Mask Group 1099548" clip-path="url(#clip-path)">
      <g id="rating_3080042" transform="translate(1139.663 3877.167)">
        <circle id="Ellipse_13033" data-name="Ellipse 13033" cx="7.333" cy="7.333" r="7.333" transform="translate(28.417 2.75)" fill="#ffd422"/>
        <path id="Path_1328850" data-name="Path 1328850" d="M38.995,7.92a1.826,1.826,0,0,1,0,2.585L35.75,13.75,32.5,10.5A1.833,1.833,0,0,1,35.1,7.92l.651.642L36.4,7.92a1.833,1.833,0,0,1,2.594,0Z" fill="#ff5023"/>
        <path id="Path_1328851" data-name="Path 1328851" d="M55,23.833a7.333,7.333,0,0,1-14.511,1.513,7.425,7.425,0,0,1-.156-1.512,7.333,7.333,0,1,1,14.667,0Z" fill="#ebbf00"/>
        <rect id="Rectangle_426265" data-name="Rectangle 426265" width="18.333" height="29.333" rx="3.667" transform="translate(8.25 14.667)" fill="#5aaae7"/>
        <path id="Path_1328852" data-name="Path 1328852" d="M50.912,21.67a1.826,1.826,0,0,1,0,2.585L47.667,27.5l-3.245-3.245a1.833,1.833,0,0,1,2.594-2.585l.651.642.651-.642a1.833,1.833,0,0,1,2.594,0Z" fill="#ff5023"/>
        <path id="Path_1328853" data-name="Path 1328853" d="M44.917,32.083a7.326,7.326,0,1,1-.156-1.513A7.425,7.425,0,0,1,44.917,32.083Z" fill="#ffd422"/>
        <path id="Path_1328854" data-name="Path 1328854" d="M40.828,29.92a1.826,1.826,0,0,1,0,2.585L37.583,35.75,34.338,32.5a1.833,1.833,0,1,1,2.594-2.585l.651.642.651-.642a1.833,1.833,0,0,1,2.594,0Z" fill="#ff5023"/>
        <path id="Path_1328855" data-name="Path 1328855" d="M20.295,40.1a1.706,1.706,0,0,1-.064.477l-.422,1.586L19.314,44H16.986l.99-3.667.422-1.586a1.706,1.706,0,0,0,.064-.477,1.752,1.752,0,0,1,.477.064A1.833,1.833,0,0,1,20.295,40.1Z" fill="#3d9ae2"/>
        <path id="Path_1328856" data-name="Path 1328856" d="M18.462,38.271a1.706,1.706,0,0,1-.064.477l-.422,1.586L16.986,44l-.3,1.137a5.7,5.7,0,0,0-.183,1.421v2.026L13.75,52.25v4.583H3.667V50.417L2.75,46.75v-11a5.5,5.5,0,0,1,5.5-5.5V38.5l2.227,3.712a1.8,1.8,0,0,0,1.54.88h.018a1.816,1.816,0,0,0,1.76-1.348L14.859,37.8a1.833,1.833,0,0,1,3.6.467Z" fill="#ffc477"/>
        <path id="Path_1328857" data-name="Path 1328857" d="M22.917,13.75h-11a4.583,4.583,0,0,0-4.583,4.583V29.407a6.417,6.417,0,0,0-5.5,6.343v11a.9.9,0,0,0,.028.22l.889,3.557v6.307H4.583V50.417a.9.9,0,0,0-.027-.22L3.667,46.64V35.75a4.592,4.592,0,0,1,3.667-4.492V38.5a.917.917,0,0,0,.128.467L9.689,42.68a2.71,2.71,0,0,0,2.319,1.329h.037a2.726,2.726,0,0,0,2.64-2.026l1.054-3.942a.918.918,0,0,1,1.677-.229.893.893,0,0,1,.092.7L15.8,44.9a6.345,6.345,0,0,0-.22,1.659v1.723L13.017,51.7a.9.9,0,0,0-.183.55v4.583h1.833V52.552l2.567-3.419a.9.9,0,0,0,.183-.55V46.558a4.651,4.651,0,0,1,.156-1.182l.119-.458h5.225A4.583,4.583,0,0,0,27.5,40.333v-22a4.583,4.583,0,0,0-4.583-4.583Zm2.75,26.583a2.758,2.758,0,0,1-2.75,2.75h-4.73l.486-1.833h1.494V39.417h-1l.119-.431a2.752,2.752,0,0,0-5.317-1.421l-1.054,3.942a.943.943,0,0,1-.889.669.874.874,0,0,1-.761-.44l-2.1-3.493V18.333a2.758,2.758,0,0,1,2.75-2.75h11a2.758,2.758,0,0,1,2.75,2.75Z"/>
        <path id="Path_1328858" data-name="Path 1328858" d="M14.667,17.417h5.5V19.25h-5.5Z"/>
        <path id="Path_1328859" data-name="Path 1328859" d="M11,17.417h1.833V19.25H11Z"/>
        <path id="Path_1328860" data-name="Path 1328860" d="M11.917,22.917h11V24.75h-11Z"/>
        <path id="Path_1328861" data-name="Path 1328861" d="M11.917,26.583h11v1.833h-11Z"/>
        <path id="Path_1328862" data-name="Path 1328862" d="M11.917,30.25h11v1.833h-11Z"/>
        <path id="Path_1328863" data-name="Path 1328863" d="M37.583,29.268a2.75,2.75,0,1,0-3.889,3.89l3.24,3.24a.917.917,0,0,0,1.3,0l3.24-3.24a2.75,2.75,0,0,0-3.889-3.89Zm2.592,2.593-2.592,2.592-2.592-2.592a.917.917,0,0,1,1.3-1.3l.648.647a.917.917,0,0,0,1.3,0l.648-.648a.917.917,0,0,1,1.3,1.3Z"/>
        <path id="Path_1328864" data-name="Path 1328864" d="M51.555,21.018a2.75,2.75,0,0,0-3.889,0,2.75,2.75,0,1,0-3.889,3.89l3.24,3.24a.917.917,0,0,0,1.3,0l3.24-3.24a2.75,2.75,0,0,0,0-3.89Zm-1.3,2.593L47.667,26.2l-2.592-2.592a.917.917,0,0,1,1.3-1.3l.648.647a.917.917,0,0,0,1.3,0l.648-.648a.917.917,0,0,1,1.3,1.3Z"/>
        <path id="Path_1328865" data-name="Path 1328865" d="M35.1,14.4a.917.917,0,0,0,1.3,0l3.24-3.24A2.75,2.75,0,1,0,35.75,7.268a2.75,2.75,0,1,0-3.888,3.89ZM33.159,8.564a.917.917,0,0,1,1.3,0l.648.647a.917.917,0,0,0,1.3,0l.648-.648a.917.917,0,0,1,1.3,1.3L35.75,12.454,33.158,9.861a.917.917,0,0,1,0-1.3Z"/>
        <path id="Path_1328866" data-name="Path 1328866" d="M47.667,15.583a8.259,8.259,0,0,0-8.25,8.25c0,.071.009.143.011.215a8.25,8.25,0,1,0,6.406,8.035c0-.072-.009-.142-.011-.215a8.25,8.25,0,1,0,1.844-16.286ZM37.583,38.5A6.417,6.417,0,1,1,44,32.083,6.417,6.417,0,0,1,37.583,38.5Zm10.083-8.25a6.463,6.463,0,0,1-2.141-.372,8.279,8.279,0,0,0-4.2-5.14,6.509,6.509,0,0,1-.072-.9,6.417,6.417,0,1,1,6.417,6.417Z"/>
        <path id="Path_1328867" data-name="Path 1328867" d="M35.75,18.333a8.25,8.25,0,1,0-8.25-8.25,8.25,8.25,0,0,0,8.25,8.25Zm0-14.667a6.417,6.417,0,1,1-6.417,6.417A6.417,6.417,0,0,1,35.75,3.667Z"/>
      </g>
    </g>
  </g>
</svg>
