<svg xmlns="http://www.w3.org/2000/svg" xmlns:xlink="http://www.w3.org/1999/xlink" width="98" height="97.999" viewBox="0 0 98 97.999">
  <defs>
    <clipPath id="clip-path">
      <rect id="Rectangle_412572" data-name="Rectangle 412572" width="57" height="55" transform="translate(1140.051 3879)" fill="#fff" stroke="#707070" stroke-width="1"/>
    </clipPath>
  </defs>
  <g id="Group_1206686" data-name="Group 1206686" transform="translate(-1119.086 -3857.106)">
    <g id="Group_1204751" data-name="Group 1204751" transform="translate(1119.086 3857.106)">
      <g id="Group_1204438" data-name="Group 1204438">
        <g id="Group_1204285" data-name="Group 1204285">
          <g id="Group_1204180" data-name="Group 1204180">
            <g id="Group_1204143" data-name="Group 1204143">
              <g id="Group_1188789" data-name="Group 1188789" transform="translate(0)">
                <path id="Path_1243039" data-name="Path 1243039" d="M41.05,0h0a41.05,41.05,0,0,1,0,82.1h0a41.05,41.05,0,0,1,0-82.1Z" transform="translate(7.951 7.949)" fill="#ffc63f"/>
                <rect id="Rectangle_400907" data-name="Rectangle 400907" width="88.438" height="88.437" rx="44.218" transform="translate(4.782 4.781)" fill="none"/>
                <g id="Group_1098742" data-name="Group 1098742" transform="translate(0)">
                  <g id="Rectangle_400898" data-name="Rectangle 400898" transform="translate(0)" fill="none" stroke="#fff" stroke-width="2" opacity="0.859">
                    <rect width="98" height="97.999" rx="48.999" stroke="none"/>
                    <rect x="1" y="1" width="96" height="95.999" rx="47.999" fill="none"/>
                  </g>
                  <g id="Rectangle_400907-2" data-name="Rectangle 400907" transform="translate(0)" fill="none" stroke="#0f1f33" stroke-linecap="round" stroke-width="2">
                    <rect width="98" height="97.999" rx="48.999" stroke="none"/>
                    <rect x="1" y="1" width="96" height="95.999" rx="47.999" fill="none"/>
                  </g>
                </g>
              </g>
            </g>
          </g>
        </g>
      </g>
    </g>
    <g id="Mask_Group_1099560" data-name="Mask Group 1099560" clip-path="url(#clip-path)">
      <g id="Fill_out_line" data-name="Fill out line" transform="translate(1139.218 3877.167)">
        <rect id="Rectangle_426272" data-name="Rectangle 426272" width="29.333" height="53.167" rx="1.833" transform="translate(2.75 2.75)" fill="#37a3c8"/>
        <path id="Path_1328951" data-name="Path 1328951" d="M5.5,53.167V5.5H11a2.75,2.75,0,0,0,2.75,2.75h7.333a2.75,2.75,0,0,0,2.75-2.75h5.5V53.167Z" fill="#8fd1ec"/>
        <path id="Path_1328952" data-name="Path 1328952" d="M11,28.417h.917v5.5H11a2.75,2.75,0,1,1,0-5.5Z" fill="#d6393b"/>
        <path id="Path_1328953" data-name="Path 1328953" d="M11.917,27.5h3.667v7.333H11.917Z" fill="#e94042"/>
        <path id="Path_1328954" data-name="Path 1328954" d="M11.917,34.833v.157a6.259,6.259,0,0,0,1.833,4.426h4.583L16.88,37.963a4.426,4.426,0,0,1-1.3-3.13Z" fill="#f3e19f"/>
        <path id="Path_1328955" data-name="Path 1328955" d="M15.583,33.917h.362a6.176,6.176,0,0,1,5.138,2.75v-11a6.176,6.176,0,0,1-5.138,2.75h-.362Z" fill="#f3e19f"/>
        <rect id="Rectangle_426273" data-name="Rectangle 426273" width="2.75" height="14.667" rx="1.375" transform="translate(21.083 23.833)" fill="#e94042"/>
        <path id="Path_1328956" data-name="Path 1328956" d="M23.833,29.333h.917a1.833,1.833,0,1,1,0,3.667h-.917Z" fill="#d6393b"/>
        <path id="Path_1328957" data-name="Path 1328957" d="M30.25,31.167l5.5-5.5V11.917H55.917v22H35.75v-2.75Z" fill="#f3e19f"/>
        <path id="Path_1328958" data-name="Path 1328958" d="M33,24.75V4.583a2.754,2.754,0,0,0-2.75-2.75H4.583a2.754,2.754,0,0,0-2.75,2.75v49.5a2.754,2.754,0,0,0,2.75,2.75H30.25A2.754,2.754,0,0,0,33,54.083V33.917H31.167v16.5H30.25v-16.5H28.417V52.25h-22V6.417H10.2a3.673,3.673,0,0,0,3.551,2.75h7.333a3.673,3.673,0,0,0,3.551-2.75h3.782V27.5H30.25V8.25h.917v16.5ZM3.667,8.25h.917V50.417H3.667ZM29.333,54.083a.916.916,0,0,0,.917-.917V52.25h.917v1.833A.918.918,0,0,1,30.25,55H4.583a.918.918,0,0,1-.917-.917V52.25h.917v.917a.916.916,0,0,0,.917.917ZM30.25,6.417V5.5a.916.916,0,0,0-.917-.917h-5.5a.916.916,0,0,0-.917.917,1.836,1.836,0,0,1-1.833,1.833H13.75A1.836,1.836,0,0,1,11.917,5.5.916.916,0,0,0,11,4.583H5.5a.916.916,0,0,0-.917.917v.917H3.667V4.583a.918.918,0,0,1,.917-.917H30.25a.918.918,0,0,1,.917.917V6.417Z"/>
        <path id="Path_1328959" data-name="Path 1328959" d="M15.583,4.583H19.25V6.417H15.583Z"/>
        <circle id="Ellipse_13077" data-name="Ellipse 13077" cx="0.917" cy="0.917" r="0.917" transform="translate(20.167 4.583)"/>
        <path id="Path_1328960" data-name="Path 1328960" d="M24.75,28.417V25.208a2.292,2.292,0,1,0-4.583,0v.167A5.236,5.236,0,0,1,16.5,27.47a.915.915,0,0,0-.916-.887H11.917A.916.916,0,0,0,11,27.5a3.667,3.667,0,1,0,0,7.333v.157a7.13,7.13,0,0,0,2.1,5.075.918.918,0,0,0,.649.268h4.583a.917.917,0,0,0,.649-1.565l-1.454-1.453A3.486,3.486,0,0,1,16.5,34.863s0,0,0,0a.259.259,0,0,0,0-.03.259.259,0,0,0,0,.03,5.24,5.24,0,0,1,3.666,2.095v.167a2.292,2.292,0,0,0,4.583,0V33.917a2.75,2.75,0,1,0,0-5.5Zm-10.083,0v5.5H12.833v-5.5Zm-5.5,2.75A1.836,1.836,0,0,1,11,29.333V33a1.836,1.836,0,0,1-1.833-1.833ZM14.148,38.5a5.292,5.292,0,0,1-1.262-2.75h1.859a5.3,5.3,0,0,0,1.378,2.75ZM16.5,33.022v-3.71a7.074,7.074,0,0,0,3.667-1.369v6.449A7.074,7.074,0,0,0,16.5,33.022Zm6.417,4.1a.458.458,0,0,1-.917,0V25.208a.458.458,0,1,1,.917,0Zm1.833-5.042V30.25a.917.917,0,1,1,0,1.833Z"/>
        <path id="Path_1328961" data-name="Path 1328961" d="M16.5,34.833a.258.258,0,0,1,0,.03s0,0,0,0a.259.259,0,0,1,0-.03Z"/>
        <path id="Path_1328962" data-name="Path 1328962" d="M16.5,34.833a.258.258,0,0,1,0,.03s0,0,0,0a.259.259,0,0,1,0-.03Z"/>
        <path id="Path_1328963" data-name="Path 1328963" d="M55.917,34.833H35.75a.917.917,0,0,1-.917-.917V32.083H30.25a.917.917,0,0,1-.648-1.565l5.232-5.231V11.917A.917.917,0,0,1,35.75,11H55.917a.917.917,0,0,1,.917.917v22a.917.917,0,0,1-.917.917ZM36.667,33H55V12.833H36.667V25.667a.917.917,0,0,1-.268.648L32.463,30.25H35.75a.917.917,0,0,1,.917.917Z"/>
        <path id="Path_1328964" data-name="Path 1328964" d="M40.333,14.667h7.333V16.5H40.333Z"/>
        <path id="Path_1328965" data-name="Path 1328965" d="M49.5,14.667h3.667V16.5H49.5Z"/>
        <path id="Path_1328966" data-name="Path 1328966" d="M38.5,18.333h7.333v1.833H38.5Z"/>
        <path id="Path_1328967" data-name="Path 1328967" d="M47.667,18.333h5.5v1.833h-5.5Z"/>
        <path id="Path_1328968" data-name="Path 1328968" d="M38.5,22h9.167v1.833H38.5Z"/>
        <path id="Path_1328969" data-name="Path 1328969" d="M49.5,22h3.667v1.833H49.5Z"/>
        <path id="Path_1328970" data-name="Path 1328970" d="M45.833,29.333h1.833v1.833H45.833Z"/>
        <path id="Path_1328971" data-name="Path 1328971" d="M38.5,29.333H44v1.833H38.5Z"/>
        <path id="Path_1328972" data-name="Path 1328972" d="M44,25.667h9.167V27.5H44Z"/>
        <path id="Path_1328973" data-name="Path 1328973" d="M38.5,25.667h3.667V27.5H38.5Z"/>
      </g>
    </g>
  </g>
</svg>
