<svg xmlns="http://www.w3.org/2000/svg" xmlns:xlink="http://www.w3.org/1999/xlink" width="98" height="97.999" viewBox="0 0 98 97.999">
  <defs>
    <clipPath id="clip-path">
      <rect id="Rectangle_412572" data-name="Rectangle 412572" width="57" height="55" transform="translate(1140.051 3879)" fill="#fff" stroke="#707070" stroke-width="1"/>
    </clipPath>
  </defs>
  <g id="Group_1206682" data-name="Group 1206682" transform="translate(-1119.086 -3857.106)">
    <g id="Group_1204751" data-name="Group 1204751" transform="translate(1119.086 3857.106)">
      <g id="Group_1204438" data-name="Group 1204438">
        <g id="Group_1204285" data-name="Group 1204285">
          <g id="Group_1204180" data-name="Group 1204180">
            <g id="Group_1204143" data-name="Group 1204143">
              <g id="Group_1188789" data-name="Group 1188789" transform="translate(0)">
                <path id="Path_1243039" data-name="Path 1243039" d="M41.05,0h0a41.05,41.05,0,0,1,0,82.1h0a41.05,41.05,0,0,1,0-82.1Z" transform="translate(7.951 7.949)" fill="#ffc63f"/>
                <rect id="Rectangle_400907" data-name="Rectangle 400907" width="88.438" height="88.437" rx="44.218" transform="translate(4.782 4.781)" fill="none"/>
                <g id="Group_1098742" data-name="Group 1098742" transform="translate(0)">
                  <g id="Rectangle_400898" data-name="Rectangle 400898" transform="translate(0)" fill="none" stroke="#fff" stroke-width="2" opacity="0.859">
                    <rect width="98" height="97.999" rx="48.999" stroke="none"/>
                    <rect x="1" y="1" width="96" height="95.999" rx="47.999" fill="none"/>
                  </g>
                  <g id="Rectangle_400907-2" data-name="Rectangle 400907" transform="translate(0)" fill="none" stroke="#0f1f33" stroke-linecap="round" stroke-width="2">
                    <rect width="98" height="97.999" rx="48.999" stroke="none"/>
                    <rect x="1" y="1" width="96" height="95.999" rx="47.999" fill="none"/>
                  </g>
                </g>
              </g>
            </g>
          </g>
        </g>
      </g>
    </g>
    <g id="Mask_Group_1099558" data-name="Mask Group 1099558" clip-path="url(#clip-path)">
      <g id="mobile-app_7485707" transform="translate(1140.164 3878.113)">
        <g id="Artboard_16" data-name="Artboard 16">
          <path id="Path_1328928" data-name="Path 1328928" d="M36.371,41.694V53.226A1.774,1.774,0,0,1,34.6,55H9.758a1.774,1.774,0,0,1-1.774-1.774V3.548A1.774,1.774,0,0,1,9.758,1.774H34.6a1.774,1.774,0,0,1,1.774,1.774Z" fill="#eaebef"/>
          <path id="Path_1328929" data-name="Path 1328929" d="M34.6,1.774H14.43a3.784,3.784,0,0,0-3.784,3.784V42.735a8.717,8.717,0,0,0,8.717,8.717H36.371V3.548A1.774,1.774,0,0,0,34.6,1.774Z" fill="#f4f4f4"/>
          <path id="Path_1328930" data-name="Path 1328930" d="M23.065,14.194H18.629a3.548,3.548,0,0,0-3.548,3.548v23.3a4.2,4.2,0,0,0,4.2,4.2H34.057a2.314,2.314,0,0,0,2.314-2.314V14.194Z" fill="#eaebef"/>
          <path id="Path_1328931" data-name="Path 1328931" d="M15.968,1.774V3.548a1.774,1.774,0,0,0,1.774,1.774h8.871a1.774,1.774,0,0,0,1.774-1.774V1.774Z" fill="#b0b0b3"/>
          <path id="Path_1328932" data-name="Path 1328932" d="M33.6,2.661H31.156a1.882,1.882,0,0,0-1.331,3.212L32.272,8.32a1.882,1.882,0,0,0,3.212-1.331V4.543A1.882,1.882,0,0,0,33.6,2.661Z" fill="#fff"/>
          <rect id="Rectangle_426269" data-name="Rectangle 426269" width="30.161" height="28.387" rx="3.548" transform="translate(18.629 14.194)" fill="#428cea"/>
          <path id="Path_1328933" data-name="Path 1328933" d="M25.76,14.194H45.242a3.548,3.548,0,0,1,3.548,3.548V34.67a4.363,4.363,0,0,1-4.363,4.363H30.745a7.68,7.68,0,0,1-7.68-7.68V16.892a2.7,2.7,0,0,1,2.695-2.7Z" fill="#4fa5f2"/>
          <path id="Path_1328934" data-name="Path 1328934" d="M27.5,17.742a4.441,4.441,0,0,0-4.435,4.435v8.871h1.774V26.613h5.323v4.435h1.774V22.177A4.441,4.441,0,0,0,27.5,17.742Zm-2.661,7.1V22.177a2.661,2.661,0,1,1,5.323,0v2.661Z" fill="#fff"/>
          <path id="Path_1328935" data-name="Path 1328935" d="M42.581,26.613V22.177H40.806v.91a4.389,4.389,0,0,0-2.661-.91,4.435,4.435,0,1,0,3.548,7.069,4.42,4.42,0,0,0,3.548,1.8V29.274A2.661,2.661,0,0,1,42.581,26.613Zm-4.435,2.661a2.661,2.661,0,1,1,2.661-2.661A2.661,2.661,0,0,1,38.145,29.274Z" fill="#fff"/>
          <path id="Path_1328936" data-name="Path 1328936" d="M18.629,35.484H48.79v3.548a3.548,3.548,0,0,1-3.548,3.548H22.177a3.548,3.548,0,0,1-3.548-3.548Z" fill="#ffc239"/>
          <path id="Path_1328937" data-name="Path 1328937" d="M45.135,15.968H42.688a1.882,1.882,0,0,0-1.331,3.212L43.8,21.627A1.882,1.882,0,0,0,47.016,20.3V17.849A1.882,1.882,0,0,0,45.135,15.968Z" fill="#fff" opacity="0.2"/>
          <rect id="Rectangle_426270" data-name="Rectangle 426270" width="2.661" height="9.758" rx="1.331" transform="translate(44.355 23.065)" fill="#fff" opacity="0.2"/>
          <path id="Path_1328938" data-name="Path 1328938" d="M48.708,35.484H24.277a7.67,7.67,0,0,0,6.468,3.548H44.428a4.36,4.36,0,0,0,4.28-3.548Z" fill="#ffd55d"/>
        </g>
        <g id="BG">
          <path id="Path_1328939" data-name="Path 1328939" d="M7.1,53.226a2.661,2.661,0,0,0,2.661,2.661H34.6a2.661,2.661,0,0,0,2.661-2.661V43.468h7.984a4.441,4.441,0,0,0,4.435-4.435V17.742a4.441,4.441,0,0,0-4.435-4.435H37.258V3.657A2.738,2.738,0,0,0,34.6.887H9.758A2.661,2.661,0,0,0,7.1,3.548ZM45.242,41.694H22.177a2.661,2.661,0,0,1-2.661-2.661V36.371H47.9v2.661A2.661,2.661,0,0,1,45.242,41.694ZM47.9,17.742V34.6H19.516V17.742a2.661,2.661,0,0,1,2.661-2.661H45.242A2.661,2.661,0,0,1,47.9,17.742ZM16.855,2.661H27.5v.887a.887.887,0,0,1-.887.887H17.742a.887.887,0,0,1-.887-.887Zm-7.984.887a.887.887,0,0,1,.887-.887h5.323v.887A2.661,2.661,0,0,0,17.742,6.21h8.871a2.661,2.661,0,0,0,2.661-2.661V2.661h5.339a.963.963,0,0,1,.871,1v9.65H22.177a4.441,4.441,0,0,0-4.435,4.435v21.29a4.441,4.441,0,0,0,4.435,4.435H35.484v9.758a.887.887,0,0,1-.887.887H9.758a.887.887,0,0,1-.887-.887Z"/>
          <path id="Path_1328940" data-name="Path 1328940" d="M24.839,26.613h5.323v4.435h1.774V22.177a4.435,4.435,0,1,0-8.871,0v8.871h1.774Zm2.661-7.1a2.661,2.661,0,0,1,2.661,2.661v2.661H24.839V22.177A2.661,2.661,0,0,1,27.5,19.516Z"/>
          <path id="Path_1328941" data-name="Path 1328941" d="M38.145,31.048a4.42,4.42,0,0,0,3.548-1.8,4.42,4.42,0,0,0,3.548,1.8V29.274a2.661,2.661,0,0,1-2.661-2.661V22.177H40.806v.91a4.389,4.389,0,0,0-2.661-.91,4.435,4.435,0,0,0,0,8.871Zm0-7.1a2.661,2.661,0,1,1-2.661,2.661A2.661,2.661,0,0,1,38.145,23.952Z"/>
        </g>
      </g>
    </g>
  </g>
</svg>
