<svg xmlns="http://www.w3.org/2000/svg" xmlns:xlink="http://www.w3.org/1999/xlink" width="98" height="97.999" viewBox="0 0 98 97.999">
  <defs>
    <clipPath id="clip-path">
      <rect id="Rectangle_412572" data-name="Rectangle 412572" width="57" height="55" transform="translate(1140.051 3879)" fill="#fff" stroke="#707070" stroke-width="1"/>
    </clipPath>
  </defs>
  <g id="Group_1206565" data-name="Group 1206565" transform="translate(-1119.086 -3857.106)">
    <g id="Group_1204751" data-name="Group 1204751" transform="translate(1119.086 3857.106)">
      <g id="Group_1204438" data-name="Group 1204438">
        <g id="Group_1204285" data-name="Group 1204285">
          <g id="Group_1204180" data-name="Group 1204180">
            <g id="Group_1204143" data-name="Group 1204143">
              <g id="Group_1188789" data-name="Group 1188789" transform="translate(0)">
                <path id="Path_1243039" data-name="Path 1243039" d="M41.05,0h0a41.05,41.05,0,0,1,0,82.1h0a41.05,41.05,0,0,1,0-82.1Z" transform="translate(7.951 7.949)" fill="#ffc63f"/>
                <rect id="Rectangle_400907" data-name="Rectangle 400907" width="88.438" height="88.437" rx="44.218" transform="translate(4.782 4.781)" fill="none"/>
                <g id="Group_1098742" data-name="Group 1098742" transform="translate(0)">
                  <g id="Rectangle_400898" data-name="Rectangle 400898" transform="translate(0)" fill="none" stroke="#fff" stroke-width="2" opacity="0.859">
                    <rect width="98" height="97.999" rx="48.999" stroke="none"/>
                    <rect x="1" y="1" width="96" height="95.999" rx="47.999" fill="none"/>
                  </g>
                  <g id="Rectangle_400907-2" data-name="Rectangle 400907" transform="translate(0)" fill="none" stroke="#0f1f33" stroke-linecap="round" stroke-width="2">
                    <rect width="98" height="97.999" rx="48.999" stroke="none"/>
                    <rect x="1" y="1" width="96" height="95.999" rx="47.999" fill="none"/>
                  </g>
                </g>
              </g>
            </g>
          </g>
        </g>
      </g>
    </g>
    <g id="Mask_Group_1099551" data-name="Mask Group 1099551" clip-path="url(#clip-path)">
      <g id="influencer_10242829" transform="translate(1141.051 3879)">
        <rect id="Rectangle_426266" data-name="Rectangle 426266" width="24.063" height="44.688" rx="1.719" transform="translate(15.469 5.156)" fill="#8394a6"/>
        <path id="Path_1328909" data-name="Path 1328909" d="M15.469,8.594H39.531V46.406H15.469Z" fill="#cce1ff"/>
        <circle id="Ellipse_13041" data-name="Ellipse 13041" cx="2.578" cy="2.578" r="2.578" transform="translate(24.922 25.781)" fill="#ffd199"/>
        <path id="Path_1328910" data-name="Path 1328910" d="M31.8,39.531V34.375A2.575,2.575,0,0,0,29.219,31.8H25.781A2.575,2.575,0,0,0,23.2,34.375v5.156Z" fill="#67cc6d"/>
        <rect id="Rectangle_426267" data-name="Rectangle 426267" width="18.906" height="17.188" rx="0.859" transform="translate(0.859 0.859)" fill="#f2f2f2"/>
        <rect id="Rectangle_426268" data-name="Rectangle 426268" width="17.188" height="15.469" rx="0.859" transform="translate(36.953 38.672)" fill="#f2f2f2"/>
        <path id="Path_1328911" data-name="Path 1328911" d="M45.547,43.691l-.7-.782a2.285,2.285,0,0,0-3.472,0,2.964,2.964,0,0,0-.309,3.438,10.454,10.454,0,0,0,2.647,2.965L45.547,50.7l1.839-1.392a10.585,10.585,0,0,0,2.647-2.965,2.936,2.936,0,0,0-.309-3.437,2.285,2.285,0,0,0-3.472,0Z" fill="#ff8081"/>
        <path id="Path_1328912" data-name="Path 1328912" d="M4.3,7.734H7.734v6.875H4.3Z" fill="#8ea0b3"/>
        <path id="Path_1328913" data-name="Path 1328913" d="M7.734,13.75h.859l1.289.859h4.735a1.346,1.346,0,0,0,1.332-1.195l.37-3.352a1.342,1.342,0,0,0-1.332-1.487H13l.722-2.887a1.123,1.123,0,0,0-.7-1.349,1.106,1.106,0,0,0-1.349.653L10.82,7.27A2.009,2.009,0,0,1,8.938,8.577H7.743v5.165Z" fill="#ffd199"/>
        <path id="Path_1328914" data-name="Path 1328914" d="M22.344,34.375v5.156a.862.862,0,0,0,.859.859H31.8a.862.862,0,0,0,.859-.859V34.375a3.428,3.428,0,0,0-2.965-3.386,3.438,3.438,0,1,0-4.383,0A3.435,3.435,0,0,0,22.344,34.375ZM27.5,26.641a1.719,1.719,0,1,1-1.719,1.719A1.724,1.724,0,0,1,27.5,26.641Zm-3.437,7.734a1.724,1.724,0,0,1,1.719-1.719h3.438a1.724,1.724,0,0,1,1.719,1.719v4.3H24.063Z"/>
        <path id="Path_1328915" data-name="Path 1328915" d="M34.607,15.589a.878.878,0,0,0-.241-.73.852.852,0,0,0-.73-.241l-4.254.61.241,1.7,1.7-.241-3.042,3.042L26.46,17.909a.851.851,0,0,0-.61-.249.887.887,0,0,0-.61.249l-4.864,4.864,1.212,1.212,4.254-4.254,1.822,1.822a.851.851,0,0,0,.61.249.887.887,0,0,0,.61-.249l3.644-3.644-.241,1.7,1.7.241L34.6,15.6Z"/>
        <path id="Path_1328916" data-name="Path 1328916" d="M14.988,7.726H14.1l.455-1.813a1.97,1.97,0,0,0-1.289-2.38A1.948,1.948,0,0,0,10.863,4.7l-.851,2.277a1.152,1.152,0,0,1-1.074.748H8.594a.855.855,0,0,0-.859-.851H4.3a.862.862,0,0,0-.859.859v6.875a.862.862,0,0,0,.859.859H7.734a.84.84,0,0,0,.825-.7l.842.559a.851.851,0,0,0,.473.146h4.735a2.19,2.19,0,0,0,2.183-1.959l.37-3.352A2.2,2.2,0,0,0,14.97,7.717ZM6.875,13.75H5.156V8.594H6.875Zm8.216-.43a.484.484,0,0,1-.481.43H10.132l-1.074-.713a.851.851,0,0,0-.473-.146V9.445H8.92A2.891,2.891,0,0,0,11.61,7.58L12.461,5.3a.226.226,0,0,1,.292-.137.27.27,0,0,1,.129.318L12.16,8.37a.9.9,0,0,0,.155.739.864.864,0,0,0,.679.327h1.985a.491.491,0,0,1,.361.163.463.463,0,0,1,.12.37Z"/>
        <path id="Path_1328917" data-name="Path 1328917" d="M20.625,17.188V9.453H38.672V36.094h1.719V6.875A2.586,2.586,0,0,0,37.813,4.3H20.625V1.719A1.724,1.724,0,0,0,18.906,0H1.719A1.724,1.724,0,0,0,0,1.719V17.188a1.724,1.724,0,0,0,1.719,1.719H18.906A1.724,1.724,0,0,0,20.625,17.188Zm0-11.172H37.813a.862.862,0,0,1,.859.859v.859H20.625ZM1.719,1.719H18.906V17.188H1.719Z"/>
        <path id="Path_1328918" data-name="Path 1328918" d="M53.281,37.813H37.813a1.724,1.724,0,0,0-1.719,1.719v6.016H16.328V20.625H14.609v27.5A2.586,2.586,0,0,0,17.188,50.7H36.094v2.578A1.724,1.724,0,0,0,37.813,55H53.281A1.724,1.724,0,0,0,55,53.281V39.531A1.724,1.724,0,0,0,53.281,37.813ZM36.094,48.984H17.188a.862.862,0,0,1-.859-.859v-.859H36.094Zm1.719,4.3V39.531H53.281v13.75Z"/>
        <path id="Path_1328919" data-name="Path 1328919" d="M47.987,41.25a3.172,3.172,0,0,0-2.372,1.083l-.069.069-.069-.069a3.139,3.139,0,0,0-4.744,0,3.789,3.789,0,0,0-.4,4.46A11.521,11.521,0,0,0,43.192,50l1.839,1.392a.828.828,0,0,0,.516.172.865.865,0,0,0,.516-.172L47.9,50a11.285,11.285,0,0,0,2.862-3.205,3.789,3.789,0,0,0-.4-4.46A3.172,3.172,0,0,0,47.987,41.25Zm1.306,4.658a9.862,9.862,0,0,1-2.423,2.724l-1.323,1-1.323-1A9.481,9.481,0,0,1,41.8,45.908a2.1,2.1,0,0,1,.206-2.423,1.431,1.431,0,0,1,2.2,0l.7.782a.892.892,0,0,0,1.28,0l.7-.782a1.467,1.467,0,0,1,2.2,0,2.081,2.081,0,0,1,.206,2.423Z"/>
      </g>
    </g>
  </g>
</svg>
