<svg xmlns="http://www.w3.org/2000/svg" xmlns:xlink="http://www.w3.org/1999/xlink" width="98" height="97.998" viewBox="0 0 98 97.998">
  <defs>
    <clipPath id="clip-path">
      <rect id="Rectangle_412572" data-name="Rectangle 412572" width="57" height="55" transform="translate(1140.051 3879)" fill="#fff" stroke="#707070" stroke-width="1"/>
    </clipPath>
  </defs>
  <g id="Group_1206568" data-name="Group 1206568" transform="translate(-1119.086 -3857.106)">
    <g id="Group_1204751" data-name="Group 1204751" transform="translate(1119.086 3857.106)">
      <g id="Group_1204438" data-name="Group 1204438">
        <g id="Group_1204285" data-name="Group 1204285">
          <g id="Group_1204180" data-name="Group 1204180">
            <g id="Group_1204143" data-name="Group 1204143">
              <g id="Group_1188789" data-name="Group 1188789" transform="translate(0)">
                <path id="Path_1243039" data-name="Path 1243039" d="M41.05,0h0a41.05,41.05,0,0,1,0,82.1h0a41.05,41.05,0,0,1,0-82.1Z" transform="translate(7.951 7.949)" fill="#ffc63f"/>
                <rect id="Rectangle_400907" data-name="Rectangle 400907" width="88.438" height="88.437" rx="44.218" transform="translate(4.782 4.781)" fill="none"/>
                <g id="Group_1098742" data-name="Group 1098742" transform="translate(0)">
                  <g id="Rectangle_400898" data-name="Rectangle 400898" transform="translate(0)" fill="none" stroke="#fff" stroke-width="2" opacity="0.859">
                    <rect width="98" height="97.999" rx="48.999" stroke="none"/>
                    <rect x="1" y="1" width="96" height="95.999" rx="47.999" fill="none"/>
                  </g>
                  <g id="Rectangle_400907-2" data-name="Rectangle 400907" transform="translate(0)" fill="none" stroke="#0f1f33" stroke-linecap="round" stroke-width="2">
                    <rect width="98" height="97.999" rx="48.999" stroke="none"/>
                    <rect x="1" y="1" width="96" height="95.999" rx="47.999" fill="none"/>
                  </g>
                </g>
              </g>
            </g>
          </g>
        </g>
      </g>
    </g>
    <g id="Mask_Group_1099550" data-name="Mask Group 1099550" clip-path="url(#clip-path)">
      <g id="social-media_3886977" transform="translate(1139.218 3877.167)">
        <path id="Path_1328886" data-name="Path 1328886" d="M42.463,46.525a3.673,3.673,0,0,1-.3-1.445V30.25a1.833,1.833,0,0,0-3.667,0v5.5L37.583,55l7.333-2.75Z" fill="#ffc680"/>
        <path id="Path_1328887" data-name="Path 1328887" d="M20.167,53.167H38.5a2.75,2.75,0,0,1-2.75,2.75H22.917A2.75,2.75,0,0,1,20.167,53.167Z" fill="#e6eef3"/>
        <path id="Path_1328888" data-name="Path 1328888" d="M38.5,27.5H20.167a2.75,2.75,0,0,1,2.75-2.75H35.75A2.75,2.75,0,0,1,38.5,27.5Z" fill="#e6eef3"/>
        <path id="Path_1328889" data-name="Path 1328889" d="M20.167,27.5H38.5V53.167H20.167Z" fill="#7cb2f8"/>
        <g id="Group_1207209" data-name="Group 1207209">
          <path id="Path_1328890" data-name="Path 1328890" d="M21.083,43.083H17.417v2.75a.917.917,0,0,0,.917.917h2.75a1.833,1.833,0,1,0,0-3.667Z" fill="#ffcf94"/>
          <path id="Path_1328891" data-name="Path 1328891" d="M22.917,33.917H18.333a.917.917,0,0,0-.917.917V38.5h5.5a1.833,1.833,0,0,0,1.833-1.833V35.75A1.833,1.833,0,0,0,22.917,33.917Z" fill="#ffcf94"/>
          <path id="Path_1328892" data-name="Path 1328892" d="M22,38.5H17.417v4.583H22a1.833,1.833,0,0,0,1.833-1.833v-.917A1.833,1.833,0,0,0,22,38.5Z" fill="#ffcf94"/>
        </g>
        <path id="Path_1328893" data-name="Path 1328893" d="M28.417,31.167v5.5H30.25L33,38.5V36.667h1.833v-5.5Z" fill="#c9e6fb"/>
        <path id="Path_1328894" data-name="Path 1328894" d="M28.417,42.167v5.5H30.25L33,49.5V47.667h1.833v-5.5Z" fill="#c9e6fb"/>
        <path id="Path_1328895" data-name="Path 1328895" d="M16.5,34.833v11a1.833,1.833,0,0,0,1.833,1.833h.917v5.5a3.667,3.667,0,0,0,3.667,3.667H35.75a3.667,3.667,0,0,0,3.667-3.667V30.25a.917.917,0,1,1,1.833,0V45.081a4.573,4.573,0,0,0,.367,1.806l2.454,5.725,1.685-.722L43.3,46.165a2.75,2.75,0,0,1-.219-1.084V30.25a2.75,2.75,0,0,0-2.75-2.75,2.719,2.719,0,0,0-.917.169V27.5a3.667,3.667,0,0,0-3.667-3.667H22.917A3.667,3.667,0,0,0,19.25,27.5V33h-.917A1.833,1.833,0,0,0,16.5,34.833Zm1.833,4.583H22a.917.917,0,0,1,.917.917v.917a.917.917,0,0,1-.917.917H18.333Zm0,6.417V44h2.75a.917.917,0,0,1,0,1.833ZM35.75,55H22.917a1.827,1.827,0,0,1-1.579-.917h15.99A1.827,1.827,0,0,1,35.75,55ZM22.917,25.667H35.75a1.827,1.827,0,0,1,1.579.917H21.338A1.827,1.827,0,0,1,22.917,25.667Zm-1.833,2.75h16.5V52.25h-16.5V47.667a2.75,2.75,0,0,0,2.75-2.75,2.72,2.72,0,0,0-.367-1.348A2.745,2.745,0,0,0,24.75,41.25v-.917a2.72,2.72,0,0,0-.367-1.348,2.745,2.745,0,0,0,1.283-2.318V35.75A2.75,2.75,0,0,0,22.917,33H21.083Zm1.833,6.417a.917.917,0,0,1,.917.917v.917a.917.917,0,0,1-.917.917H18.333v-2.75Z"/>
        <path id="Path_1328896" data-name="Path 1328896" d="M28.417,20.167H30.25V22H28.417Z"/>
        <path id="Path_1328897" data-name="Path 1328897" d="M9.167,20.167H11V22H9.167Z"/>
        <path id="Path_1328898" data-name="Path 1328898" d="M12.833,22.917h1.833V24.75H12.833Z"/>
        <path id="Path_1328899" data-name="Path 1328899" d="M47.667,20.167H49.5V22H47.667Z"/>
        <path id="Path_1328900" data-name="Path 1328900" d="M44,22.917h1.833V24.75H44Z"/>
        <path id="Path_1328901" data-name="Path 1328901" d="M28.417,37.583h1.558l2.519,1.679a.917.917,0,0,0,1.423-.763v-.917h.917a.917.917,0,0,0,.917-.917v-5.5a.917.917,0,0,0-.917-.917H28.417a.917.917,0,0,0-.917.917v5.5A.917.917,0,0,0,28.417,37.583Zm.917-5.5h4.583V35.75H33a.917.917,0,0,0-.917.917v.12L30.759,35.9a.922.922,0,0,0-.509-.154h-.917Z"/>
        <path id="Path_1328902" data-name="Path 1328902" d="M28.417,48.583h1.558l2.519,1.679a.917.917,0,0,0,1.423-.763v-.917h.917a.917.917,0,0,0,.917-.917v-5.5a.917.917,0,0,0-.917-.917H28.417a.917.917,0,0,0-.917.917v5.5A.917.917,0,0,0,28.417,48.583Zm.917-5.5h4.583V46.75H33a.917.917,0,0,0-.917.917v.12L30.759,46.9a.922.922,0,0,0-.509-.154h-.917Z"/>
        <circle id="Ellipse_13035" data-name="Ellipse 13035" cx="7.333" cy="7.333" r="7.333" transform="translate(2.75 2.75)" fill="#e6eef3"/>
        <circle id="Ellipse_13036" data-name="Ellipse 13036" cx="1.833" cy="1.833" r="1.833" transform="translate(8.25 6.417)" fill="#ffcf94"/>
        <path id="Path_1328903" data-name="Path 1328903" d="M11,11H9.167a1.833,1.833,0,0,0-1.833,1.833v4.045a7.3,7.3,0,0,0,5.5,0V12.833A1.833,1.833,0,0,0,11,11Z" fill="#628ec5"/>
        <path id="Path_1328904" data-name="Path 1328904" d="M10.083,18.333a8.25,8.25,0,1,0-8.25-8.25,8.25,8.25,0,0,0,8.25,8.25Zm1.833-2.108a6.35,6.35,0,0,1-3.667,0V12.833a.917.917,0,0,1,.917-.917H11a.917.917,0,0,1,.917.917ZM9.167,8.25a.917.917,0,1,1,.917.917A.917.917,0,0,1,9.167,8.25Zm.917-4.583A6.411,6.411,0,0,1,13.75,15.341V12.833a2.75,2.75,0,0,0-1.8-2.572,2.75,2.75,0,1,0-3.724,0,2.75,2.75,0,0,0-1.8,2.572v2.508A6.411,6.411,0,0,1,10.083,3.667Z"/>
        <circle id="Ellipse_13037" data-name="Ellipse 13037" cx="7.333" cy="7.333" r="7.333" transform="translate(22 2.75)" fill="#e6eef3"/>
        <circle id="Ellipse_13038" data-name="Ellipse 13038" cx="1.833" cy="1.833" r="1.833" transform="translate(27.5 6.417)" fill="#ffcf94"/>
        <path id="Path_1328905" data-name="Path 1328905" d="M30.25,11H28.417a1.833,1.833,0,0,0-1.833,1.833v4.045a7.3,7.3,0,0,0,5.5,0V12.833A1.833,1.833,0,0,0,30.25,11Z" fill="#628ec5"/>
        <path id="Path_1328906" data-name="Path 1328906" d="M29.333,18.333a8.25,8.25,0,1,0-8.25-8.25,8.25,8.25,0,0,0,8.25,8.25Zm1.833-2.108a6.35,6.35,0,0,1-3.667,0V12.833a.917.917,0,0,1,.917-.917H30.25a.917.917,0,0,1,.917.917ZM28.417,8.25a.917.917,0,1,1,.917.917A.917.917,0,0,1,28.417,8.25Zm.917-4.583A6.411,6.411,0,0,1,33,15.341V12.833a2.75,2.75,0,0,0-1.8-2.572,2.75,2.75,0,1,0-3.723,0,2.75,2.75,0,0,0-1.8,2.572v2.508A6.411,6.411,0,0,1,29.333,3.667Z"/>
        <circle id="Ellipse_13039" data-name="Ellipse 13039" cx="7.333" cy="7.333" r="7.333" transform="translate(41.25 2.75)" fill="#e6eef3"/>
        <circle id="Ellipse_13040" data-name="Ellipse 13040" cx="1.833" cy="1.833" r="1.833" transform="translate(46.75 6.417)" fill="#ffcf94"/>
        <path id="Path_1328907" data-name="Path 1328907" d="M49.5,11H47.667a1.833,1.833,0,0,0-1.833,1.833v4.045a7.3,7.3,0,0,0,5.5,0V12.833A1.833,1.833,0,0,0,49.5,11Z" fill="#628ec5"/>
        <path id="Path_1328908" data-name="Path 1328908" d="M48.583,18.333a8.25,8.25,0,1,0-8.25-8.25,8.25,8.25,0,0,0,8.25,8.25Zm1.833-2.108a6.35,6.35,0,0,1-3.667,0V12.833a.917.917,0,0,1,.917-.917H49.5a.917.917,0,0,1,.917.917ZM47.667,8.25a.917.917,0,1,1,.917.917A.917.917,0,0,1,47.667,8.25Zm.917-4.583A6.411,6.411,0,0,1,52.25,15.341V12.833a2.75,2.75,0,0,0-1.8-2.572,2.75,2.75,0,1,0-3.723,0,2.75,2.75,0,0,0-1.8,2.572v2.508A6.411,6.411,0,0,1,48.583,3.667Z"/>
      </g>
    </g>
  </g>
</svg>
