<svg xmlns="http://www.w3.org/2000/svg" xmlns:xlink="http://www.w3.org/1999/xlink" width="98" height="97.999" viewBox="0 0 98 97.999">
  <defs>
    <clipPath id="clip-path">
      <rect id="Rectangle_412572" data-name="Rectangle 412572" width="57" height="55" transform="translate(1140.051 3879)" fill="#fff" stroke="#707070" stroke-width="1"/>
    </clipPath>
  </defs>
  <g id="Group_1207250" data-name="Group 1207250" transform="translate(-1119.086 -3857.106)">
    <g id="Group_1204751" data-name="Group 1204751" transform="translate(1119.086 3857.106)">
      <g id="Group_1204438" data-name="Group 1204438">
        <g id="Group_1204285" data-name="Group 1204285">
          <g id="Group_1204180" data-name="Group 1204180">
            <g id="Group_1204143" data-name="Group 1204143">
              <g id="Group_1188789" data-name="Group 1188789" transform="translate(0)">
                <path id="Path_1243039" data-name="Path 1243039" d="M41.05,0h0a41.05,41.05,0,0,1,0,82.1h0a41.05,41.05,0,0,1,0-82.1Z" transform="translate(7.951 7.949)" fill="#ffc63f"/>
                <rect id="Rectangle_400907" data-name="Rectangle 400907" width="88.438" height="88.437" rx="44.218" transform="translate(4.782 4.781)" fill="none"/>
                <g id="Group_1098742" data-name="Group 1098742" transform="translate(0)">
                  <g id="Rectangle_400898" data-name="Rectangle 400898" transform="translate(0)" fill="none" stroke="#fff" stroke-width="2" opacity="0.859">
                    <rect width="98" height="97.999" rx="48.999" stroke="none"/>
                    <rect x="1" y="1" width="96" height="95.999" rx="47.999" fill="none"/>
                  </g>
                  <g id="Rectangle_400907-2" data-name="Rectangle 400907" transform="translate(0)" fill="none" stroke="#0f1f33" stroke-linecap="round" stroke-width="2">
                    <rect width="98" height="97.999" rx="48.999" stroke="none"/>
                    <rect x="1" y="1" width="96" height="95.999" rx="47.999" fill="none"/>
                  </g>
                </g>
              </g>
            </g>
          </g>
        </g>
      </g>
    </g>
    <g id="Mask_Group_1099572" data-name="Mask Group 1099572" clip-path="url(#clip-path)">
      <g id="smartphone_997278" transform="translate(1140.051 3878)">
        <g id="Group_1207300" data-name="Group 1207300">
          <g id="XMLID_163_">
            <g id="Group_1207275" data-name="Group 1207275">
              <g id="Group_1207274" data-name="Group 1207274">
                <g id="Group_1207273" data-name="Group 1207273">
                  <path id="Path_1329092" data-name="Path 1329092" d="M39.354,11.368V45.632a1.683,1.683,0,0,1-1.682,1.682H19.216a1.683,1.683,0,0,1-1.682-1.682V11.368a1.683,1.683,0,0,1,1.682-1.682H37.672A1.683,1.683,0,0,1,39.354,11.368Z" fill="#ff395e"/>
                </g>
              </g>
            </g>
            <path id="Path_1329093" data-name="Path 1329093" d="M27.22,45.632V11.368A1.683,1.683,0,0,1,28.9,9.686H19.216a1.683,1.683,0,0,0-1.682,1.682V45.632a1.683,1.683,0,0,0,1.682,1.682H28.9A1.683,1.683,0,0,1,27.22,45.632Z" fill="#b12e65"/>
            <g id="Group_1207277" data-name="Group 1207277">
              <g id="Group_1207276" data-name="Group 1207276">
                <rect id="Rectangle_426276" data-name="Rectangle 426276" width="21.82" height="24.338" transform="translate(17.534 15.852)" fill="#8acaeb"/>
              </g>
            </g>
            <rect id="Rectangle_426277" data-name="Rectangle 426277" width="9.686" height="24.338" transform="translate(17.534 15.852)" fill="#8bb1ea"/>
          </g>
          <g id="XMLID_90_">
            <g id="Group_1207279" data-name="Group 1207279">
              <g id="Group_1207278" data-name="Group 1207278">
                <path id="Path_1329094" data-name="Path 1329094" d="M30.448,42.527a1.225,1.225,0,1,1,0,2.449H26.663a1.225,1.225,0,1,1,0-2.449Z" fill="#b12e65"/>
              </g>
            </g>
          </g>
          <g id="Group_1207282" data-name="Group 1207282">
            <g id="Group_1207281" data-name="Group 1207281">
              <g id="Group_1207280" data-name="Group 1207280">
                <circle id="Ellipse_13096" data-name="Ellipse 13096" cx="7.236" cy="7.236" r="7.236" transform="translate(21.208 20.818)" fill="#7ca1d8"/>
              </g>
            </g>
          </g>
          <g id="XMLID_165_">
            <g id="Group_1207285" data-name="Group 1207285">
              <g id="Group_1207284" data-name="Group 1207284">
                <g id="Group_1207283" data-name="Group 1207283">
                  <path id="Path_1329095" data-name="Path 1329095" d="M31.317,27.019a1.436,1.436,0,0,1,0,2.872H25.572a1.436,1.436,0,0,1,0-2.872h.451a2.488,2.488,0,0,1,4.843,0h.451Z" fill="#fff"/>
                </g>
              </g>
            </g>
          </g>
          <g id="XMLID_169_">
            <g id="Group_1207287" data-name="Group 1207287">
              <g id="Group_1207286" data-name="Group 1207286">
                <path id="Path_1329096" data-name="Path 1329096" d="M4.4,37.072A3.563,3.563,0,1,1,.835,40.635,3.563,3.563,0,0,1,4.4,37.072Z" fill="#7dbfec"/>
              </g>
            </g>
          </g>
          <g id="XMLID_168_">
            <g id="Group_1207289" data-name="Group 1207289">
              <g id="Group_1207288" data-name="Group 1207288">
                <path id="Path_1329097" data-name="Path 1329097" d="M12.97,13.621v3.151a.6.6,0,0,1-.6.6H1.431a.6.6,0,0,1-.6-.6V13.621a.6.6,0,0,1,.6-.6H12.374A.6.6,0,0,1,12.97,13.621Z" fill="#ff395e"/>
              </g>
            </g>
          </g>
          <g id="XMLID_166_">
            <g id="Group_1207292" data-name="Group 1207292">
              <g id="Group_1207291" data-name="Group 1207291">
                <g id="Group_1207290" data-name="Group 1207290">
                  <circle id="Ellipse_13097" data-name="Ellipse 13097" cx="4.898" cy="4.898" r="4.898" transform="translate(46.368 14.361)" fill="#c5d65c"/>
                </g>
              </g>
            </g>
          </g>
          <g id="XMLID_167_">
            <g id="Group_1207295" data-name="Group 1207295">
              <g id="Group_1207294" data-name="Group 1207294">
                <g id="Group_1207293" data-name="Group 1207293">
                  <circle id="Ellipse_13098" data-name="Ellipse 13098" cx="4.898" cy="4.898" r="4.898" transform="translate(46.368 33.176)" fill="#f3d064"/>
                </g>
              </g>
            </g>
          </g>
          <g id="XMLID_170_">
            <g id="Group_1207297" data-name="Group 1207297">
              <g id="Group_1207296" data-name="Group 1207296">
                <path id="Path_1329098" data-name="Path 1329098" d="M52.937,18.661a.835.835,0,0,1,0,1.67H49.6a.835.835,0,0,1,0-1.67h.262a1.447,1.447,0,0,1,2.817,0Z" fill="#fff"/>
              </g>
            </g>
          </g>
          <g id="XMLID_171_">
            <g id="Group_1207299" data-name="Group 1207299">
              <g id="Group_1207298" data-name="Group 1207298">
                <path id="Path_1329099" data-name="Path 1329099" d="M52.937,37.475a.835.835,0,0,1,0,1.67H49.6a.835.835,0,0,1,0-1.67h.262a1.447,1.447,0,0,1,2.817,0Z" fill="#fff"/>
              </g>
            </g>
          </g>
        </g>
        <g id="Group_1207301" data-name="Group 1207301">
          <path id="Path_1329100" data-name="Path 1329100" d="M30.448,41.692H26.663a2.06,2.06,0,0,0,0,4.119h3.785a2.06,2.06,0,0,0,0-4.119Zm0,2.449H26.663a.39.39,0,0,1,0-.779h3.785a.39.39,0,0,1,0,.779Z" fill="#000100"/>
          <path id="Path_1329101" data-name="Path 1329101" d="M30.226,12.079H23.1a.835.835,0,0,0,0,1.67h7.125a.835.835,0,0,0,0-1.67Z" fill="#000100"/>
          <path id="Path_1329102" data-name="Path 1329102" d="M34.011,12.079H32.786a.835.835,0,0,0,0,1.67h1.225a.835.835,0,0,0,0-1.67Z" fill="#000100"/>
          <path id="Path_1329103" data-name="Path 1329103" d="M31.459,26.189a3.327,3.327,0,0,0-6.028,0,2.271,2.271,0,0,0,.142,4.538h5.745a2.271,2.271,0,0,0,.142-4.538Zm-.142,2.868H25.572a.6.6,0,0,1,0-1.2h.45a.835.835,0,0,0,.813-.643,1.654,1.654,0,0,1,3.219,0,.835.835,0,0,0,.813.643h.45a.6.6,0,1,1,0,1.2Z" fill="#000100"/>
          <path id="Path_1329104" data-name="Path 1329104" d="M49.6,21.165h3.34a1.67,1.67,0,0,0,.309-3.311,2.285,2.285,0,0,0-3.957,0,1.67,1.67,0,0,0,.309,3.311Zm1.074-2.313a.612.612,0,0,1,1.191,0,.835.835,0,0,0,.813.643H49.859A.835.835,0,0,0,50.671,18.852Z" fill="#000100"/>
          <path id="Path_1329105" data-name="Path 1329105" d="M53.245,36.668a2.285,2.285,0,0,0-3.957,0A1.67,1.67,0,0,0,49.6,39.98h3.34a1.67,1.67,0,0,0,.309-3.311ZM49.859,38.31a.835.835,0,0,0,.813-.643.612.612,0,0,1,1.191,0,.835.835,0,0,0,.813.643Z" fill="#000100"/>
          <path id="Path_1329106" data-name="Path 1329106" d="M52.1,32.4V24.932a5.733,5.733,0,1,0-6.553-6.067L40.189,23.5V11.368a2.52,2.52,0,0,0-2.517-2.517H19.216A2.52,2.52,0,0,0,16.7,11.368V25.216H8.4V18.2h3.972A1.432,1.432,0,0,0,13.8,16.772V13.621a1.432,1.432,0,0,0-1.431-1.431H1.431A1.432,1.432,0,0,0,0,13.621v3.151A1.432,1.432,0,0,0,1.431,18.2h5.3v7.014H4.4a.835.835,0,0,0-.835.835V36.318a4.4,4.4,0,1,0,1.67,0V26.886H16.7v5.4a.835.835,0,0,0,1.67,0v-15.6H38.52v8.255l-2.108,1.823a8.071,8.071,0,1,0-.166,3.362l2.275,2.038v7.19H18.369V35.625a.835.835,0,0,0-1.67,0V45.632a2.52,2.52,0,0,0,2.517,2.517H37.672a2.52,2.52,0,0,0,2.517-2.517V33.66l5.358,4.8A5.733,5.733,0,1,0,52.1,32.4ZM1.67,13.86H12.135v2.672H1.67ZM7.125,40.635A2.728,2.728,0,1,1,4.4,37.907,2.731,2.731,0,0,1,7.125,40.635ZM18.369,15.017V11.368a.848.848,0,0,1,.847-.847H37.672a.848.848,0,0,1,.847.847v3.649H18.369Zm19.3,31.463H19.216a.848.848,0,0,1-.847-.847V41.024H38.52v4.608A.848.848,0,0,1,37.672,46.479ZM51.267,15.2A4.063,4.063,0,1,1,47.2,19.26,4.068,4.068,0,0,1,51.267,15.2ZM28.444,34.456a6.4,6.4,0,1,1,6.4-6.4A6.409,6.409,0,0,1,28.444,34.456Zm8.5-5.945,1.575-1.362v2.773Zm3.245-2.806,5.579-4.824a5.749,5.749,0,0,0,4.663,4.05V32.4a5.749,5.749,0,0,0-4.655,4.021l-5.587-5.005ZM51.267,42.138a4.063,4.063,0,1,1,4.063-4.063A4.068,4.068,0,0,1,51.267,42.138Z" fill="#000100"/>
        </g>
      </g>
    </g>
  </g>
</svg>
