<svg xmlns="http://www.w3.org/2000/svg" xmlns:xlink="http://www.w3.org/1999/xlink" width="98" height="97.999" viewBox="0 0 98 97.999">
  <defs>
    <clipPath id="clip-path">
      <rect id="Rectangle_412572" data-name="Rectangle 412572" width="57" height="55" transform="translate(1140.051 3879)" fill="#fff" stroke="#707070" stroke-width="1"/>
    </clipPath>
  </defs>
  <g id="Group_1206793" data-name="Group 1206793" transform="translate(-1119.086 -3857.106)">
    <g id="Group_1204751" data-name="Group 1204751" transform="translate(1119.086 3857.106)">
      <g id="Group_1204438" data-name="Group 1204438">
        <g id="Group_1204285" data-name="Group 1204285">
          <g id="Group_1204180" data-name="Group 1204180">
            <g id="Group_1204143" data-name="Group 1204143">
              <g id="Group_1188789" data-name="Group 1188789" transform="translate(0)">
                <path id="Path_1243039" data-name="Path 1243039" d="M41.05,0h0a41.05,41.05,0,0,1,0,82.1h0a41.05,41.05,0,0,1,0-82.1Z" transform="translate(7.951 7.949)" fill="#ffc63f"/>
                <rect id="Rectangle_400907" data-name="Rectangle 400907" width="88.438" height="88.437" rx="44.218" transform="translate(4.782 4.781)" fill="none"/>
                <g id="Group_1098742" data-name="Group 1098742" transform="translate(0)">
                  <g id="Rectangle_400898" data-name="Rectangle 400898" transform="translate(0)" fill="none" stroke="#fff" stroke-width="2" opacity="0.859">
                    <rect width="98" height="97.999" rx="48.999" stroke="none"/>
                    <rect x="1" y="1" width="96" height="95.999" rx="47.999" fill="none"/>
                  </g>
                  <g id="Rectangle_400907-2" data-name="Rectangle 400907" transform="translate(0)" fill="none" stroke="#0f1f33" stroke-linecap="round" stroke-width="2">
                    <rect width="98" height="97.999" rx="48.999" stroke="none"/>
                    <rect x="1" y="1" width="96" height="95.999" rx="47.999" fill="none"/>
                  </g>
                </g>
              </g>
            </g>
          </g>
        </g>
      </g>
    </g>
    <g id="Mask_Group_1099567" data-name="Mask Group 1099567" clip-path="url(#clip-path)">
      <g id="_x33_7_x2C__Fast_x2C__Mobile_x2C__Search_x2C__Seo" transform="translate(1138.125 3876.074)">
        <g id="Group_1207257" data-name="Group 1207257">
          <path id="Path_1329008" data-name="Path 1329008" d="M12.3,50.319v2.3a4.719,4.719,0,0,0,4.719,4.719H38.006a4.72,4.72,0,0,0,4.721-4.719v-2.3Z" fill="#555a66"/>
          <path id="Path_1329009" data-name="Path 1329009" d="M12.3,10.532V50.319H42.727V10.532Z" fill="#f2f2f2"/>
          <path id="Path_1329010" data-name="Path 1329010" d="M14.642,12.872H40.386V47.979H14.642Z" fill="#87c7ff"/>
          <path id="Path_1329011" data-name="Path 1329011" d="M51.8,10.532a3.218,3.218,0,1,1-3.218,3.218A3.219,3.219,0,0,1,51.8,10.532Z" fill="#07cc66"/>
          <path id="Path_1329012" data-name="Path 1329012" d="M6.743,40.957A1.463,1.463,0,1,1,5.28,42.42a1.463,1.463,0,0,1,1.463-1.463Z" fill="#07cc66"/>
          <path id="Path_1329013" data-name="Path 1329013" d="M50.373,38.592a.888.888,0,0,1,0,1.257l-.125.125L46.982,43.24l-.125.125A.888.888,0,0,1,45.6,42.11l.627-.628,2.261-2.261.628-.628a.888.888,0,0,1,1.256,0Z" fill="#555a66"/>
          <path id="Path_1329014" data-name="Path 1329014" d="M54.895,44.621a2.309,2.309,0,1,1-3.265,3.266l-4.648-4.647,3.266-3.266Z" fill="#333940"/>
          <path id="Path_1329015" data-name="Path 1329015" d="M35.162,37.4a6.759,6.759,0,1,0-.489-.445c.157.157.321.305.489.445ZM33.147,39.42c-.166-.143-.328-.294-.484-.451a9.594,9.594,0,0,1,10.064-15.8h0A9.595,9.595,0,0,1,47.159,37.89l1.329,1.331-2.261,2.261-1.373-1.373a9.595,9.595,0,0,1-11.708-.689Z" fill="#333940"/>
          <path id="Path_1329016" data-name="Path 1329016" d="M35.162,37.4c-.168-.139-.332-.288-.489-.445a6.74,6.74,0,1,1,.489.445Z" fill="#f2f2f2"/>
          <path id="Path_1329017" data-name="Path 1329017" d="M27.514,52.074a1.755,1.755,0,1,1-1.755,1.755A1.756,1.756,0,0,1,27.514,52.074Z" fill="#22282d"/>
          <path id="Path_1329018" data-name="Path 1329018" d="M42.727,8.23v2.3H12.3V8.23a4.719,4.719,0,0,1,4.719-4.719H38.006A4.72,4.72,0,0,1,42.727,8.23Z" fill="#555a66"/>
          <path id="Path_1329019" data-name="Path 1329019" d="M52.966,25.16a.878.878,0,1,1-.878.878A.878.878,0,0,1,52.966,25.16Z"/>
          <path id="Path_1329020" data-name="Path 1329020" d="M47.7,49.734a.878.878,0,1,1-.878.878A.878.878,0,0,1,47.7,49.734Z"/>
          <path id="Path_1329021" data-name="Path 1329021" d="M46.53,5.851a.878.878,0,1,1-.878.878A.878.878,0,0,1,46.53,5.851Z"/>
          <circle id="Ellipse_13082" data-name="Ellipse 13082" cx="0.585" cy="0.585" r="0.585" transform="translate(25.174 14.628)"/>
          <circle id="Ellipse_13083" data-name="Ellipse 13083" cx="0.585" cy="0.585" r="0.585" transform="translate(25.174 16.968)"/>
          <circle id="Ellipse_13084" data-name="Ellipse 13084" cx="0.585" cy="0.585" r="0.585" transform="translate(25.174 19.309)"/>
          <circle id="Ellipse_13085" data-name="Ellipse 13085" cx="0.585" cy="0.585" r="0.585" transform="translate(25.174 21.649)"/>
          <circle id="Ellipse_13086" data-name="Ellipse 13086" cx="0.585" cy="0.585" r="0.585" transform="translate(25.174 23.989)"/>
          <circle id="Ellipse_13087" data-name="Ellipse 13087" cx="0.585" cy="0.585" r="0.585" transform="translate(25.174 26.33)"/>
          <path id="Path_1329022" data-name="Path 1329022" d="M8.5,33.351a.878.878,0,1,1-.878.878A.878.878,0,0,1,8.5,33.351Z"/>
          <path id="Path_1329023" data-name="Path 1329023" d="M7.328,11.7a.878.878,0,1,1-.878.878.878.878,0,0,1,.878-.878Z"/>
          <path id="Path_1329024" data-name="Path 1329024" d="M6.158,50.319a.878.878,0,1,1-.878.878A.878.878,0,0,1,6.158,50.319Z"/>
          <path id="Path_1329025" data-name="Path 1329025" d="M27.514,56.17a2.34,2.34,0,1,1,2.34-2.34A2.343,2.343,0,0,1,27.514,56.17Zm0-3.511a1.17,1.17,0,1,0,1.17,1.17A1.172,1.172,0,0,0,27.514,52.66Z"/>
          <path id="Path_1329026" data-name="Path 1329026" d="M42.727,11.117H12.3a.585.585,0,0,1,0-1.17H42.727a.585.585,0,0,1,0,1.17Z"/>
          <path id="Path_1329027" data-name="Path 1329027" d="M29.854,7.606H25.134a.585.585,0,1,1,0-1.17h4.721a.585.585,0,1,1,0,1.17Z"/>
          <path id="Path_1329028" data-name="Path 1329028" d="M42.727,50.9H12.3a.585.585,0,0,1,0-1.17H42.727a.585.585,0,1,1,0,1.17Z"/>
          <path id="Path_1329029" data-name="Path 1329029" d="M6.743,44.468A2.048,2.048,0,1,1,8.791,42.42a2.05,2.05,0,0,1-2.048,2.048Zm0-2.926a.878.878,0,1,0,.878.878.879.879,0,0,0-.878-.878Z"/>
          <path id="Path_1329030" data-name="Path 1329030" d="M51.8,17.553a3.8,3.8,0,1,1,3.8-3.8A3.808,3.808,0,0,1,51.8,17.553Zm0-6.436a2.633,2.633,0,1,0,2.633,2.633A2.636,2.636,0,0,0,51.8,11.117Z"/>
          <path id="Path_1329031" data-name="Path 1329031" d="M40.386,48.564H14.642a.585.585,0,0,1-.585-.585V12.872a.585.585,0,0,1,.585-.585H40.386a.585.585,0,0,1,.585.585v9.769a.585.585,0,1,1-1.17,0V13.457H15.227V47.394H39.8V41.732a.585.585,0,1,1,1.17,0v6.248A.585.585,0,0,1,40.386,48.564Z"/>
          <path id="Path_1329032" data-name="Path 1329032" d="M38.006,57.926H17.021a5.311,5.311,0,0,1-5.3-5.3V8.23a5.311,5.311,0,0,1,5.3-5.3H38.006a5.311,5.311,0,0,1,5.306,5.3V23.173a.585.585,0,0,1-1.17,0V8.23A4.14,4.14,0,0,0,38.006,4.1H17.021A4.139,4.139,0,0,0,12.886,8.23V52.621a4.139,4.139,0,0,0,4.134,4.134H38.006a4.14,4.14,0,0,0,4.136-4.134V41.2a.585.585,0,0,1,1.17,0v11.42a5.311,5.311,0,0,1-5.306,5.3Z"/>
          <path id="Path_1329033" data-name="Path 1329033" d="M46.229,44.211A1.472,1.472,0,0,1,45.188,41.7L48.7,38.179a1.473,1.473,0,1,1,2.083,2.084L47.27,43.78A1.464,1.464,0,0,1,46.229,44.211Zm3.515-5.293a.3.3,0,0,0-.213.088l-3.516,3.517a.3.3,0,0,0,0,.428.311.311,0,0,0,.429,0l3.517-3.517a.3.3,0,0,0-.215-.518Z"/>
          <path id="Path_1329034" data-name="Path 1329034" d="M39.445,39.522a7.338,7.338,0,0,1-4.655-1.666c-.185-.153-.363-.315-.531-.483a7.334,7.334,0,1,1,5.185,2.149Zm0-13.5a6.164,6.164,0,0,0-4.359,10.524c.142.142.293.279.448.407a6.165,6.165,0,1,0,3.91-10.931Z"/>
          <path id="Path_1329035" data-name="Path 1329035" d="M28.684,44.468a.583.583,0,0,1-.414-.171l-3.389-3.389L21.492,44.3a.585.585,0,0,1-.827-.827l3.8-3.8a.585.585,0,0,1,.827,0l3.389,3.389L39.095,32.645a.585.585,0,0,1,.827.827L29.1,44.3a.583.583,0,0,1-.414.171Z"/>
          <path id="Path_1329036" data-name="Path 1329036" d="M39.217,35.984a.6.6,0,0,1-.073,0,.585.585,0,0,1-.508-.653l.21-1.683H37.168a.585.585,0,0,1,0-1.17h2.34a.585.585,0,0,1,.581.658l-.293,2.34A.585.585,0,0,1,39.217,35.984Z"/>
          <path id="Path_1329037" data-name="Path 1329037" d="M53.262,49.149a2.871,2.871,0,0,1-2.047-.848l-4.648-4.646a.585.585,0,0,1,.827-.828l4.648,4.647a1.723,1.723,0,0,0,2.437,0,1.726,1.726,0,0,0,0-2.439l-4.647-4.647a.585.585,0,0,1,.827-.827l4.647,4.647a2.895,2.895,0,0,1-2.046,4.941Z"/>
          <path id="Path_1329038" data-name="Path 1329038" d="M39.456,42.363a10.2,10.2,0,0,1-6.693-2.5c-.167-.144-.341-.306-.513-.477a10.179,10.179,0,0,1,10.677-16.76l.033.013a10.181,10.181,0,0,1,6.638,8.84,10.181,10.181,0,0,1-1.677,6.349l.982.983a.585.585,0,0,1-.828.827L46.746,38.3a.585.585,0,0,1-.056-.762,9.054,9.054,0,0,0-.875-11.723,8.91,8.91,0,0,0-3.287-2.1l-.033-.013a9.007,9.007,0,0,0-9.418,14.845c.151.151.3.293.452.421a9.02,9.02,0,0,0,9,1.676,8.937,8.937,0,0,0,2-1.026.585.585,0,0,1,.744.069l1.373,1.373a.585.585,0,0,1-.827.827l-1.038-1.038a10.136,10.136,0,0,1-4.334,1.457q-.494.048-.987.048Z"/>
          <path id="Path_1329039" data-name="Path 1329039" d="M24,27.5H16.982a.585.585,0,1,1,0-1.17H24a.585.585,0,1,1,0,1.17Z"/>
          <path id="Path_1329040" data-name="Path 1329040" d="M24,25.16H16.982a.585.585,0,1,1,0-1.17H24a.585.585,0,1,1,0,1.17Z"/>
          <path id="Path_1329041" data-name="Path 1329041" d="M24,22.819H16.982a.585.585,0,1,1,0-1.17H24a.585.585,0,0,1,0,1.17Z"/>
          <path id="Path_1329042" data-name="Path 1329042" d="M24,20.479H16.982a.585.585,0,1,1,0-1.17H24a.585.585,0,0,1,0,1.17Z"/>
          <path id="Path_1329043" data-name="Path 1329043" d="M24,18.138H16.982a.585.585,0,1,1,0-1.17H24a.585.585,0,0,1,0,1.17Z"/>
          <path id="Path_1329044" data-name="Path 1329044" d="M24,15.8H16.982a.585.585,0,1,1,0-1.17H24a.585.585,0,0,1,0,1.17Z"/>
        </g>
      </g>
    </g>
  </g>
</svg>
