<svg xmlns="http://www.w3.org/2000/svg" xmlns:xlink="http://www.w3.org/1999/xlink" width="98" height="97.998" viewBox="0 0 98 97.998">
  <defs>
    <clipPath id="clip-path">
      <rect id="Rectangle_412572" data-name="Rectangle 412572" width="57" height="55" transform="translate(1140.051 3879)" fill="#fff" stroke="#707070" stroke-width="1"/>
    </clipPath>
  </defs>
  <g id="Group_1206431" data-name="Group 1206431" transform="translate(-1119.086 -3857.106)">
    <g id="Group_1204751" data-name="Group 1204751" transform="translate(1119.086 3857.106)">
      <g id="Group_1204438" data-name="Group 1204438">
        <g id="Group_1204285" data-name="Group 1204285">
          <g id="Group_1204180" data-name="Group 1204180">
            <g id="Group_1204143" data-name="Group 1204143">
              <g id="Group_1188789" data-name="Group 1188789" transform="translate(0)">
                <path id="Path_1243039" data-name="Path 1243039" d="M41.05,0h0a41.05,41.05,0,0,1,0,82.1h0a41.05,41.05,0,0,1,0-82.1Z" transform="translate(7.951 7.949)" fill="#ffc63f"/>
                <rect id="Rectangle_400907" data-name="Rectangle 400907" width="88.438" height="88.437" rx="44.218" transform="translate(4.782 4.781)" fill="none"/>
                <g id="Group_1098742" data-name="Group 1098742" transform="translate(0)">
                  <g id="Rectangle_400898" data-name="Rectangle 400898" transform="translate(0)" fill="none" stroke="#fff" stroke-width="2" opacity="0.859">
                    <rect width="98" height="97.999" rx="48.999" stroke="none"/>
                    <rect x="1" y="1" width="96" height="95.999" rx="47.999" fill="none"/>
                  </g>
                  <g id="Rectangle_400907-2" data-name="Rectangle 400907" transform="translate(0)" fill="none" stroke="#0f1f33" stroke-linecap="round" stroke-width="2">
                    <rect width="98" height="97.999" rx="48.999" stroke="none"/>
                    <rect x="1" y="1" width="96" height="95.999" rx="47.999" fill="none"/>
                  </g>
                </g>
              </g>
            </g>
          </g>
        </g>
      </g>
    </g>
    <g id="Mask_Group_1099566" data-name="Mask Group 1099566" clip-path="url(#clip-path)">
      <g id="mobile-solution_11748022" transform="translate(1140.049 3877.998)">
        <g id="Group_1207256" data-name="Group 1207256">
          <g id="Group_1207254" data-name="Group 1207254">
            <path id="Path_1329003" data-name="Path 1329003" d="M51.7,51.346a3.889,3.889,0,0,1-3.877,3.877H24.736a3.889,3.889,0,0,1-3.877-3.877V5.659a3.889,3.889,0,0,1,3.877-3.877H47.821A3.889,3.889,0,0,1,51.7,5.659V51.346Z" fill="#636c77" fill-rule="evenodd"/>
            <path id="Path_1329004" data-name="Path 1329004" d="M50.14,51.346V5.659A2.329,2.329,0,0,0,47.821,3.34H24.736a2.329,2.329,0,0,0-2.318,2.318V51.346a2.329,2.329,0,0,0,2.318,2.318H47.821A2.329,2.329,0,0,0,50.14,51.346Z" fill="#38a8d2" fill-rule="evenodd"/>
          </g>
          <g id="Group_1207255" data-name="Group 1207255">
            <path id="Path_1329005" data-name="Path 1329005" d="M20.858,18.4a8.115,8.115,0,0,1,8.115,8.115c0,5.276-3.8,4.041-3.8,13.612H16.539c0-9.57-3.8-8.335-3.8-13.612A8.114,8.114,0,0,1,20.858,18.4Z" fill="#fdcd56" fill-rule="evenodd"/>
            <path id="Path_1329006" data-name="Path 1329006" d="M16.375,37.857h8.967A1.345,1.345,0,0,1,26.684,39.2v2.9a1.345,1.345,0,0,1-1.341,1.341H23.963V44.78A1.269,1.269,0,0,1,22.7,46.046H19.019a1.269,1.269,0,0,1-1.266-1.266V43.435H16.375a1.345,1.345,0,0,1-1.341-1.341V39.2a1.346,1.346,0,0,1,1.342-1.341Z" fill="#e4e8eb" fill-rule="evenodd"/>
          </g>
        </g>
        <path id="Path_1329007" data-name="Path 1329007" d="M19.267,29.389a.776.776,0,0,0,.576.273h.016a.77.77,0,0,0,.566-.247l4.426-4.727a.779.779,0,1,0-1.137-1.064l-3.829,4.09-1.854-2.166a.779.779,0,1,0-1.184,1.012ZM11.8,34.473l-2.493,2.5a.778.778,0,1,0,1.1,1.1l2.5-2.5a.78.78,0,0,0-1.105-1.1Zm-2.19-7.954a.781.781,0,0,0-.78-.779H5.3a.779.779,0,1,0,0,1.558H8.833A.78.78,0,0,0,9.613,26.519Zm2.19-7.954a.8.8,0,0,0,.555.228.779.779,0,0,0,.55-1.33l-2.5-2.5a.779.779,0,1,0-1.1,1.1ZM28.816,34.473a.78.78,0,0,0,0,1.1l2.5,2.5a.778.778,0,0,0,1.1-1.1l-2.5-2.5A.778.778,0,0,0,28.816,34.473Zm7.606-8.733H32.886a.779.779,0,0,0,0,1.558h3.536a.779.779,0,1,0,0-1.558ZM31.315,14.965l-2.5,2.5a.779.779,0,1,0,1.1,1.1l2.5-2.5a.779.779,0,0,0-1.1-1.1Zm-10.455.306a.778.778,0,0,0,.78-.779V10.959a.78.78,0,0,0-1.561,0v3.533A.781.781,0,0,0,20.86,15.271ZM19.021,45.266H22.7a.491.491,0,0,0,.487-.487V43.435a.782.782,0,0,1,.78-.779h1.378a.566.566,0,0,0,.566-.562V39.2a.567.567,0,0,0-.566-.562H16.376a.562.562,0,0,0-.56.562v2.9a.561.561,0,0,0,.56.562h1.378a.778.778,0,0,1,.78.779v1.345a.5.5,0,0,0,.487.487ZM14.883,30.634a6.47,6.47,0,0,1-1.357-4.115,7.336,7.336,0,0,1,14.672,0,6.5,6.5,0,0,1-1.357,4.115,12.968,12.968,0,0,0-2.289,6.443H17.172a12.974,12.974,0,0,0-2.289-6.443ZM22.7,46.825H19.021a2.046,2.046,0,0,1-2.043-2.045v-.565h-.6a2.124,2.124,0,0,1-2.122-2.121V39.2a2.127,2.127,0,0,1,1.362-1.977,11.466,11.466,0,0,0-2.043-5.74,7.928,7.928,0,0,1-1.608-4.961,8.894,8.894,0,0,1,17.789,0,7.96,7.96,0,0,1-1.6,4.961,11.46,11.46,0,0,0-2.048,5.74A2.119,2.119,0,0,1,27.465,39.2v2.9a2.121,2.121,0,0,1-2.122,2.121h-.6v.565A2.047,2.047,0,0,1,22.7,46.825Zm10.7,3.018a.776.776,0,0,0,.775.779h4.222a.779.779,0,1,0,0-1.559H34.17A.777.777,0,0,0,33.395,49.843ZM52.483,5.658V51.346A4.662,4.662,0,0,1,47.826,56H24.741a4.663,4.663,0,0,1-4.662-4.656V49.163a.78.78,0,0,1,1.561,0v2.183a3.1,3.1,0,0,0,3.1,3.1H47.826a3.1,3.1,0,0,0,3.1-3.1V5.658a3.1,3.1,0,0,0-3.1-3.1H24.741a3.1,3.1,0,0,0-3.1,3.1V7.842a.78.78,0,0,1-1.561,0V5.658A4.663,4.663,0,0,1,24.741,1H47.826a4.662,4.662,0,0,1,4.657,4.656Z" fill-rule="evenodd"/>
      </g>
    </g>
  </g>
</svg>
