<svg xmlns="http://www.w3.org/2000/svg" xmlns:xlink="http://www.w3.org/1999/xlink" width="98" height="97.998" viewBox="0 0 98 97.998">
  <defs>
    <clipPath id="clip-path">
      <rect id="Rectangle_412572" data-name="Rectangle 412572" width="57" height="55" transform="translate(1140.051 3879)" fill="#fff" stroke="#707070" stroke-width="1"/>
    </clipPath>
  </defs>
  <g id="Group_1206432" data-name="Group 1206432" transform="translate(-1119.086 -3857.106)">
    <g id="Group_1204751" data-name="Group 1204751" transform="translate(1119.086 3857.106)">
      <g id="Group_1204438" data-name="Group 1204438">
        <g id="Group_1204285" data-name="Group 1204285">
          <g id="Group_1204180" data-name="Group 1204180">
            <g id="Group_1204143" data-name="Group 1204143">
              <g id="Group_1188789" data-name="Group 1188789" transform="translate(0)">
                <path id="Path_1243039" data-name="Path 1243039" d="M41.05,0h0a41.05,41.05,0,0,1,0,82.1h0a41.05,41.05,0,0,1,0-82.1Z" transform="translate(7.951 7.949)" fill="#ffc63f"/>
                <rect id="Rectangle_400907" data-name="Rectangle 400907" width="88.438" height="88.437" rx="44.218" transform="translate(4.782 4.781)" fill="none"/>
                <g id="Group_1098742" data-name="Group 1098742" transform="translate(0)">
                  <g id="Rectangle_400898" data-name="Rectangle 400898" transform="translate(0)" fill="none" stroke="#fff" stroke-width="2" opacity="0.859">
                    <rect width="98" height="97.999" rx="48.999" stroke="none"/>
                    <rect x="1" y="1" width="96" height="95.999" rx="47.999" fill="none"/>
                  </g>
                  <g id="Rectangle_400907-2" data-name="Rectangle 400907" transform="translate(0)" fill="none" stroke="#0f1f33" stroke-linecap="round" stroke-width="2">
                    <rect width="98" height="97.999" rx="48.999" stroke="none"/>
                    <rect x="1" y="1" width="96" height="95.999" rx="47.999" fill="none"/>
                  </g>
                </g>
              </g>
            </g>
          </g>
        </g>
      </g>
    </g>
    <g id="Mask_Group_1099564" data-name="Mask Group 1099564" clip-path="url(#clip-path)">
      <g id="Page-1" transform="translate(1141.051 3879)">
        <g id="_048---Security" data-name="048---Security">
          <g id="Group_1207253" data-name="Group 1207253">
            <path id="Shape" d="M32.083,49.5A4.583,4.583,0,0,1,27.5,54.083H5.5A4.583,4.583,0,0,1,.917,49.5V5.5A4.583,4.583,0,0,1,5.5.917h22A4.583,4.583,0,0,1,32.083,5.5Z" fill="#00bcd4"/>
            <path id="Shape-2" data-name="Shape" d="M27.5.917H24.75A4.583,4.583,0,0,1,29.333,5.5v44a4.583,4.583,0,0,1-4.583,4.583H27.5A4.583,4.583,0,0,0,32.083,49.5V5.5A4.583,4.583,0,0,0,27.5.917Z" fill="#00838f"/>
            <path id="Shape-3" data-name="Shape" d="M26.583.917,24.34,5.4A1.833,1.833,0,0,1,22.7,6.417H10.3A1.833,1.833,0,0,1,8.66,5.4L6.417.917Z" fill="#607d8b"/>
            <path id="Shape-4" data-name="Shape" d="M19.25,22,8.732,27.61a.917.917,0,0,0,0,1.613l10.518,5.61V41.25a4.583,4.583,0,0,0,4.583,4.583H49.5a4.583,4.583,0,0,0,4.583-4.583V15.583A4.583,4.583,0,0,0,49.5,11H23.833a4.583,4.583,0,0,0-4.583,4.583Z" fill="#60a917"/>
            <path id="Shape-5" data-name="Shape" d="M49.5,11H46.75a4.583,4.583,0,0,1,4.583,4.583V41.25a4.583,4.583,0,0,1-4.583,4.583H49.5a4.583,4.583,0,0,0,4.583-4.583V15.583A4.583,4.583,0,0,0,49.5,11Z" fill="#549414"/>
            <path id="Shape-6" data-name="Shape" d="M37.26,16.716a14.465,14.465,0,0,0,8.63,3.392.923.923,0,0,1,.86.917V24.75c0,9.6-7.253,14.239-9.672,15.483a.888.888,0,0,1-.825,0c-2.417-1.244-9.67-5.885-9.67-15.483V21.027a.922.922,0,0,1,.86-.917,14.465,14.465,0,0,0,8.63-3.392.917.917,0,0,1,1.186,0Z" fill="#f5f5f5"/>
            <path id="Shape-7" data-name="Shape" d="M44,20.167V24.75a17.311,17.311,0,0,1-8.708,14.942c.367.22.7.405.963.542a.888.888,0,0,0,.825,0c2.417-1.245,9.67-5.886,9.67-15.483V21.026a.923.923,0,0,0-.86-.917Z" fill="#cfd8dc"/>
          </g>
          <path id="Shape-8" data-name="Shape" d="M32.083,29.333l2.75,2.75,7.333-6.417" fill="none" stroke="#000" stroke-linecap="round" stroke-linejoin="round" stroke-width="1.833" fill-rule="evenodd"/>
          <path id="Shape-9" data-name="Shape" d="M5.5,55h22A5.505,5.505,0,0,0,33,49.5a.917.917,0,0,0-1.833,0A3.667,3.667,0,0,1,27.5,53.167H5.5A3.667,3.667,0,0,1,1.833,49.5V5.5A3.667,3.667,0,0,1,5.5,1.833h.35l1.99,3.98A2.736,2.736,0,0,0,10.3,7.333H22.7a2.736,2.736,0,0,0,2.459-1.52l1.99-3.98h.35A3.667,3.667,0,0,1,31.167,5.5V7.333a.917.917,0,1,0,1.833,0V5.5A5.505,5.505,0,0,0,27.5,0H5.5A5.505,5.505,0,0,0,0,5.5v44A5.505,5.505,0,0,0,5.5,55ZM23.52,4.993A.91.91,0,0,1,22.7,5.5H10.3a.91.91,0,0,1-.819-.507L7.9,1.833H25.1Z"/>
          <path id="Shape-10" data-name="Shape" d="M23.833,51.333a.917.917,0,0,0,0-1.833H9.167a.917.917,0,0,0,0,1.833Z"/>
          <path id="Shape-11" data-name="Shape" d="M49.5,10.083H23.833a5.505,5.505,0,0,0-5.5,5.5V21.45L8.3,26.8a1.833,1.833,0,0,0,0,3.232l10.035,5.35V41.25a5.505,5.505,0,0,0,5.5,5.5H49.5a5.505,5.505,0,0,0,5.5-5.5V15.583A5.505,5.505,0,0,0,49.5,10.083ZM53.167,41.25A3.667,3.667,0,0,1,49.5,44.917H23.833a3.667,3.667,0,0,1-3.667-3.667V34.833a.917.917,0,0,0-.485-.809L9.167,28.417l10.518-5.609A.917.917,0,0,0,20.167,22V15.583a3.667,3.667,0,0,1,3.667-3.667H49.5a3.667,3.667,0,0,1,3.667,3.667Z"/>
          <path id="Shape-12" data-name="Shape" d="M45.964,19.2a13.567,13.567,0,0,1-8.118-3.187,1.843,1.843,0,0,0-2.358,0A13.561,13.561,0,0,1,27.371,19.2a1.833,1.833,0,0,0-1.7,1.828V24.75c0,10.267,7.783,15.071,10.175,16.3a1.824,1.824,0,0,0,1.66,0c2.382-1.227,10.165-6.032,10.165-16.3V21.026a1.833,1.833,0,0,0-1.7-1.828Zm-.13,5.551c0,9.231-7.022,13.561-9.159,14.667C34.522,38.311,27.5,33.981,27.5,24.75l.017-3.723a15.424,15.424,0,0,0,9.143-3.61h.013a15.431,15.431,0,0,0,9.16,3.61Z"/>
          <path id="Shape-13" data-name="Shape" d="M32.731,28.685a.917.917,0,0,0-1.3,1.3l2.75,2.75a.917.917,0,0,0,1.251.042l7.333-6.417a.917.917,0,0,0-1.206-1.38l-6.692,5.853Z"/>
        </g>
      </g>
    </g>
  </g>
</svg>
