<svg xmlns="http://www.w3.org/2000/svg" xmlns:xlink="http://www.w3.org/1999/xlink" width="98" height="97.999" viewBox="0 0 98 97.999">
  <defs>
    <clipPath id="clip-path">
      <rect id="Rectangle_412572" data-name="Rectangle 412572" width="57" height="55" transform="translate(1140.051 3879)" fill="#fff" stroke="#707070" stroke-width="1"/>
    </clipPath>
  </defs>
  <g id="Group_1206960" data-name="Group 1206960" transform="translate(-1119.086 -3857.106)">
    <g id="Group_1204751" data-name="Group 1204751" transform="translate(1119.086 3857.106)">
      <g id="Group_1204438" data-name="Group 1204438">
        <g id="Group_1204285" data-name="Group 1204285">
          <g id="Group_1204180" data-name="Group 1204180">
            <g id="Group_1204143" data-name="Group 1204143">
              <g id="Group_1188789" data-name="Group 1188789" transform="translate(0)">
                <path id="Path_1243039" data-name="Path 1243039" d="M41.05,0h0a41.05,41.05,0,0,1,0,82.1h0a41.05,41.05,0,0,1,0-82.1Z" transform="translate(7.951 7.949)" fill="#ffc63f"/>
                <rect id="Rectangle_400907" data-name="Rectangle 400907" width="88.438" height="88.437" rx="44.218" transform="translate(4.782 4.781)" fill="none"/>
                <g id="Group_1098742" data-name="Group 1098742" transform="translate(0)">
                  <g id="Rectangle_400898" data-name="Rectangle 400898" transform="translate(0)" fill="none" stroke="#fff" stroke-width="2" opacity="0.859">
                    <rect width="98" height="97.999" rx="48.999" stroke="none"/>
                    <rect x="1" y="1" width="96" height="95.999" rx="47.999" fill="none"/>
                  </g>
                  <g id="Rectangle_400907-2" data-name="Rectangle 400907" transform="translate(0)" fill="none" stroke="#0f1f33" stroke-linecap="round" stroke-width="2">
                    <rect width="98" height="97.999" rx="48.999" stroke="none"/>
                    <rect x="1" y="1" width="96" height="95.999" rx="47.999" fill="none"/>
                  </g>
                </g>
              </g>
            </g>
          </g>
        </g>
      </g>
    </g>
    <g id="Mask_Group_1099574" data-name="Mask Group 1099574" clip-path="url(#clip-path)">
      <g id="monitoring_4728650" transform="translate(1141.051 3879)">
        <g id="Group_1207330" data-name="Group 1207330">
          <g id="Group_1207313" data-name="Group 1207313">
            <path id="Path_1329128" data-name="Path 1329128" d="M31.048,43.468v7.1A3.547,3.547,0,0,1,27.5,54.113H4.435A3.547,3.547,0,0,1,.887,50.565v-7.1Z" fill="#969faa"/>
          </g>
          <g id="Group_1207314" data-name="Group 1207314">
            <path id="Path_1329129" data-name="Path 1329129" d="M.887,7.984H31.048V43.468H.887Z" fill="#69d6f4"/>
          </g>
          <g id="Group_1207315" data-name="Group 1207315">
            <path id="Path_1329130" data-name="Path 1329130" d="M31.048,4.435V7.984H15.968a3.547,3.547,0,0,0,3.548-3.548V.887H27.5A3.547,3.547,0,0,1,31.048,4.435Z" fill="#969faa"/>
          </g>
          <g id="Group_1207316" data-name="Group 1207316">
            <path id="Path_1329131" data-name="Path 1329131" d="M15.968,7.984H.887V4.435A3.547,3.547,0,0,1,4.435.887h7.984V4.435a3.544,3.544,0,0,0,3.548,3.548Z" fill="#969faa"/>
          </g>
          <g id="Group_1207317" data-name="Group 1207317">
            <path id="Path_1329132" data-name="Path 1329132" d="M19.516.887V4.435a3.548,3.548,0,1,1-7.1,0V.887Z" fill="#4fc1e9"/>
          </g>
          <g id="Group_1207318" data-name="Group 1207318">
            <path id="Path_1329133" data-name="Path 1329133" d="M4.435,25.726H9.758v5.323H4.435Z" fill="#fcd770"/>
          </g>
          <g id="Group_1207319" data-name="Group 1207319">
            <path id="Path_1329134" data-name="Path 1329134" d="M27.5,34.756v5.163H22.177V34.6h5.03v-.009C27.3,34.65,27.4,34.7,27.5,34.756Z" fill="#fcd770"/>
          </g>
          <g id="Group_1207320" data-name="Group 1207320">
            <path id="Path_1329135" data-name="Path 1329135" d="M13.306,34.6h5.323v5.323H13.306Z" fill="#fcd770"/>
          </g>
          <g id="Group_1207321" data-name="Group 1207321">
            <path id="Path_1329136" data-name="Path 1329136" d="M4.435,34.6H9.758v5.323H4.435Z" fill="#fcd770"/>
          </g>
          <g id="Group_1207322" data-name="Group 1207322">
            <path id="Path_1329137" data-name="Path 1329137" d="M41.694,42.581h3.548v3.548H41.694Z" fill="#ff826e"/>
          </g>
          <g id="Group_1207323" data-name="Group 1207323">
            <path id="Path_1329138" data-name="Path 1329138" d="M34.6,42.581h3.548v3.548H34.6Z" fill="#ff826e"/>
          </g>
          <g id="Group_1207324" data-name="Group 1207324">
            <path id="Path_1329139" data-name="Path 1329139" d="M48.79,42.581h3.548v3.548H48.79Z" fill="#ff826e"/>
          </g>
          <g id="Group_1207325" data-name="Group 1207325">
            <path id="Path_1329140" data-name="Path 1329140" d="M19.516,18.629H16.855v3.548H7.984V18.629H5.323l7.1-7.1Z" fill="#ff826e"/>
          </g>
          <g id="Group_1207326" data-name="Group 1207326">
            <path id="Path_1329141" data-name="Path 1329141" d="M20.4,47.9v1.774a.89.89,0,0,1-.887.887h-7.1a.89.89,0,0,1-.887-.887V47.9a.89.89,0,0,1,.887-.887h7.1A.89.89,0,0,1,20.4,47.9Z" fill="#e6e9ed"/>
          </g>
          <g id="Group_1207327" data-name="Group 1207327">
            <path id="Path_1329142" data-name="Path 1329142" d="M53.563,25.921l-.452-.559a20.26,20.26,0,0,0-15.373-7.6,4.324,4.324,0,0,0-.479-.018c-.231,0-.461,0-6.21.985a19.04,19.04,0,0,0-2.581,1.02,20.315,20.315,0,0,0-7.061,5.615l-.452.559a2.542,2.542,0,0,0,0,3.158l.452.559a20.227,20.227,0,0,0,5.8,4.95c.1.062.2.115.293.169a18.99,18.99,0,0,0,3.548,1.517,20.033,20.033,0,0,0,6.21.985,4.324,4.324,0,0,0,.479-.018,21.2,21.2,0,0,0,8.312-1.987,20.315,20.315,0,0,0,7.061-5.615l.452-.559a2.542,2.542,0,0,0,0-3.158Z" fill="#e6e9ed"/>
          </g>
          <g id="Group_1207328" data-name="Group 1207328">
            <path id="Path_1329143" data-name="Path 1329143" d="M37.71,18.638a8.874,8.874,0,0,1,0,17.724c-.151.009-.3.009-.452.009a8.871,8.871,0,0,1,0-17.742c.151,0,.3,0,.452.009Z" fill="#69d6f4"/>
          </g>
          <g id="Group_1207329" data-name="Group 1207329">
            <circle id="Ellipse_13104" data-name="Ellipse 13104" cx="5.323" cy="5.323" r="5.323" transform="translate(31.935 22.177)" fill="#4fc1e9"/>
          </g>
        </g>
        <g id="Group_1207331" data-name="Group 1207331">
          <path id="Path_1329144" data-name="Path 1329144" d="M19.516,46.129h-7.1A1.776,1.776,0,0,0,10.645,47.9v1.774a1.776,1.776,0,0,0,1.774,1.774h7.1a1.776,1.776,0,0,0,1.774-1.774V47.9A1.776,1.776,0,0,0,19.516,46.129Zm-7.1,3.548V47.9h7.1l0,1.774Z"/>
          <circle id="Ellipse_13105" data-name="Ellipse 13105" cx="0.887" cy="0.887" r="0.887" transform="translate(15.081 3.548)"/>
          <path id="Path_1329145" data-name="Path 1329145" d="M7.1,23.065H17.742V19.516h3.916l-9.238-9.238L3.181,19.516H7.1Zm5.323-10.278,4.955,4.955H15.968V21.29h-7.1V17.742H7.464Z"/>
          <path id="Path_1329146" data-name="Path 1329146" d="M3.548,31.935h7.1v-7.1h-7.1Zm1.774-5.323H8.871v3.548H5.323Z"/>
          <path id="Path_1329147" data-name="Path 1329147" d="M3.548,40.806h7.1v-7.1h-7.1Zm1.774-5.323H8.871v3.548H5.323Z"/>
          <path id="Path_1329148" data-name="Path 1329148" d="M12.419,40.806h7.1v-7.1h-7.1Zm1.774-5.323h3.548v3.548H14.194Z"/>
          <path id="Path_1329149" data-name="Path 1329149" d="M54.251,25.366l-.446-.558a21.088,21.088,0,0,0-16.547-7.953,21.306,21.306,0,0,0-5.323.68V4.435A4.441,4.441,0,0,0,27.5,0H4.435A4.441,4.441,0,0,0,0,4.435V50.565A4.441,4.441,0,0,0,4.435,55H27.5a4.441,4.441,0,0,0,4.435-4.435v-13.1a21.306,21.306,0,0,0,5.323.68,21.088,21.088,0,0,0,16.547-7.953l.446-.559a3.415,3.415,0,0,0,0-4.268ZM22.1,29.083l-.446-.557a1.641,1.641,0,0,1,0-2.052l.446-.558A19.328,19.328,0,0,1,31.831,19.4a9.749,9.749,0,0,0,0,16.209A19.328,19.328,0,0,1,22.1,29.083ZM29.274,27.5a7.984,7.984,0,1,1,7.984,7.984A7.992,7.992,0,0,1,29.274,27.5Zm.887-23.065V7.1H19.493a4.39,4.39,0,0,0,.91-2.661V1.774h7.1A2.665,2.665,0,0,1,30.161,4.435Zm-16.855,0V1.774h5.323V4.435a2.661,2.661,0,1,1-5.323,0ZM4.435,1.774h7.1V4.435a4.39,4.39,0,0,0,.91,2.661H1.774V4.435A2.665,2.665,0,0,1,4.435,1.774ZM27.5,53.226H4.435a2.665,2.665,0,0,1-2.661-2.661v-6.21H30.161v6.21A2.665,2.665,0,0,1,27.5,53.226Zm2.661-10.645H1.774V8.871H30.161v9.2a21.108,21.108,0,0,0-9.45,6.737l-.446.559a3.415,3.415,0,0,0,0,4.268l.446.558a21.351,21.351,0,0,0,3.571,3.517H21.29v7.1h7.1V36.2c.58.267,1.171.512,1.774.726Zm-3.548-7.1v3.548H23.065V35.484Zm26.253-6.958-.446.558A19.328,19.328,0,0,1,42.685,35.6a9.749,9.749,0,0,0,0-16.209,19.322,19.322,0,0,1,9.734,6.521l.446.557a1.641,1.641,0,0,1,0,2.052Z"/>
          <path id="Path_1329150" data-name="Path 1329150" d="M37.258,21.29a6.21,6.21,0,1,0,6.21,6.21A6.218,6.218,0,0,0,37.258,21.29Zm0,10.645A4.435,4.435,0,1,1,41.694,27.5,4.441,4.441,0,0,1,37.258,31.935Z"/>
          <path id="Path_1329151" data-name="Path 1329151" d="M33.71,47.016h5.323V41.694H33.71Zm1.774-3.548h1.774v1.774H35.484Z"/>
          <path id="Path_1329152" data-name="Path 1329152" d="M40.806,47.016h5.323V41.694H40.806Zm1.774-3.548h1.774v1.774H42.581Z"/>
          <path id="Path_1329153" data-name="Path 1329153" d="M47.9,47.016h5.323V41.694H47.9Zm1.774-3.548h1.774v1.774H49.677Z"/>
        </g>
      </g>
    </g>
  </g>
</svg>
