<svg xmlns="http://www.w3.org/2000/svg" xmlns:xlink="http://www.w3.org/1999/xlink" width="98" height="97.999" viewBox="0 0 98 97.999">
  <defs>
    <clipPath id="clip-path">
      <rect id="Rectangle_412572" data-name="Rectangle 412572" width="57" height="55" transform="translate(1140.051 3879)" fill="#fff" stroke="#707070" stroke-width="1"/>
    </clipPath>
  </defs>
  <g id="Group_1206957" data-name="Group 1206957" transform="translate(-1119.086 -3857.106)">
    <g id="Group_1204751" data-name="Group 1204751" transform="translate(1119.086 3857.106)">
      <g id="Group_1204438" data-name="Group 1204438">
        <g id="Group_1204285" data-name="Group 1204285">
          <g id="Group_1204180" data-name="Group 1204180">
            <g id="Group_1204143" data-name="Group 1204143">
              <g id="Group_1188789" data-name="Group 1188789" transform="translate(0)">
                <path id="Path_1243039" data-name="Path 1243039" d="M41.05,0h0a41.05,41.05,0,0,1,0,82.1h0a41.05,41.05,0,0,1,0-82.1Z" transform="translate(7.951 7.949)" fill="#ffc63f"/>
                <rect id="Rectangle_400907" data-name="Rectangle 400907" width="88.438" height="88.437" rx="44.218" transform="translate(4.782 4.781)" fill="none"/>
                <g id="Group_1098742" data-name="Group 1098742" transform="translate(0)">
                  <g id="Rectangle_400898" data-name="Rectangle 400898" transform="translate(0)" fill="none" stroke="#fff" stroke-width="2" opacity="0.859">
                    <rect width="98" height="97.999" rx="48.999" stroke="none"/>
                    <rect x="1" y="1" width="96" height="95.999" rx="47.999" fill="none"/>
                  </g>
                  <g id="Rectangle_400907-2" data-name="Rectangle 400907" transform="translate(0)" fill="none" stroke="#0f1f33" stroke-linecap="round" stroke-width="2">
                    <rect width="98" height="97.999" rx="48.999" stroke="none"/>
                    <rect x="1" y="1" width="96" height="95.999" rx="47.999" fill="none"/>
                  </g>
                </g>
              </g>
            </g>
          </g>
        </g>
      </g>
    </g>
    <g id="Mask_Group_1099578" data-name="Mask Group 1099578" clip-path="url(#clip-path)">
      <g id="_x35__x2C__Dartboard_x2C__Digital_Marketing_x2C__Mobile" transform="translate(1138.125 3876.074)">
        <g id="Group_1207334" data-name="Group 1207334">
          <path id="Path_1329197" data-name="Path 1329197" d="M11.995,50.319v2.3a4.719,4.719,0,0,0,4.719,4.719H37.7a4.72,4.72,0,0,0,4.721-4.719v-2.3Z" fill="#555a66"/>
          <path id="Path_1329198" data-name="Path 1329198" d="M11.995,10.532V50.319H42.42V10.532Z" fill="#f2f2f2"/>
          <path id="Path_1329199" data-name="Path 1329199" d="M39.495,47.394H14.92V13.457H39.495Z" fill="#87c7ff"/>
          <path id="Path_1329200" data-name="Path 1329200" d="M42.42,20.032a11.138,11.138,0,0,0-1.755-.138,11.352,11.352,0,0,0-1.17.061,11.118,11.118,0,0,0,0,22.112,11.353,11.353,0,0,0,1.17.061,11.118,11.118,0,0,0,1.755-22.1Z" fill="#ff7058"/>
          <path id="Path_1329201" data-name="Path 1329201" d="M51.2,8.191A3.511,3.511,0,1,1,47.686,11.7,3.511,3.511,0,0,1,51.2,8.191Z" fill="#fe6a16"/>
          <path id="Path_1329202" data-name="Path 1329202" d="M6.436,40.957A1.463,1.463,0,1,1,4.973,42.42,1.463,1.463,0,0,1,6.436,40.957Z" fill="#fe6a16"/>
          <path id="Path_1329203" data-name="Path 1329203" d="M40.665,23.163a7.847,7.847,0,1,0,7.846,7.847A7.847,7.847,0,0,0,40.665,23.163Z" fill="#f2f2f2"/>
          <path id="Path_1329204" data-name="Path 1329204" d="M45.242,31.011a4.577,4.577,0,1,1-4.577-4.578A4.578,4.578,0,0,1,45.242,31.011Z" fill="#ff7058"/>
          <path id="Path_1329205" data-name="Path 1329205" d="M27.207,52.074a1.755,1.755,0,1,1-1.755,1.755A1.756,1.756,0,0,1,27.207,52.074Z" fill="#22282d"/>
          <path id="Path_1329206" data-name="Path 1329206" d="M42.42,8.23v2.3H11.995V8.23a4.719,4.719,0,0,1,4.719-4.719H37.7A4.72,4.72,0,0,1,42.42,8.23Z" fill="#555a66"/>
          <path id="Path_1329207" data-name="Path 1329207" d="M54.415,38.617a.878.878,0,1,1-.878.878A.878.878,0,0,1,54.415,38.617Z"/>
          <path id="Path_1329208" data-name="Path 1329208" d="M53.83,20.479a.878.878,0,1,1-.878.878A.878.878,0,0,1,53.83,20.479Z"/>
          <path id="Path_1329209" data-name="Path 1329209" d="M49.149,49.734a.878.878,0,1,1-.878.878A.878.878,0,0,1,49.149,49.734Z"/>
          <path id="Path_1329210" data-name="Path 1329210" d="M8.191,33.351a.878.878,0,1,1-.878.878A.878.878,0,0,1,8.191,33.351Z"/>
          <path id="Path_1329211" data-name="Path 1329211" d="M7.021,11.7a.878.878,0,1,1-.878.878A.878.878,0,0,1,7.021,11.7Z"/>
          <path id="Path_1329212" data-name="Path 1329212" d="M5.851,50.319a.878.878,0,1,1-.878.878A.878.878,0,0,1,5.851,50.319Z"/>
          <path id="Path_1329213" data-name="Path 1329213" d="M27.207,56.17a2.34,2.34,0,1,1,2.34-2.34A2.343,2.343,0,0,1,27.207,56.17Zm0-3.511a1.17,1.17,0,1,0,1.17,1.17A1.172,1.172,0,0,0,27.207,52.66Z"/>
          <path id="Path_1329214" data-name="Path 1329214" d="M42.42,11.117H11.995a.585.585,0,1,1,0-1.17H42.42a.585.585,0,0,1,0,1.17Z"/>
          <path id="Path_1329215" data-name="Path 1329215" d="M29.548,7.606H24.827a.585.585,0,0,1,0-1.17h4.721a.585.585,0,0,1,0,1.17Z"/>
          <path id="Path_1329216" data-name="Path 1329216" d="M42.42,50.9H11.995a.585.585,0,1,1,0-1.17H42.42a.585.585,0,0,1,0,1.17Z"/>
          <path id="Path_1329217" data-name="Path 1329217" d="M6.436,44.468A2.048,2.048,0,1,1,8.484,42.42,2.05,2.05,0,0,1,6.436,44.468Zm0-2.926a.878.878,0,1,0,.878.878A.879.879,0,0,0,6.436,41.543Z"/>
          <path id="Path_1329218" data-name="Path 1329218" d="M40.665,36.174a5.163,5.163,0,1,1,5.162-5.163A5.169,5.169,0,0,1,40.665,36.174Zm0-9.156a3.993,3.993,0,1,0,3.992,3.993A4,4,0,0,0,40.665,27.018Z"/>
          <path id="Path_1329219" data-name="Path 1329219" d="M40.665,39.443A8.433,8.433,0,1,1,49.1,31.011,8.442,8.442,0,0,1,40.665,39.443Zm0-15.695a7.262,7.262,0,1,0,7.261,7.262A7.271,7.271,0,0,0,40.665,23.748Z"/>
          <path id="Path_1329220" data-name="Path 1329220" d="M39.495,47.979H14.92a.585.585,0,0,1-.585-.585V13.457a.585.585,0,0,1,.585-.585H39.495a.585.585,0,0,1,.585.585v6.5a.585.585,0,1,1-1.17,0V14.043h-23.4V46.809h23.4V42.067a.585.585,0,0,1,1.17,0v5.327A.585.585,0,0,1,39.495,47.979Z"/>
          <path id="Path_1329221" data-name="Path 1329221" d="M37.7,57.926H16.714a5.311,5.311,0,0,1-5.3-5.3V8.23a5.311,5.311,0,0,1,5.3-5.3H37.7a5.311,5.311,0,0,1,5.306,5.3v11.8a.585.585,0,0,1-1.17,0V8.23A4.14,4.14,0,0,0,37.7,4.1H16.714A4.139,4.139,0,0,0,12.58,8.23V52.621a4.139,4.139,0,0,0,4.134,4.134H37.7a4.14,4.14,0,0,0,4.136-4.134V41.99a.585.585,0,0,1,1.17,0V52.621A5.311,5.311,0,0,1,37.7,57.926Z"/>
          <path id="Path_1329222" data-name="Path 1329222" d="M40.665,42.713a12,12,0,0,1-1.23-.064,11.7,11.7,0,0,1,0-23.276,11.856,11.856,0,0,1,3.079.081,11.7,11.7,0,0,1-1.848,23.259Zm0-22.234a10.794,10.794,0,0,0-1.11.058,10.533,10.533,0,0,0,0,20.948,10.7,10.7,0,0,0,2.772-.073,10.532,10.532,0,0,0-1.663-20.933Z"/>
          <path id="Path_1329223" data-name="Path 1329223" d="M55.878,31.6H41.25a.585.585,0,0,1,0-1.17H55.878a.585.585,0,0,1,0,1.17Z"/>
          <path id="Path_1329224" data-name="Path 1329224" d="M55.293,33.351a.584.584,0,0,1-.487-.261l-1.17-1.755a.585.585,0,0,1,0-.649l1.17-1.755a.585.585,0,1,1,.974.649l-.954,1.431.954,1.431a.585.585,0,0,1-.486.91Z"/>
          <path id="Path_1329225" data-name="Path 1329225" d="M19.894,30.133a.585.585,0,0,1-.414-1L30.3,18.31a.585.585,0,0,1,.827.827L20.307,29.962A.583.583,0,0,1,19.894,30.133Z"/>
          <path id="Path_1329226" data-name="Path 1329226" d="M18.723,27.5a.585.585,0,0,1-.414-1l5.266-5.266a.585.585,0,0,1,.827.827l-5.266,5.266A.583.583,0,0,1,18.723,27.5Z"/>
          <path id="Path_1329227" data-name="Path 1329227" d="M51.2,15.8a4.1,4.1,0,1,1,4.1-4.1A4.1,4.1,0,0,1,51.2,15.8Zm0-7.021A2.926,2.926,0,1,0,54.122,11.7,2.929,2.929,0,0,0,51.2,8.777Z"/>
          <path id="Path_1329228" data-name="Path 1329228" d="M30.718,43.883H14.92a.585.585,0,0,1,0-1.17h15.8a.585.585,0,0,1,0,1.17Z"/>
        </g>
      </g>
    </g>
  </g>
</svg>
