<svg xmlns="http://www.w3.org/2000/svg" xmlns:xlink="http://www.w3.org/1999/xlink" width="98" height="97.999" viewBox="0 0 98 97.999">
  <defs>
    <clipPath id="clip-path">
      <rect id="Rectangle_412572" data-name="Rectangle 412572" width="57" height="55" transform="translate(1140.051 3879)" fill="#fff" stroke="#707070" stroke-width="1"/>
    </clipPath>
  </defs>
  <g id="Group_1206956" data-name="Group 1206956" transform="translate(-1119.086 -3857.106)">
    <g id="Group_1204751" data-name="Group 1204751" transform="translate(1119.086 3857.106)">
      <g id="Group_1204438" data-name="Group 1204438">
        <g id="Group_1204285" data-name="Group 1204285">
          <g id="Group_1204180" data-name="Group 1204180">
            <g id="Group_1204143" data-name="Group 1204143">
              <g id="Group_1188789" data-name="Group 1188789" transform="translate(0)">
                <path id="Path_1243039" data-name="Path 1243039" d="M41.05,0h0a41.05,41.05,0,0,1,0,82.1h0a41.05,41.05,0,0,1,0-82.1Z" transform="translate(7.951 7.949)" fill="#ffc63f"/>
                <rect id="Rectangle_400907" data-name="Rectangle 400907" width="88.438" height="88.437" rx="44.218" transform="translate(4.782 4.781)" fill="none"/>
                <g id="Group_1098742" data-name="Group 1098742" transform="translate(0)">
                  <g id="Rectangle_400898" data-name="Rectangle 400898" transform="translate(0)" fill="none" stroke="#fff" stroke-width="2" opacity="0.859">
                    <rect width="98" height="97.999" rx="48.999" stroke="none"/>
                    <rect x="1" y="1" width="96" height="95.999" rx="47.999" fill="none"/>
                  </g>
                  <g id="Rectangle_400907-2" data-name="Rectangle 400907" transform="translate(0)" fill="none" stroke="#0f1f33" stroke-linecap="round" stroke-width="2">
                    <rect width="98" height="97.999" rx="48.999" stroke="none"/>
                    <rect x="1" y="1" width="96" height="95.999" rx="47.999" fill="none"/>
                  </g>
                </g>
              </g>
            </g>
          </g>
        </g>
      </g>
    </g>
    <g id="Mask_Group_1099575" data-name="Mask Group 1099575" clip-path="url(#clip-path)">
      <g id="Page-1" transform="translate(1141.051 3879)">
        <g id="_005---Calendar" data-name="005---Calendar">
          <path id="Shape" d="M32.083,49.5A4.583,4.583,0,0,1,27.5,54.083H5.5A4.583,4.583,0,0,1,.917,49.5V5.5A4.583,4.583,0,0,1,5.5.917h22A4.583,4.583,0,0,1,32.083,5.5Z" fill="#00bcd4"/>
          <path id="Shape-2" data-name="Shape" d="M27.5.917H24.75A4.583,4.583,0,0,1,29.333,5.5v44a4.583,4.583,0,0,1-4.583,4.583H27.5A4.583,4.583,0,0,0,32.083,49.5V5.5A4.583,4.583,0,0,0,27.5.917Z" fill="#00838f"/>
          <path id="Shape-3" data-name="Shape" d="M26.583.917,24.34,5.4A1.833,1.833,0,0,1,22.7,6.417H10.3A1.833,1.833,0,0,1,8.66,5.4L6.417.917Z" fill="#607d8b"/>
          <path id="Shape-4" data-name="Shape" d="M19.25,22,8.732,27.61a.917.917,0,0,0,0,1.613l10.518,5.61V41.25a4.583,4.583,0,0,0,4.583,4.583H49.5a4.583,4.583,0,0,0,4.583-4.583V15.583A4.583,4.583,0,0,0,49.5,11H23.833a4.583,4.583,0,0,0-4.583,4.583Z" fill="#f5f5f5"/>
          <path id="Shape-5" data-name="Shape" d="M49.5,11H46.75a4.583,4.583,0,0,1,4.583,4.583V41.25a4.583,4.583,0,0,1-4.583,4.583H49.5a4.583,4.583,0,0,0,4.583-4.583V15.583A4.583,4.583,0,0,0,49.5,11Z" fill="#cfd8dc"/>
          <path id="Shape-6" data-name="Shape" d="M48.583,24.75V38.5a1.839,1.839,0,0,1-1.833,1.833H26.583A1.839,1.839,0,0,1,24.75,38.5V24.75Z" fill="#f5f5f5"/>
          <path id="Shape-7" data-name="Shape" d="M45.833,24.75V38.5A1.839,1.839,0,0,1,44,40.333h2.75A1.839,1.839,0,0,0,48.583,38.5V24.75Z" fill="#cfd8dc"/>
          <path id="Shape-8" data-name="Shape" d="M48.583,20.167V24.75H24.75V20.167a1.839,1.839,0,0,1,1.833-1.833H46.75A1.839,1.839,0,0,1,48.583,20.167Z" fill="#ef314c"/>
          <path id="Shape-9" data-name="Shape" d="M46.75,18.333H44a1.839,1.839,0,0,1,1.833,1.833V24.75h2.75V20.167A1.839,1.839,0,0,0,46.75,18.333Z" fill="#bb193b"/>
          <g id="Group_1207332" data-name="Group 1207332">
            <path id="Shape-10" data-name="Shape" d="M5.5,55h22A5.505,5.505,0,0,0,33,49.5a.917.917,0,0,0-1.833,0A3.667,3.667,0,0,1,27.5,53.167H5.5A3.667,3.667,0,0,1,1.833,49.5V5.5A3.667,3.667,0,0,1,5.5,1.833h.35l1.99,3.98A2.734,2.734,0,0,0,10.3,7.333H22.7a2.734,2.734,0,0,0,2.459-1.52l1.99-3.98h.35A3.667,3.667,0,0,1,31.167,5.5V7.333a.917.917,0,1,0,1.833,0V5.5A5.505,5.505,0,0,0,27.5,0H5.5A5.505,5.505,0,0,0,0,5.5v44A5.505,5.505,0,0,0,5.5,55ZM23.52,4.993A.911.911,0,0,1,22.7,5.5H10.3a.911.911,0,0,1-.819-.507L7.9,1.833H25.1Z"/>
            <path id="Shape-11" data-name="Shape" d="M23.833,51.333a.917.917,0,0,0,0-1.833H9.167a.917.917,0,0,0,0,1.833Z"/>
            <path id="Shape-12" data-name="Shape" d="M46.75,17.417H44V16.5a.917.917,0,1,0-1.833,0v.917H37.583V16.5a.917.917,0,0,0-1.833,0v.917H31.167V16.5a.917.917,0,0,0-1.833,0v.917h-2.75a2.75,2.75,0,0,0-2.75,2.75V38.5a2.75,2.75,0,0,0,2.75,2.75H46.75A2.75,2.75,0,0,0,49.5,38.5V20.167A2.75,2.75,0,0,0,46.75,17.417Zm-21.083,2.75a.917.917,0,0,1,.917-.917h2.75v.917a.917.917,0,0,0,1.833,0V19.25H35.75v.917a.917.917,0,0,0,1.833,0V19.25h4.583v.917a.917.917,0,1,0,1.833,0V19.25h2.75a.917.917,0,0,1,.917.917v3.667h-22Zm22,18.333a.917.917,0,0,1-.917.917H26.583a.917.917,0,0,1-.917-.917V25.667h22Z"/>
            <path id="Shape-13" data-name="Shape" d="M49.5,10.083H23.833a5.505,5.505,0,0,0-5.5,5.5V21.45L8.3,26.8a1.833,1.833,0,0,0,0,3.23l10.036,5.351V41.25a5.505,5.505,0,0,0,5.5,5.5H49.5a5.505,5.505,0,0,0,5.5-5.5V15.583A5.505,5.505,0,0,0,49.5,10.083ZM53.167,41.25A3.667,3.667,0,0,1,49.5,44.917H23.833a3.667,3.667,0,0,1-3.667-3.667V34.833a.917.917,0,0,0-.485-.809L9.167,28.417l10.518-5.61A.917.917,0,0,0,20.167,22V15.583a3.667,3.667,0,0,1,3.667-3.667H49.5a3.667,3.667,0,0,1,3.667,3.667Z"/>
          </g>
        </g>
      </g>
    </g>
  </g>
</svg>
