<svg xmlns="http://www.w3.org/2000/svg" xmlns:xlink="http://www.w3.org/1999/xlink" width="98" height="97.999" viewBox="0 0 98 97.999">
  <defs>
    <clipPath id="clip-path">
      <rect id="Rectangle_412572" data-name="Rectangle 412572" width="57" height="55" transform="translate(1140.051 3879)" fill="#fff" stroke="#707070" stroke-width="1"/>
    </clipPath>
  </defs>
  <g id="Group_1207007" data-name="Group 1207007" transform="translate(-1119.086 -3857.106)">
    <g id="Group_1204751" data-name="Group 1204751" transform="translate(1119.086 3857.106)">
      <g id="Group_1204438" data-name="Group 1204438">
        <g id="Group_1204285" data-name="Group 1204285">
          <g id="Group_1204180" data-name="Group 1204180">
            <g id="Group_1204143" data-name="Group 1204143">
              <g id="Group_1188789" data-name="Group 1188789" transform="translate(0)">
                <path id="Path_1243039" data-name="Path 1243039" d="M41.05,0h0a41.05,41.05,0,0,1,0,82.1h0a41.05,41.05,0,0,1,0-82.1Z" transform="translate(7.951 7.949)" fill="#ffc63f"/>
                <rect id="Rectangle_400907" data-name="Rectangle 400907" width="88.438" height="88.437" rx="44.218" transform="translate(4.782 4.781)" fill="none"/>
                <g id="Group_1098742" data-name="Group 1098742" transform="translate(0)">
                  <g id="Rectangle_400898" data-name="Rectangle 400898" transform="translate(0)" fill="none" stroke="#fff" stroke-width="2" opacity="0.859">
                    <rect width="98" height="97.999" rx="48.999" stroke="none"/>
                    <rect x="1" y="1" width="96" height="95.999" rx="47.999" fill="none"/>
                  </g>
                  <g id="Rectangle_400907-2" data-name="Rectangle 400907" transform="translate(0)" fill="none" stroke="#0f1f33" stroke-linecap="round" stroke-width="2">
                    <rect width="98" height="97.999" rx="48.999" stroke="none"/>
                    <rect x="1" y="1" width="96" height="95.999" rx="47.999" fill="none"/>
                  </g>
                </g>
              </g>
            </g>
          </g>
        </g>
      </g>
    </g>
    <g id="Mask_Group_1099585" data-name="Mask Group 1099585" clip-path="url(#clip-path)">
      <g id="Online_Branding" data-name="Online Branding" transform="translate(1134.73 3872.654)">
        <path id="Rectangle_4" data-name="Rectangle 4" d="M49.712,7.4H17.981a4.231,4.231,0,0,0-4.231,4.231V56.058a4.231,4.231,0,0,0,4.231,4.231H49.712a4.231,4.231,0,0,0,4.231-4.231V11.635A4.231,4.231,0,0,0,49.712,7.4Z" fill="#d8d8fc"/>
        <path id="Vector_3" data-name="Vector 3" d="M53.942,51.827H13.75v4.231a4.231,4.231,0,0,0,4.231,4.231H49.712a4.231,4.231,0,0,0,4.231-4.231Z" fill="#47568c"/>
        <path id="Vector_163" data-name="Vector 163" d="M29.615,10.577,28.558,7.4H39.135l-1.058,3.173Z" fill="#47568c"/>
        <path id="Vector_159" data-name="Vector 159" d="M20.685,15.374,31.9,26.593,20.685,33.324,14.7,39.307a2.115,2.115,0,0,1-2.992,0l-3.74-3.74a2.115,2.115,0,0,1,0-2.992l5.983-5.983Z" fill="#fdbf00"/>
        <path id="Vector_160" data-name="Vector 160" d="M21.432,44.542l-5.983-5.983,2.992-2.992,5.983,5.983Z" fill="#fdbf00"/>
        <path id="Vector_40" data-name="Vector 40" d="M40.192,40.192a12.85,12.85,0,0,1,16.923,0" fill="none" stroke="#000" stroke-linecap="round" stroke-linejoin="round" stroke-width="2.115"/>
        <path id="Ellipse_17" data-name="Ellipse 17" d="M61.346,32.26A12.965,12.965,0,0,1,48.654,45.481,12.965,12.965,0,0,1,35.962,32.26,12.965,12.965,0,0,1,48.654,19.038,12.965,12.965,0,0,1,61.346,32.26Z" fill="#4bb9ec"/>
        <g id="Union">
          <path id="Path_1329368" data-name="Path 1329368" d="M24.8,15.839a1.058,1.058,0,0,1-1.058-1.058V12.666a1.058,1.058,0,1,1,2.115,0v2.115A1.058,1.058,0,0,1,24.8,15.839Z"/>
          <path id="Path_1329369" data-name="Path 1329369" d="M26.668,18.366a1.058,1.058,0,0,1,0-1.5l1.5-1.5a1.058,1.058,0,1,1,1.5,1.5l-1.5,1.5A1.058,1.058,0,0,1,26.668,18.366Z"/>
          <path id="Path_1329370" data-name="Path 1329370" d="M29.659,19.862a1.058,1.058,0,0,0,1.5,1.5l1.5-1.5a1.058,1.058,0,0,0-1.5-1.5Z"/>
          <path id="Path_1329371" data-name="Path 1329371" d="M32.186,22.959A1.058,1.058,0,0,1,33.244,21.9H35.36a1.058,1.058,0,1,1,0,2.115H33.244a1.058,1.058,0,0,1-1.058-1.058Z"/>
          <path id="Path_1329372" data-name="Path 1329372" d="M28.558,56.058A1.058,1.058,0,0,1,29.615,55h8.462a1.058,1.058,0,0,1,0,2.115H29.615A1.058,1.058,0,0,1,28.558,56.058Z"/>
          <path id="Path_1329373" data-name="Path 1329373" d="M10.214,34.819a1.058,1.058,0,0,1,0-1.5l2.992-2.992a1.058,1.058,0,0,1,1.5,1.5L11.71,34.819A1.058,1.058,0,0,1,10.214,34.819Z"/>
          <path id="Path_1329374" data-name="Path 1329374" d="M12.458,37.063a1.058,1.058,0,0,1,0-1.5l2.992-2.992a1.058,1.058,0,0,1,1.5,1.5l-2.992,2.992A1.058,1.058,0,0,1,12.458,37.063Z"/>
          <path id="Path_1329375" data-name="Path 1329375" d="M17.981,6.346a5.288,5.288,0,0,0-5.288,5.288V26.358l-5.47,5.47a3.173,3.173,0,0,0,0,4.487l3.739,3.74a3.159,3.159,0,0,0,1.73.888V56.058a5.288,5.288,0,0,0,5.288,5.288H49.712A5.288,5.288,0,0,0,55,56.058V43.712a13.294,13.294,0,0,0,6.327-10.723,1.062,1.062,0,0,0,.019-.2,1.078,1.078,0,0,0-.006-.114q.006-.206.006-.414A13.323,13.323,0,0,0,55,20.807V11.635a5.288,5.288,0,0,0-5.288-5.288Zm34.9,13.445V11.635a3.173,3.173,0,0,0-3.173-3.173H39.9l-.817,2.45a1.058,1.058,0,0,1-1,.723H29.615a1.058,1.058,0,0,1-1-.723L27.8,8.462H17.981a3.173,3.173,0,0,0-3.173,3.173V23.113l4.97-8.283a1.058,1.058,0,0,1,1.655-.2L32.651,25.845a1.058,1.058,0,0,1-.2,1.655L21.341,34.164l-1.4,1.4L25.172,40.8a1.058,1.058,0,0,1,0,1.5L22.18,45.29a1.058,1.058,0,0,1-1.5,0l-5.235-5.235a3.174,3.174,0,0,1-.642.5V50.769H52.885V44.728a12.216,12.216,0,0,1-4.21.752h-.041A12.932,12.932,0,0,1,35.981,32.989a1.062,1.062,0,0,1-.019-.2,1.079,1.079,0,0,1,.006-.114q-.006-.206-.006-.414A12.965,12.965,0,0,1,48.654,19.038h0a12.215,12.215,0,0,1,4.227.752ZM37.667,8.462H30.025l.353,1.058h6.937ZM14.808,52.885v3.173a3.171,3.171,0,0,0,3.173,3.173H49.712a3.173,3.173,0,0,0,3.173-3.173V52.885Zm2.137-14.326,4.487,4.487,1.5-1.5-4.487-4.487Zm2.244-5.235-5.235-5.235L8.718,33.324a1.058,1.058,0,0,0,0,1.5l3.74,3.74a1.058,1.058,0,0,0,1.5,0ZM30.2,26.383l-9.349,5.609-5.563-5.563,5.609-9.349Zm11.291-2.291a10.524,10.524,0,0,1,3.8-2.36,15.786,15.786,0,0,0-2.3,3.459,10.905,10.905,0,0,1-1.5-1.1Zm-3.4,7.639a11.367,11.367,0,0,1,2.027-6.03,12.992,12.992,0,0,0,2.064,1.469,16.156,16.156,0,0,0-.811,4.561Zm2.174,7.293a11.3,11.3,0,0,1-2.08-5.178h3.254a16.109,16.109,0,0,0,.837,3.781,12.985,12.985,0,0,0-2.011,1.4Zm5.024,3.764A10.506,10.506,0,0,1,41.674,40.6a10.88,10.88,0,0,1,1.442-1.017A15.787,15.787,0,0,0,45.287,42.788ZM55.634,40.6a10.523,10.523,0,0,1-3.407,2.111,15.436,15.436,0,0,0,2.121-3.035A10.88,10.88,0,0,1,55.634,40.6Zm3.49-6.756a11.3,11.3,0,0,1-2.08,5.178,12.983,12.983,0,0,0-1.826-1.29,15.781,15.781,0,0,0,.892-3.887ZM57.192,25.7a11.367,11.367,0,0,1,2.027,6.03H56.18a15.756,15.756,0,0,0-.872-4.666A13,13,0,0,0,57.192,25.7Zm-5.021-3.915a10.539,10.539,0,0,1,3.648,2.306A10.906,10.906,0,0,1,54.465,25.1a15.459,15.459,0,0,0-2.294-3.315Zm1.892,9.945A13.636,13.636,0,0,0,53.39,28a13.032,13.032,0,0,1-3.679.846v2.884Zm-6.467,0V28.847a13.034,13.034,0,0,1-3.485-.772,14.038,14.038,0,0,0-.627,3.656Zm-4.032,2.115H47.6V36a13.036,13.036,0,0,0-3.389.736A13.987,13.987,0,0,1,43.564,33.846Zm6.147,0h4.272a13.655,13.655,0,0,1-.683,2.969A13.036,13.036,0,0,0,49.712,36ZM47.6,38.128a10.922,10.922,0,0,0-2.56.563,13.731,13.731,0,0,0,2.56,3.463Zm4.845.625a10.911,10.911,0,0,0-2.73-.625v4.123a13.38,13.38,0,0,0,2.73-3.5Zm.131-12.7a13.425,13.425,0,0,0-2.86-3.74v4.414A10.913,10.913,0,0,0,52.572,26.049Zm-4.976.674V22.365a13.725,13.725,0,0,0-2.7,3.744A10.917,10.917,0,0,0,47.6,26.723Z" fill-rule="evenodd"/>
        </g>
      </g>
    </g>
  </g>
</svg>
