<svg xmlns="http://www.w3.org/2000/svg" xmlns:xlink="http://www.w3.org/1999/xlink" width="98" height="97.999" viewBox="0 0 98 97.999">
  <defs>
    <clipPath id="clip-path">
      <rect id="Rectangle_412572" data-name="Rectangle 412572" width="57" height="55" transform="translate(1140.051 3879)" fill="#fff" stroke="#707070" stroke-width="1"/>
    </clipPath>
  </defs>
  <g id="Group_1207000" data-name="Group 1207000" transform="translate(-1119.086 -3857.106)">
    <g id="Group_1204751" data-name="Group 1204751" transform="translate(1119.086 3857.106)">
      <g id="Group_1204438" data-name="Group 1204438">
        <g id="Group_1204285" data-name="Group 1204285">
          <g id="Group_1204180" data-name="Group 1204180">
            <g id="Group_1204143" data-name="Group 1204143">
              <g id="Group_1188789" data-name="Group 1188789" transform="translate(0)">
                <path id="Path_1243039" data-name="Path 1243039" d="M41.05,0h0a41.05,41.05,0,0,1,0,82.1h0a41.05,41.05,0,0,1,0-82.1Z" transform="translate(7.951 7.949)" fill="#ffc63f"/>
                <rect id="Rectangle_400907" data-name="Rectangle 400907" width="88.438" height="88.437" rx="44.218" transform="translate(4.782 4.781)" fill="none"/>
                <g id="Group_1098742" data-name="Group 1098742" transform="translate(0)">
                  <g id="Rectangle_400898" data-name="Rectangle 400898" transform="translate(0)" fill="none" stroke="#fff" stroke-width="2" opacity="0.859">
                    <rect width="98" height="97.999" rx="48.999" stroke="none"/>
                    <rect x="1" y="1" width="96" height="95.999" rx="47.999" fill="none"/>
                  </g>
                  <g id="Rectangle_400907-2" data-name="Rectangle 400907" transform="translate(0)" fill="none" stroke="#0f1f33" stroke-linecap="round" stroke-width="2">
                    <rect width="98" height="97.999" rx="48.999" stroke="none"/>
                    <rect x="1" y="1" width="96" height="95.999" rx="47.999" fill="none"/>
                  </g>
                </g>
              </g>
            </g>
          </g>
        </g>
      </g>
    </g>
    <g id="Mask_Group_1099580" data-name="Mask Group 1099580" clip-path="url(#clip-path)">
      <g id="Layer_1" transform="translate(1139.541 3877.49)">
        <g id="Group_1207362" data-name="Group 1207362">
          <g id="Group_1207361" data-name="Group 1207361">
            <g id="Group_1207338" data-name="Group 1207338">
              <path id="Path_1329229" data-name="Path 1329229" d="M33.519,26.945h4.226V31.53H33.519Z" fill="#f0ab20"/>
            </g>
            <g id="Group_1207339" data-name="Group 1207339">
              <path id="Path_1329230" data-name="Path 1329230" d="M29.293,26.945h4.226V31.53H29.293Z" fill="#efefef"/>
            </g>
            <g id="Group_1207340" data-name="Group 1207340">
              <path id="Path_1329231" data-name="Path 1329231" d="M29.293,31.53h4.226v4.586H29.293Z" fill="#878787"/>
            </g>
            <g id="Group_1207341" data-name="Group 1207341">
              <path id="Path_1329232" data-name="Path 1329232" d="M41.974,28.115V31.53H37.745V26.945H40.8a1.171,1.171,0,0,1,1.171,1.171Z" fill="#f9e5af"/>
            </g>
            <g id="Group_1207342" data-name="Group 1207342">
              <path id="Path_1329233" data-name="Path 1329233" d="M37.745,31.53h4.229v4.585H37.745Z" fill="#f0ab20"/>
            </g>
            <g id="Group_1207343" data-name="Group 1207343">
              <path id="Path_1329234" data-name="Path 1329234" d="M33.519,31.53h4.226v4.585H33.519Z" fill="#f9e5af"/>
            </g>
            <g id="Group_1207344" data-name="Group 1207344">
              <path id="Path_1329235" data-name="Path 1329235" d="M29.293,36.115h4.226V40.7H29.293Z" fill="#efefef"/>
            </g>
            <g id="Group_1207345" data-name="Group 1207345">
              <path id="Path_1329236" data-name="Path 1329236" d="M37.745,36.114h4.229V40.7H37.745Z" fill="#4c4945"/>
            </g>
            <g id="Group_1207346" data-name="Group 1207346">
              <path id="Path_1329237" data-name="Path 1329237" d="M33.519,36.114h4.226V40.7H33.519Z" fill="#afafaf"/>
            </g>
            <g id="Group_1207347" data-name="Group 1207347">
              <path id="Path_1329238" data-name="Path 1329238" d="M29.293,40.7h4.226v4.585H29.293Z" fill="#afafaf"/>
            </g>
            <g id="Group_1207348" data-name="Group 1207348">
              <path id="Path_1329239" data-name="Path 1329239" d="M41.974,40.7v3.413A1.171,1.171,0,0,1,40.8,45.284H37.745V40.7Z" fill="#878787"/>
            </g>
            <g id="Group_1207349" data-name="Group 1207349">
              <path id="Path_1329240" data-name="Path 1329240" d="M33.519,40.7h4.226v4.584H33.519Z" fill="#efefef"/>
            </g>
            <g id="Group_1207360" data-name="Group 1207360">
              <g id="Group_1207358" data-name="Group 1207358">
                <path id="Path_1329241" data-name="Path 1329241" d="M21.2,31.007H19.555l-4.061,0,.589-1.262a1.805,1.805,0,0,0-3.273-1.525L11.509,31V42.629h9.684a3.187,3.187,0,0,0,3.189-3.187V34.2A3.189,3.189,0,0,0,21.2,31.007Z" fill="#ffb69f"/>
                <path id="Path_1329242" data-name="Path 1329242" d="M29.293,26.945v18.34H20.724a1.17,1.17,0,0,1-1.169-1.172V42.629h1.639a3.187,3.187,0,0,0,3.189-3.187V34.2A3.189,3.189,0,0,0,21.2,31.007H19.555V28.115a1.169,1.169,0,0,1,1.169-1.169Z" fill="#72c1e8"/>
                <g id="Group_1207350" data-name="Group 1207350">
                  <path id="Path_1329243" data-name="Path 1329243" d="M49.082,8.748H30a.7.7,0,0,0-.7.7V26.945H40.8a1.171,1.171,0,0,1,1.171,1.171v16A1.171,1.171,0,0,1,40.8,45.285H29.293v3.285a.7.7,0,0,0,.7.7H56.241a.7.7,0,0,0,.7-.7V16.609Z" fill="#efefef"/>
                </g>
                <g id="Group_1207351" data-name="Group 1207351">
                  <path id="Path_1329244" data-name="Path 1329244" d="M56.943,16.609H49.619a.537.537,0,0,1-.537-.537V8.748Z" fill="#afafaf"/>
                </g>
                <g id="Group_1207352" data-name="Group 1207352">
                  <path id="Path_1329245" data-name="Path 1329245" d="M54.6,47.178H48.177a.567.567,0,0,1,0-1.133h5.858V19.162a.567.567,0,0,1,1.133,0V46.611A.567.567,0,0,1,54.6,47.178Zm-8.69,0H44.778a.567.567,0,0,1,0-1.133h1.133a.567.567,0,0,1,0,1.133Z" fill="#fff"/>
                </g>
                <g id="Group_1207353" data-name="Group 1207353">
                  <path id="Path_1329246" data-name="Path 1329246" d="M31.67,21.516a.567.567,0,0,1-.567-.567v-.907a.567.567,0,0,1,1.133,0v.907A.567.567,0,0,1,31.67,21.516Zm0-3.173a.567.567,0,0,1-.567-.567V11.112a.567.567,0,0,1,.567-.567h15.2a.567.567,0,1,1,0,1.133H32.236v6.1A.567.567,0,0,1,31.67,18.343Z" fill="#fff"/>
                </g>
                <g id="Group_1207354" data-name="Group 1207354">
                  <path id="Path_1329247" data-name="Path 1329247" d="M51.761,23.683l-5.495-1.378-2.953-4.757a.7.7,0,0,0-1.194,0l-2.956,4.758-5.493,1.378a.7.7,0,0,0-.361,1.141l1.832,2.12H40.8a1.171,1.171,0,0,1,1.171,1.171v5.431l.742-.314,5.21,2.211a.7.7,0,0,0,.975-.7l-.44-5.683,3.661-4.235a.7.7,0,0,0-.36-1.14Z" fill="#f0c020"/>
                </g>
                <g id="Group_1207355" data-name="Group 1207355">
                  <path id="Path_1329248" data-name="Path 1329248" d="M1.077,45.286H6.231a.682.682,0,0,0,.682-.682V29.035a.682.682,0,0,0-.682-.682H1.077Z" fill="#72c1e8"/>
                </g>
                <g id="Group_1207356" data-name="Group 1207356">
                  <path id="Path_1329249" data-name="Path 1329249" d="M6.913,29.658h0V43.983H10.4a1.11,1.11,0,0,0,1.106-1.107s0,0,0,0h0V30.762h0a1.114,1.114,0,0,0-1.106-1.1H6.913Z" fill="#efefef"/>
                </g>
                <g id="Group_1207357" data-name="Group 1207357">
                  <path id="Path_1329250" data-name="Path 1329250" d="M4.133,43.445a.567.567,0,0,1-.567-.567v-.453a.567.567,0,1,1,1.133,0v.453A.567.567,0,0,1,4.133,43.445Zm0-2.72a.567.567,0,0,1-.567-.567V30.594a.567.567,0,1,1,1.133,0v9.565A.567.567,0,0,1,4.133,40.725Z" fill="#c5e5ff"/>
                </g>
              </g>
              <g id="Group_1207359" data-name="Group 1207359">
                <path id="Path_1329251" data-name="Path 1329251" d="M26.727,43.83a.567.567,0,0,1-.567-.567v-.881a.567.567,0,0,1,1.133,0v.881A.567.567,0,0,1,26.727,43.83Zm0-3.148a.567.567,0,0,1-.567-.567V29.237a.567.567,0,0,1,1.133,0V40.116A.567.567,0,0,1,26.727,40.683Z" fill="#c5e5ff"/>
              </g>
            </g>
          </g>
          <path id="Path_1329252" data-name="Path 1329252" d="M57.344,16.207l-7.862-7.86a.594.594,0,0,0-.4-.165H30a1.27,1.27,0,0,0-1.269,1.269v2a.567.567,0,1,0,1.133,0v-2A.137.137,0,0,1,30,9.315H48.515v6.757a1.105,1.105,0,0,0,1.1,1.1h6.758V36.34a.567.567,0,0,0,1.133,0V16.606a.592.592,0,0,0-.165-.4Zm-7.7-.165V10.116l5.926,5.926H49.648Z"/>
          <circle id="Ellipse_13110" data-name="Ellipse 13110" cx="0.567" cy="0.567" r="0.567" transform="translate(6.346 34.397)"/>
          <path id="Path_1329253" data-name="Path 1329253" d="M56.943,38.039a.565.565,0,1,0,.567.567A.567.567,0,0,0,56.943,38.039Z"/>
          <path id="Path_1329254" data-name="Path 1329254" d="M29.293,14.281a.567.567,0,1,0-.567-.567A.567.567,0,0,0,29.293,14.281Z"/>
          <path id="Path_1329255" data-name="Path 1329255" d="M56.943,40.306a.567.567,0,0,0-.567.567v7.7a.136.136,0,0,1-.136.136H30a.136.136,0,0,1-.136-.136V45.851H40.8a1.739,1.739,0,0,0,1.738-1.737V33.921l.175-.074L47.7,35.965A1.269,1.269,0,0,0,49.466,34.7l-.422-5.447L52.55,25.2a1.269,1.269,0,0,0-.651-2.061l-5.272-1.322-2.832-4.562a1.269,1.269,0,0,0-2.156,0L38.8,21.812l-5.27,1.322a1.269,1.269,0,0,0-.652,2.061L33.9,26.378H29.86V15.98a.567.567,0,0,0-1.133,0v10.4h-8a1.739,1.739,0,0,0-1.737,1.737v2.323h-2.6l.213-.455a2.373,2.373,0,0,0-4.3-2.007l-.736,1.579A1.666,1.666,0,0,0,10.4,29.09H7.479a1.251,1.251,0,0,0-1.249-1.3H1.077a.567.567,0,0,0,0,1.133H6.23a.116.116,0,0,1,.116.116V32.7a.567.567,0,1,0,1.133,0V30.223H10.4a.547.547,0,0,1,.539.538v.011c0,12.858,0,12.067,0,12.1a.543.543,0,0,1-.539.542H7.479V37.23a.567.567,0,1,0-1.133,0v6.748s0,0,0,0,0,0,0,0V44.6a.116.116,0,0,1-.116.116H1.077a.567.567,0,0,0,0,1.133H6.23a1.251,1.251,0,0,0,1.249-1.3H10.4a1.677,1.677,0,0,0,1.64-1.353h6.944v.918a1.739,1.739,0,0,0,1.737,1.738h8v2.718A1.27,1.27,0,0,0,30,49.838H56.241a1.27,1.27,0,0,0,1.269-1.269v-7.7A.567.567,0,0,0,56.943,40.306ZM37.179,27.511v3.452H34.086V27.511Zm3.625,0a.605.605,0,0,1,.6.6v2.848h-3.1V27.511ZM34.086,40.133v-3.45h3.093v3.45Zm3.093,1.133v3.452H34.086V41.266Zm4.229-5.717h-3.1V32.1h3.1Zm-4.229,0H34.086V32.1h3.093Zm-4.226,0H29.86V32.1h3.093ZM29.86,36.683h3.093v3.45H29.86Zm8.452,0h3.1v3.45h-3.1Zm-5.359-5.719H29.86V27.511h3.093Zm-3.093,10.3h3.093v3.452H29.86ZM40.8,44.717H38.312V41.266h3.1v2.847A.605.605,0,0,1,40.8,44.717ZM33.739,24.454a.135.135,0,0,1,.07-.221L39.3,22.855a.567.567,0,0,0,.343-.25L42.6,17.847a.135.135,0,0,1,.231,0L45.785,22.6a.566.566,0,0,0,.344.251l5.495,1.378a.136.136,0,0,1,.07.221l-3.661,4.235a.567.567,0,0,0-.136.414l.44,5.683a.136.136,0,0,1-.189.136l-5.209-2.211a.567.567,0,0,0-.4-.017V28.116A1.739,1.739,0,0,0,40.8,26.378H35.4ZM12.077,31.131l1.247-2.675A1.24,1.24,0,0,1,15.57,29.5l-.59,1.262a.567.567,0,0,0,.513.807l5.7,0a2.626,2.626,0,0,1,2.618,2.618v.2H17.945a.567.567,0,0,0,0,1.133h5.868v2.587H17.945a.567.567,0,0,0,0,1.133h5.868v.2a2.624,2.624,0,0,1-2.621,2.621H12.077ZM20.12,44.114V43.2h1.072a3.76,3.76,0,0,0,3.756-3.756V34.189A3.759,3.759,0,0,0,21.2,30.441H20.12V28.115a.6.6,0,0,1,.6-.6h8V44.718h-8a.6.6,0,0,1-.6-.6Z"/>
        </g>
      </g>
    </g>
  </g>
</svg>
