<svg xmlns="http://www.w3.org/2000/svg" xmlns:xlink="http://www.w3.org/1999/xlink" width="98" height="97.999" viewBox="0 0 98 97.999">
  <defs>
    <clipPath id="clip-path">
      <rect id="Rectangle_412572" data-name="Rectangle 412572" width="57" height="55" transform="translate(1140.051 3879)" fill="#fff" stroke="#707070" stroke-width="1"/>
    </clipPath>
  </defs>
  <g id="Group_1204759" data-name="Group 1204759" transform="translate(-1119.086 -3857.106)">
    <g id="Group_1204751" data-name="Group 1204751" transform="translate(1119.086 3857.106)">
      <g id="Group_1204438" data-name="Group 1204438">
        <g id="Group_1204285" data-name="Group 1204285">
          <g id="Group_1204180" data-name="Group 1204180">
            <g id="Group_1204143" data-name="Group 1204143">
              <g id="Group_1188789" data-name="Group 1188789" transform="translate(0)">
                <path id="Path_1243039" data-name="Path 1243039" d="M41.05,0h0a41.05,41.05,0,0,1,0,82.1h0a41.05,41.05,0,0,1,0-82.1Z" transform="translate(7.951 7.949)" fill="#ffc63f"/>
                <rect id="Rectangle_400907" data-name="Rectangle 400907" width="88.438" height="88.437" rx="44.218" transform="translate(4.782 4.781)" fill="none"/>
                <g id="Group_1098742" data-name="Group 1098742" transform="translate(0)">
                  <g id="Rectangle_400898" data-name="Rectangle 400898" transform="translate(0)" fill="none" stroke="#fff" stroke-width="2" opacity="0.859">
                    <rect width="98" height="97.999" rx="48.999" stroke="none"/>
                    <rect x="1" y="1" width="96" height="95.999" rx="47.999" fill="none"/>
                  </g>
                  <g id="Rectangle_400907-2" data-name="Rectangle 400907" transform="translate(0)" fill="none" stroke="#0f1f33" stroke-linecap="round" stroke-width="2">
                    <rect width="98" height="97.999" rx="48.999" stroke="none"/>
                    <rect x="1" y="1" width="96" height="95.999" rx="47.999" fill="none"/>
                  </g>
                </g>
              </g>
            </g>
          </g>
        </g>
      </g>
    </g>
    <g id="Mask_Group_1099525" data-name="Mask Group 1099525" clip-path="url(#clip-path)">
      <g id="_x34_2_Search" transform="translate(1138.947 3876.896)">
        <g id="Group_1207097" data-name="Group 1207097">
          <path id="Path_1328450" data-name="Path 1328450" d="M31.887,37.693a10.662,10.662,0,1,1,0-15.078A10.678,10.678,0,0,1,31.887,37.693Z" fill="#37d0f9"/>
          <path id="Path_1328451" data-name="Path 1328451" d="M31.883,37.691a10.682,10.682,0,0,1-9.156,3.016,10.674,10.674,0,0,0,.018-21.1,10.667,10.667,0,0,1,9.138,18.087Z" opacity="0.2"/>
          <path id="Path_1328452" data-name="Path 1328452" d="M14.558,42.58l-9.4,9.4A1.865,1.865,0,0,1,2.52,49.345l9.4-9.4a1.865,1.865,0,1,1,2.637,2.637Z" fill="#c57408"/>
          <path id="Path_1328453" data-name="Path 1328453" d="M57.43,9a5.78,5.78,0,0,1-5.78,5.78H7.556a5.78,5.78,0,0,1,0-11.56H51.65A5.78,5.78,0,0,1,57.43,9Z" fill="#e6e8e7"/>
          <path id="Path_1328454" data-name="Path 1328454" d="M51.65,3.217h-5.8v11.56h5.8a5.78,5.78,0,0,0,0-11.56Z" fill="#fd4746"/>
          <path id="Path_1328455" data-name="Path 1328455" d="M51.114,18.788l2.528,5.37-2.528-1.034-2.528,1.034" fill="#405d6b"/>
          <path id="Path_1328456" data-name="Path 1328456" d="M48.587,24.159l2.528-5.37" fill="#405d6b"/>
          <path id="Path_1328457" data-name="Path 1328457" d="M53.328,34.7V55.989H39.4a1.539,1.539,0,0,1-1.539-1.539V36.239A1.539,1.539,0,0,1,39.4,34.7Z" fill="#facb00"/>
          <path id="Path_1328458" data-name="Path 1328458" d="M50.392,34.7h2.935V55.985H50.392Z" opacity="0.2"/>
          <path id="Path_1328459" data-name="Path 1328459" d="M53.328,34.7V55.989H56.4a1.026,1.026,0,0,0,1.026-1.026V36.239A1.539,1.539,0,0,0,55.891,34.7Z" fill="#e6e8e7"/>
          <path id="Path_1328460" data-name="Path 1328460" d="M16.332,22.139a11.311,11.311,0,0,0-.467,15.545l-1.385,1.385a2.6,2.6,0,0,0-3.035.4l-9.4,9.4a2.538,2.538,0,1,0,3.589,3.589l9.4-9.4a2.533,2.533,0,0,0,.4-3.041l1.38-1.38a11.338,11.338,0,1,0-.486-16.5ZM14.082,42.1l-9.4,9.4A1.191,1.191,0,1,1,3,49.821l9.4-9.4A1.191,1.191,0,0,1,14.082,42.1Zm17.329-4.887a9.989,9.989,0,1,1,0-14.126A10.009,10.009,0,0,1,31.411,37.217Z"/>
          <path id="Path_1328461" data-name="Path 1328461" d="M18.871,24.679a.673.673,0,1,0,.952.952,6.394,6.394,0,0,1,9.048,0,.673.673,0,0,0,.952-.952,7.74,7.74,0,0,0-10.952,0Z"/>
          <path id="Path_1328462" data-name="Path 1328462" d="M51.65,2.544H7.557a6.454,6.454,0,0,0,0,12.907H51.65a6.454,6.454,0,0,0,0-12.907ZM2.45,9A5.113,5.113,0,0,1,7.557,3.89H45.174V14.1H7.557A5.114,5.114,0,0,1,2.45,9ZM51.65,14.1H46.521V3.89H51.65a5.107,5.107,0,0,1,0,10.214Z"/>
          <path id="Path_1328463" data-name="Path 1328463" d="M53.19,9.6a2.4,2.4,0,1,0-.952.952l1.145,1.145a.673.673,0,0,0,.952-.952Zm-2.8-.4a1.024,1.024,0,0,1,.722-1.748h0a1.015,1.015,0,0,1,.722.3A1.023,1.023,0,0,1,50.392,9.2Z"/>
          <path id="Path_1328464" data-name="Path 1328464" d="M34.216,8.324H8.053a.673.673,0,0,0,0,1.346H34.216a.673.673,0,0,0,0-1.346Z"/>
          <path id="Path_1328465" data-name="Path 1328465" d="M48.813,24.788c.253-.093,1.681-.683,2.3-.935l2.273.929a.674.674,0,0,0,.864-.91L51.723,18.5a.684.684,0,0,0-1.218,0c-1.33,2.836-2.475,5.231-2.547,5.436a.663.663,0,0,0,.855.849ZM51.369,22.5a.678.678,0,0,0-.255-.05h0a.674.674,0,0,0-.255.05l-.926.379.628-1.335.554-1.176L52.3,22.882Z"/>
          <path id="Path_1328466" data-name="Path 1328466" d="M55.892,34.027H52.142V32.817a3.6,3.6,0,0,0-5.08-3.289,3.576,3.576,0,0,0-1.468-.319,3.613,3.613,0,0,0-3.609,3.609v1.21H39.4a2.214,2.214,0,0,0-2.212,2.212V54.451A2.215,2.215,0,0,0,39.4,56.663H56.4a1.7,1.7,0,0,0,1.7-1.7V36.239A2.214,2.214,0,0,0,55.892,34.027Zm-5.1-1.211v1.211H49.2v-1.21a3.573,3.573,0,0,0-.809-2.248c.047,0,.092-.014.14-.014A2.267,2.267,0,0,1,50.8,32.817ZM47.061,31.11a2.248,2.248,0,0,1,.8,1.708v1.21H46.263V32.817A2.243,2.243,0,0,1,47.061,31.11Zm-3.729,1.708a2.265,2.265,0,0,1,2.262-2.262c.046,0,.088.011.133.014a3.566,3.566,0,0,0-.811,2.248v1.211H43.332v-1.21Zm-4.8,21.633V36.239a.866.866,0,0,1,.865-.865h2.587v2.589a.673.673,0,1,0,1.346,0V35.374h2.25l.009,0,.009,0h2.258v2.589a.673.673,0,1,0,1.346,0V35.374h2.257l.009,0,.009,0h1.177V55.317H39.4a.867.867,0,0,1-.865-.866Zm18.224.513a.353.353,0,0,1-.352.353H54V35.374h1.891a.866.866,0,0,1,.865.865Z"/>
        </g>
      </g>
    </g>
  </g>
</svg>
