<svg xmlns="http://www.w3.org/2000/svg" xmlns:xlink="http://www.w3.org/1999/xlink" width="98" height="97.999" viewBox="0 0 98 97.999">
  <defs>
    <clipPath id="clip-path">
      <rect id="Rectangle_412572" data-name="Rectangle 412572" width="57" height="55" transform="translate(1140.051 3879)" fill="#fff" stroke="#707070" stroke-width="1"/>
    </clipPath>
  </defs>
  <g id="Group_1204758" data-name="Group 1204758" transform="translate(-1119.086 -3857.106)">
    <g id="Group_1204751" data-name="Group 1204751" transform="translate(1119.086 3857.106)">
      <g id="Group_1204438" data-name="Group 1204438">
        <g id="Group_1204285" data-name="Group 1204285">
          <g id="Group_1204180" data-name="Group 1204180">
            <g id="Group_1204143" data-name="Group 1204143">
              <g id="Group_1188789" data-name="Group 1188789" transform="translate(0)">
                <path id="Path_1243039" data-name="Path 1243039" d="M41.05,0h0a41.05,41.05,0,0,1,0,82.1h0a41.05,41.05,0,0,1,0-82.1Z" transform="translate(7.951 7.949)" fill="#ffc63f"/>
                <rect id="Rectangle_400907" data-name="Rectangle 400907" width="88.438" height="88.437" rx="44.218" transform="translate(4.782 4.781)" fill="none"/>
                <g id="Group_1098742" data-name="Group 1098742" transform="translate(0)">
                  <g id="Rectangle_400898" data-name="Rectangle 400898" transform="translate(0)" fill="none" stroke="#fff" stroke-width="2" opacity="0.859">
                    <rect width="98" height="97.999" rx="48.999" stroke="none"/>
                    <rect x="1" y="1" width="96" height="95.999" rx="47.999" fill="none"/>
                  </g>
                  <g id="Rectangle_400907-2" data-name="Rectangle 400907" transform="translate(0)" fill="none" stroke="#0f1f33" stroke-linecap="round" stroke-width="2">
                    <rect width="98" height="97.999" rx="48.999" stroke="none"/>
                    <rect x="1" y="1" width="96" height="95.999" rx="47.999" fill="none"/>
                  </g>
                </g>
              </g>
            </g>
          </g>
        </g>
      </g>
    </g>
    <g id="Mask_Group_1099530" data-name="Mask Group 1099530" clip-path="url(#clip-path)">
      <g id="pairing_17387813" transform="translate(1140.616 3878.564)">
        <g id="Group_1207100" data-name="Group 1207100">
          <path id="Path_1328550" data-name="Path 1328550" d="M23.912,19.758c-.362-9.9-22.46-9.9-22.821,0v5.336H23.912Z" fill="#1b6fab" fill-rule="evenodd"/>
          <path id="Path_1328551" data-name="Path 1328551" d="M23.912,19.758c-.158-4.352-4.513-6.789-9.375-7.318-4.863.529-9.218,2.966-9.375,7.318v5.336H23.912Z" fill="#3589c9" fill-rule="evenodd"/>
          <path id="Path_1328552" data-name="Path 1328552" d="M12.5,1.091a6.033,6.033,0,1,0,6.035,6.035A6.034,6.034,0,0,0,12.5,1.091Z" fill="#e2b698" fill-rule="evenodd"/>
          <path id="Path_1328553" data-name="Path 1328553" d="M14.24,12.9a6.034,6.034,0,0,0,0-11.556,6.035,6.035,0,0,0,0,11.556Z" fill="#efc9ae" fill-rule="evenodd"/>
          <path id="Path_1328554" data-name="Path 1328554" d="M18.01,33.145H7a.907.907,0,0,1-.906-.9V21.227A.91.91,0,0,1,7,20.321H18.01a.907.907,0,0,1,.9.906V32.242a.9.9,0,0,1-.9.9Z" fill="#b06328" fill-rule="evenodd"/>
          <path id="Path_1328555" data-name="Path 1328555" d="M18.01,33.145H9.47a.9.9,0,0,1-.9-.9V21.227a.907.907,0,0,1,.9-.906h8.54a.907.907,0,0,1,.9.906V32.242a.9.9,0,0,1-.9.9Z" fill="#c97629" fill-rule="evenodd"/>
          <path id="Path_1328556" data-name="Path 1328556" d="M14.265,25.351v-5.03H10.738v5.03l.387-.223,1.376-.795,1.38.795Z" fill="#ee2b39" fill-rule="evenodd"/>
          <path id="Path_1328557" data-name="Path 1328557" d="M54.779,41.392c-.362-9.9-22.46-9.9-22.821,0v5.336H54.779Z" fill="#f7b84e" fill-rule="evenodd"/>
          <path id="Path_1328558" data-name="Path 1328558" d="M54.779,41.392c-.158-4.352-4.513-6.793-9.375-7.318-4.863.526-9.218,2.966-9.375,7.318v5.336H54.779Z" fill="#ffcb5b" fill-rule="evenodd"/>
          <path id="Path_1328559" data-name="Path 1328559" d="M43.368,22.724A6.033,6.033,0,1,0,49.4,28.759a6.037,6.037,0,0,0-6.032-6.035Z" fill="#e2b698" fill-rule="evenodd"/>
          <path id="Path_1328560" data-name="Path 1328560" d="M45.107,34.537a6.035,6.035,0,0,0,0-11.556,6.035,6.035,0,0,0,0,11.556Z" fill="#efc9ae" fill-rule="evenodd"/>
          <path id="Path_1328561" data-name="Path 1328561" d="M48.877,54.779H37.859a.906.906,0,0,1-.9-.9V42.861a.909.909,0,0,1,.9-.906H48.877a.909.909,0,0,1,.9.906V53.876a.906.906,0,0,1-.9.9Z" fill="#b06328" fill-rule="evenodd"/>
          <path id="Path_1328562" data-name="Path 1328562" d="M48.877,54.779h-8.54a.907.907,0,0,1-.906-.9V42.861a.91.91,0,0,1,.906-.906h8.54a.909.909,0,0,1,.9.906V53.876a.906.906,0,0,1-.9.9Z" fill="#c97629" fill-rule="evenodd"/>
          <path id="Path_1328563" data-name="Path 1328563" d="M45.131,46.984v-5.03H41.605v5.03l.384-.223,1.38-.795,1.376.795Z" fill="#ee2b39" fill-rule="evenodd"/>
        </g>
        <path id="Path_1328564" data-name="Path 1328564" d="M39.295,15.3a.653.653,0,0,1,1.073-.746l2.345,3.362V9.668A4.546,4.546,0,0,0,38.175,5.13h-9.9a.656.656,0,0,1,0-1.312h9.9a5.859,5.859,0,0,1,5.849,5.849v8.25l2.342-3.362a.655.655,0,0,1,1.076.746l-3.52,5.051a.655.655,0,0,1-1.107,0L39.295,15.3Z" fill="#3589c9"/>
        <path id="Path_1328565" data-name="Path 1328565" d="M16.575,40.569a.654.654,0,1,1-1.073.749l-2.345-3.365V46.2a4.546,4.546,0,0,0,4.538,4.538h9.9a.654.654,0,0,1,0,1.308h-9.9A5.855,5.855,0,0,1,11.849,46.2V37.952L9.5,41.317a.656.656,0,1,1-1.076-.749l3.52-5.048a.654.654,0,0,1,1.107,0l3.52,5.048Z" fill="#ffcb5b"/>
        <path id="Path_1328566" data-name="Path 1328566" d="M28.246,51.4a.654.654,0,0,1-.656.656h-9.9A5.854,5.854,0,0,1,11.846,46.2V37.958L9.5,41.317a.656.656,0,1,1-1.076-.749L11.963,35.5l.009-.009a.232.232,0,0,1,.034-.043.083.083,0,0,0,.015-.019.363.363,0,0,1,.037-.034l.019-.019c.012-.012.031-.025.046-.037s.006,0,.009-.006a.405.405,0,0,1,.062-.037s.009,0,.012-.006a.443.443,0,0,1,.056-.025.043.043,0,0,0,.019-.006.308.308,0,0,1,.05-.015.081.081,0,0,1,.022-.006l.056-.009c.006,0,.012,0,.019,0a.446.446,0,0,1,.148,0c.006,0,.012,0,.022,0l.053.009a.055.055,0,0,1,.022.006.308.308,0,0,1,.05.015.081.081,0,0,0,.022.006c.015.006.034.015.053.025,0,0,.009,0,.012.006a.415.415,0,0,1,.062.037s.006,0,.009.006c.019.012.034.025.05.037a.083.083,0,0,1,.015.019.362.362,0,0,1,.037.034c.006.006.009.012.015.019a.237.237,0,0,1,.034.043l.009.009,3.536,5.073a.655.655,0,0,1-.164.912.655.655,0,0,1-.912-.164l-2.342-3.359V46.2a4.54,4.54,0,0,0,4.538,4.535h9.9a.656.656,0,0,1,.656.656ZM38.175,5.13h-9.9a.656.656,0,0,1,0-1.312h9.9a5.854,5.854,0,0,1,5.849,5.846v8.246l2.342-3.359a.656.656,0,1,1,1.076.752l-3.535,5.07a.044.044,0,0,1-.009.012.406.406,0,0,1-.034.043c-.006.006-.009.012-.015.019a.363.363,0,0,1-.037.034.037.037,0,0,1-.015.015.305.305,0,0,1-.05.04s-.006,0-.009.006c-.019.012-.04.025-.062.037a.023.023,0,0,0-.012.006c-.019.006-.034.015-.053.022l-.022.009c-.015.006-.031.009-.05.015a.055.055,0,0,0-.022.006l-.053.009-.022,0a.578.578,0,0,1-.074,0,.6.6,0,0,1-.074,0c-.006,0-.012,0-.019,0l-.056-.009a.045.045,0,0,0-.022-.006c-.015-.006-.034-.009-.05-.015l-.019-.009c-.019-.006-.037-.015-.056-.022a.024.024,0,0,0-.012-.006c-.022-.012-.043-.025-.062-.037,0,0-.006-.006-.009-.006a.544.544,0,0,1-.046-.04.08.08,0,0,1-.019-.015.362.362,0,0,1-.037-.034.08.08,0,0,0-.015-.019.421.421,0,0,1-.034-.043.042.042,0,0,1-.009-.012L39.292,15.3a.656.656,0,1,1,1.076-.752l2.345,3.362V9.665A4.542,4.542,0,0,0,38.175,5.13ZM54.123,46.072H50.436V42.858A1.558,1.558,0,0,0,48.874,41.3H37.859A1.558,1.558,0,0,0,36.3,42.858v3.214H32.613V41.4c.152-3.941,4.173-5.967,7.959-6.567a6.682,6.682,0,0,0,5.589,0c3.789.6,7.81,2.626,7.962,6.567v4.671Zm-9.648-.226L43.7,45.4a.661.661,0,0,0-.656,0l-.783.452V42.611h2.218Zm4.649,8.027a.254.254,0,0,1-.251.251H37.859a.253.253,0,0,1-.247-.251V42.858a.248.248,0,0,1,.247-.247h3.087v4.371a.658.658,0,0,0,.984.569l1.438-.829,1,.575s.009,0,.012.006l.427.247a.656.656,0,0,0,.984-.569V42.61h3.087a.253.253,0,0,1,.251.247V53.873ZM37.989,28.759a5.377,5.377,0,1,1,5.379,5.376A5.385,5.385,0,0,1,37.989,28.759ZM55.435,41.367c-.133-3.638-3.034-6.443-7.69-7.557a6.689,6.689,0,1,0-8.757,0c-4.652,1.114-7.554,3.919-7.687,7.557v5.357a.656.656,0,0,0,.656.656H36.3v6.493a1.561,1.561,0,0,0,1.559,1.562H48.874a1.562,1.562,0,0,0,1.562-1.562V47.38h4.343a.656.656,0,0,0,.656-.656ZM6.745,32.239V21.224a.248.248,0,0,1,.247-.247h3.09V25.35a.661.661,0,0,0,.328.569.654.654,0,0,0,.656,0l1.435-.832.971.563a.2.2,0,0,0,.043.025l.421.244a.656.656,0,0,0,.984-.569V20.977h3.09a.252.252,0,0,1,.247.247V32.239a.253.253,0,0,1-.247.251H6.992a.253.253,0,0,1-.247-.251Zm6.864-8.024-.779-.452a.654.654,0,0,0-.656,0l-.779.452V20.977h2.215v3.239Zm-11.862.223V19.767C1.9,15.823,5.925,13.8,9.711,13.2a6.677,6.677,0,0,0,5.58,0c3.786.594,7.813,2.62,7.965,6.564v4.671H19.569V21.224a1.56,1.56,0,0,0-1.559-1.559H6.992a1.56,1.56,0,0,0-1.559,1.559v3.214ZM7.122,7.125A5.377,5.377,0,1,1,12.5,12.5,5.385,5.385,0,0,1,7.122,7.125ZM19.569,32.239v-6.49h4.343a.656.656,0,0,0,.656-.656V19.733c-.133-3.641-3.037-6.443-7.693-7.557a6.689,6.689,0,1,0-8.751,0C3.472,13.29.568,16.093.435,19.733v5.361a.656.656,0,0,0,.656.656H5.434v6.49A1.561,1.561,0,0,0,6.993,33.8H18.01a1.561,1.561,0,0,0,1.559-1.562Z" fill="#070202"/>
      </g>
    </g>
  </g>
</svg>
