<svg xmlns="http://www.w3.org/2000/svg" xmlns:xlink="http://www.w3.org/1999/xlink" width="98" height="97.999" viewBox="0 0 98 97.999">
  <defs>
    <clipPath id="clip-path">
      <rect id="Rectangle_412572" data-name="Rectangle 412572" width="57" height="55" transform="translate(1140.051 3879)" fill="#fff" stroke="#707070" stroke-width="1"/>
    </clipPath>
  </defs>
  <g id="Group_1204761" data-name="Group 1204761" transform="translate(-1119.086 -3857.106)">
    <g id="Group_1204751" data-name="Group 1204751" transform="translate(1119.086 3857.106)">
      <g id="Group_1204438" data-name="Group 1204438">
        <g id="Group_1204285" data-name="Group 1204285">
          <g id="Group_1204180" data-name="Group 1204180">
            <g id="Group_1204143" data-name="Group 1204143">
              <g id="Group_1188789" data-name="Group 1188789" transform="translate(0)">
                <path id="Path_1243039" data-name="Path 1243039" d="M41.05,0h0a41.05,41.05,0,0,1,0,82.1h0a41.05,41.05,0,0,1,0-82.1Z" transform="translate(7.951 7.949)" fill="#ffc63f"/>
                <rect id="Rectangle_400907" data-name="Rectangle 400907" width="88.438" height="88.437" rx="44.218" transform="translate(4.782 4.781)" fill="none"/>
                <g id="Group_1098742" data-name="Group 1098742" transform="translate(0)">
                  <g id="Rectangle_400898" data-name="Rectangle 400898" transform="translate(0)" fill="none" stroke="#fff" stroke-width="2" opacity="0.859">
                    <rect width="98" height="97.999" rx="48.999" stroke="none"/>
                    <rect x="1" y="1" width="96" height="95.999" rx="47.999" fill="none"/>
                  </g>
                  <g id="Rectangle_400907-2" data-name="Rectangle 400907" transform="translate(0)" fill="none" stroke="#0f1f33" stroke-linecap="round" stroke-width="2">
                    <rect width="98" height="97.999" rx="48.999" stroke="none"/>
                    <rect x="1" y="1" width="96" height="95.999" rx="47.999" fill="none"/>
                  </g>
                </g>
              </g>
            </g>
          </g>
        </g>
      </g>
    </g>
    <g id="Mask_Group_1099529" data-name="Mask Group 1099529" clip-path="url(#clip-path)">
      <g id="review_4304195" transform="translate(1139.131 3878.46)">
        <path id="Path_1328521" data-name="Path 1328521" d="M7.447,9.194H51.576a3.677,3.677,0,0,1,3.677,3.677V44.129H3.769V12.871A3.677,3.677,0,0,1,7.447,9.194Z" fill="#868686"/>
        <path id="Path_1328522" data-name="Path 1328522" d="M7.442,12.871H51.571V40.452H7.442Z" fill="#bce4f8"/>
        <path id="Path_1328523" data-name="Path 1328523" d="M7.447,12.871v23.9H43.3a2.758,2.758,0,0,0,2.758-2.758V12.871Z" fill="#e4f5fd"/>
        <path id="Path_1328524" data-name="Path 1328524" d="M27.581,22.984V4.6H57V22.984H42.29l-4.6,4.6v-4.6Z" fill="#e0e0e0"/>
        <path id="Path_1328525" data-name="Path 1328525" d="M27.581,4.6v14.71h23.9a2.758,2.758,0,0,0,2.758-2.758V4.6Z" fill="#f2f2f2"/>
        <path id="Path_1328526" data-name="Path 1328526" d="M37.661,10.113l1.146,2.421,2.563.389-1.854,1.885.438,2.661-2.293-1.257-2.293,1.257.439-2.661-1.855-1.885,2.563-.389Z" fill="#f3a845"/>
        <path id="Path_1328527" data-name="Path 1328527" d="M36.774,15.629a1.839,1.839,0,0,0,1.839-1.839V12.123l-.952-2.01-1.146,2.421-2.563.389,1.855,1.885-.136.822Z" fill="#eecc61"/>
        <path id="Path_1328528" data-name="Path 1328528" d="M25.742,40.452H11.032V36.774A3.677,3.677,0,0,1,14.71,33.1h7.355a3.677,3.677,0,0,1,3.677,3.677Z" fill="#aa2b24"/>
        <path id="Path_1328529" data-name="Path 1328529" d="M19.306,39.532a2.758,2.758,0,0,0,2.758-2.758V33.1H14.71a3.677,3.677,0,0,0-3.677,3.677v2.758Z" fill="#d24034"/>
        <g id="Group_1207099" data-name="Group 1207099">
          <rect id="Rectangle_426255" data-name="Rectangle 426255" width="9.194" height="13.79" rx="4.597" transform="translate(13.79 19.306)" fill="#fddfb1"/>
          <path id="Path_1328530" data-name="Path 1328530" d="M13.79,28.5V25.742h-.919a1.839,1.839,0,1,0,0,3.677h1.011a4.586,4.586,0,0,1-.092-.919Z" fill="#fddfb1"/>
          <path id="Path_1328531" data-name="Path 1328531" d="M23.9,25.742h-.919V28.5a4.586,4.586,0,0,1-.092.919H23.9a1.839,1.839,0,0,0,0-3.677Z" fill="#fddfb1"/>
        </g>
        <path id="Path_1328532" data-name="Path 1328532" d="M18.387,19.306a4.6,4.6,0,0,0-4.6,4.6v4.6a4.578,4.578,0,0,0,.388,1.839h4.209a2.758,2.758,0,0,0,2.758-2.758V20.247a4.556,4.556,0,0,0-2.758-.941Z" fill="#feecd0"/>
        <path id="Path_1328533" data-name="Path 1328533" d="M16.548,33.1v.919a1.839,1.839,0,1,0,3.677,0V33.1Z" fill="#fddfb1"/>
        <path id="Path_1328534" data-name="Path 1328534" d="M18.387,19.306a4.6,4.6,0,0,0-4.6,4.6v1.839h1.622A3.326,3.326,0,0,0,18.387,23.9a3.326,3.326,0,0,0,2.975,1.839h1.622V23.9a4.6,4.6,0,0,0-4.6-4.6Z" fill="#686868"/>
        <path id="Path_1328535" data-name="Path 1328535" d="M1.839,44.129H57v3.677a3.677,3.677,0,0,1-3.677,3.677H5.516a3.677,3.677,0,0,1-3.677-3.677Z" fill="#939393"/>
        <path id="Path_1328536" data-name="Path 1328536" d="M21.145,44.129l1.839,3.677H35.855l1.839-3.677Z" fill="#a9a9a9"/>
        <path id="Path_1328537" data-name="Path 1328537" d="M51.484,45.968a.919.919,0,0,1-.919.919H45.048a.919.919,0,1,1,0-1.839h5.516A.919.919,0,0,1,51.484,45.968Z" fill="#fff"/>
        <path id="Path_1328538" data-name="Path 1328538" d="M55.161,45.968a.919.919,0,0,1-.919.919h-.919a.919.919,0,1,1,0-1.839h.919A.919.919,0,0,1,55.161,45.968Z" fill="#fff"/>
        <path id="Path_1328539" data-name="Path 1328539" d="M48.694,10.113l1.146,2.421,2.563.389-1.854,1.885.438,2.661-2.293-1.257L46.4,17.468l.439-2.661-1.855-1.885,2.563-.389Z" fill="#f3a845"/>
        <path id="Path_1328540" data-name="Path 1328540" d="M21.145,37.694h1.839v2.758H21.145Z" fill="#80201b"/>
        <path id="Path_1328541" data-name="Path 1328541" d="M13.79,37.694h1.839v2.758H13.79Z" fill="#80201b"/>
        <path id="Path_1328542" data-name="Path 1328542" d="M47.806,15.629a1.839,1.839,0,0,0,1.839-1.839V12.123l-.952-2.01-1.146,2.421-2.563.389,1.855,1.885-.136.822Z" fill="#eecc61"/>
        <path id="Path_1328543" data-name="Path 1328543" d="M26.661,36.774a4.587,4.587,0,0,0-4.21-4.557,5.516,5.516,0,0,0,1.13-1.878H23.9a2.758,2.758,0,0,0,0-5.516V23.9a5.516,5.516,0,1,0-11.032,0v.919a2.758,2.758,0,0,0,0,5.516h.322a5.516,5.516,0,0,0,1.13,1.878,4.587,4.587,0,0,0-4.21,4.557v2.758H8.274V13.79H24.823V11.952H7.355a.919.919,0,0,0-.919.919V40.452a.919.919,0,0,0,.919.919H51.484a.919.919,0,0,0,.919-.919V25.742H50.565v13.79h-23.9ZM14.71,28.5V26.661h.7a4.229,4.229,0,0,0,2.975-1.213,4.229,4.229,0,0,0,2.975,1.213h.7V28.5a3.677,3.677,0,1,1-7.355,0Zm4.6,5.516a.919.919,0,1,1-1.839,0Zm5.516-6.435a.919.919,0,0,1-.919.919V26.661A.919.919,0,0,1,24.823,27.581Zm-6.435-7.355A3.677,3.677,0,0,1,22.065,23.9v.919h-.7a2.39,2.39,0,0,1-2.148-1.33.958.958,0,0,0-1.646,0,2.39,2.39,0,0,1-2.157,1.33h-.7V23.9A3.677,3.677,0,0,1,18.387,20.226Zm-6.435,7.355a.919.919,0,0,1,.919-.919V28.5A.919.919,0,0,1,11.952,27.581Zm0,9.194a2.758,2.758,0,0,1,2.758-2.758h.919a2.758,2.758,0,0,0,5.516,0h.919a2.758,2.758,0,0,1,2.758,2.758v2.758H22.984V37.694H21.145v1.839H15.629V37.694H13.79v1.839H11.952Z"/>
        <path id="Path_1328544" data-name="Path 1328544" d="M57,23.9a.919.919,0,0,0,.919-.919V4.6A.919.919,0,0,0,57,3.677H27.581a.919.919,0,0,0-.919.919V8.274H7.355a4.6,4.6,0,0,0-4.6,4.6V43.21H1.839a.919.919,0,0,0-.919.919v3.677a4.6,4.6,0,0,0,4.6,4.6H53.323a4.6,4.6,0,0,0,4.6-4.6V44.129A.919.919,0,0,0,57,43.21h-.919V23.9ZM28.5,5.516H56.081V22.065H42.29a.919.919,0,0,0-.65.269l-3.028,3.028V22.984a.919.919,0,0,0-.919-.919H28.5Zm27.581,42.29a2.758,2.758,0,0,1-2.758,2.758H5.516a2.758,2.758,0,0,1-2.758-2.758V45.048H20.577l1.584,3.169a.919.919,0,0,0,.823.508H35.855a.919.919,0,0,0,.827-.508l1.579-3.169H56.081ZM22.633,45.048H36.206l-.919,1.839H23.552ZM54.242,43.21H4.6V12.871a2.758,2.758,0,0,1,2.758-2.758H26.661V22.984a.919.919,0,0,0,.919.919h9.194v3.677a.919.919,0,0,0,1.569.65L42.671,23.9H54.242Z"/>
        <path id="Path_1328545" data-name="Path 1328545" d="M28.5,35.855H45.048v1.839H28.5Z"/>
        <path id="Path_1328546" data-name="Path 1328546" d="M46.887,35.855h1.839v1.839H46.887Z"/>
        <path id="Path_1328547" data-name="Path 1328547" d="M28.5,32.177H48.726v1.839H28.5Z"/>
        <path id="Path_1328548" data-name="Path 1328548" d="M45.856,15.119l-.361,2.2a.919.919,0,0,0,1.349.955l1.851-1.011,1.852,1.011a.919.919,0,0,0,1.348-.956l-.361-2.2,1.527-1.552a.919.919,0,0,0-.519-1.554L50.462,11.7l-.938-1.978a.919.919,0,0,0-1.66,0L46.926,11.7l-2.08.315a.919.919,0,0,0-.518,1.554Zm1.829-1.676a.919.919,0,0,0,.693-.515l.316-.667.316.667a.919.919,0,0,0,.692.515l.782.119-.591.6a.919.919,0,0,0-.252.794l.131.8-.638-.349a.919.919,0,0,0-.883,0l-.637.349.131-.8a.919.919,0,0,0-.252-.794l-.591-.6Z"/>
        <path id="Path_1328549" data-name="Path 1328549" d="M39.576,18.274a.919.919,0,0,0,1.349-.955l-.361-2.2,1.527-1.552a.919.919,0,0,0-.518-1.554l-2.08-.315-.938-1.978a.919.919,0,0,0-1.66,0L35.958,11.7l-2.079.315a.919.919,0,0,0-.519,1.554l1.527,1.552-.361,2.2a.919.919,0,0,0,1.348.956l1.852-1.011Zm-2.93-2.52.128-.8a.919.919,0,0,0-.252-.794l-.591-.6.781-.119a.919.919,0,0,0,.693-.515l.316-.667.316.667a.919.919,0,0,0,.693.515l.781.119-.591.6a.919.919,0,0,0-.252.794l.131.8-.637-.349a.919.919,0,0,0-.883,0Z"/>
      </g>
    </g>
  </g>
</svg>
