<svg xmlns="http://www.w3.org/2000/svg" xmlns:xlink="http://www.w3.org/1999/xlink" width="98" height="97.998" viewBox="0 0 98 97.998">
  <defs>
    <clipPath id="clip-path">
      <rect id="Rectangle_412572" data-name="Rectangle 412572" width="57" height="55" transform="translate(1140.051 3879)" fill="#fff" stroke="#707070" stroke-width="1"/>
    </clipPath>
  </defs>
  <g id="Group_1206217" data-name="Group 1206217" transform="translate(-1119.086 -3857.107)">
    <g id="Group_1204751" data-name="Group 1204751" transform="translate(1119.086 3857.106)">
      <g id="Group_1204438" data-name="Group 1204438">
        <g id="Group_1204285" data-name="Group 1204285">
          <g id="Group_1204180" data-name="Group 1204180">
            <g id="Group_1204143" data-name="Group 1204143">
              <g id="Group_1188789" data-name="Group 1188789" transform="translate(0)">
                <path id="Path_1243039" data-name="Path 1243039" d="M41.05,0h0a41.05,41.05,0,0,1,0,82.1h0a41.05,41.05,0,0,1,0-82.1Z" transform="translate(7.951 7.949)" fill="#ffc63f"/>
                <rect id="Rectangle_400907" data-name="Rectangle 400907" width="88.438" height="88.437" rx="44.218" transform="translate(4.782 4.781)" fill="none"/>
                <g id="Group_1098742" data-name="Group 1098742" transform="translate(0)">
                  <g id="Rectangle_400898" data-name="Rectangle 400898" transform="translate(0)" fill="none" stroke="#fff" stroke-width="2" opacity="0.859">
                    <rect width="98" height="97.999" rx="48.999" stroke="none"/>
                    <rect x="1" y="1" width="96" height="95.999" rx="47.999" fill="none"/>
                  </g>
                  <g id="Rectangle_400907-2" data-name="Rectangle 400907" transform="translate(0)" fill="none" stroke="#0f1f33" stroke-linecap="round" stroke-width="2">
                    <rect width="98" height="97.999" rx="48.999" stroke="none"/>
                    <rect x="1" y="1" width="96" height="95.999" rx="47.999" fill="none"/>
                  </g>
                </g>
              </g>
            </g>
          </g>
        </g>
      </g>
    </g>
    <g id="Mask_Group_1099534" data-name="Mask Group 1099534" clip-path="url(#clip-path)">
      <g id="online-marketing_3886840" transform="translate(1139.109 3876.958)">
        <path id="Path_1328630" data-name="Path 1328630" d="M2.76,17.481H23V48.762H2.76Z" fill="#7cb2f8"/>
        <path id="Path_1328631" data-name="Path 1328631" d="M19.321,35.882,7.36,34.962v-3.68l11.961-.92,7.36-5.52V41.4Z" fill="#65788f"/>
        <path id="Path_1328632" data-name="Path 1328632" d="M11.04,31v4.251l-3.68-.285v-3.68Z" fill="#e6eef3"/>
        <path id="Path_1328633" data-name="Path 1328633" d="M9.2,34.962v5.52h3.68V35.254Z" fill="#536275"/>
        <path id="Path_1328634" data-name="Path 1328634" d="M23,16.561v.92H2.76v-.92A2.76,2.76,0,0,1,5.52,13.8H20.241A2.76,2.76,0,0,1,23,16.561Z" fill="#e6eef3"/>
        <path id="Path_1328635" data-name="Path 1328635" d="M2.76,48.762H23v.92a2.76,2.76,0,0,1-2.76,2.76H5.52a2.76,2.76,0,0,1-2.76-2.76Z" fill="#e6eef3"/>
        <path id="Path_1328636" data-name="Path 1328636" d="M52.442,46h-7.36a2.76,2.76,0,0,0-2.76,2.76v8.28H55.2v-8.28A2.76,2.76,0,0,0,52.442,46Z" fill="#628ec5"/>
        <circle id="Ellipse_13008" data-name="Ellipse 13008" cx="3.68" cy="3.68" r="3.68" transform="translate(45.082 37.722)" fill="#ffcf94"/>
        <path id="Path_1328637" data-name="Path 1328637" d="M54.282,29.441H50.6l-1.84,3.68-1.84-3.68h-3.68A1.84,1.84,0,0,1,41.4,27.6V16.561a1.84,1.84,0,0,1,1.84-1.84h11.04a1.84,1.84,0,0,1,1.84,1.84V27.6A1.84,1.84,0,0,1,54.282,29.441Z" fill="#e6eef3"/>
        <path id="Path_1328638" data-name="Path 1328638" d="M22.081,47.842H3.68V18.4h18.4v3.68h1.84v-5.52a3.68,3.68,0,0,0-3.68-3.68H13.8V9.2h-1.84v3.68H5.52a3.68,3.68,0,0,0-3.68,3.68V49.682a3.68,3.68,0,0,0,3.68,3.68H20.241a3.68,3.68,0,0,0,3.68-3.68v-5.52h-1.84ZM5.52,14.721H20.241a1.84,1.84,0,0,1,1.84,1.84H3.68a1.84,1.84,0,0,1,1.84-1.84Zm14.721,36.8H5.52a1.84,1.84,0,0,1-1.84-1.84h18.4A1.84,1.84,0,0,1,20.241,51.522Z"/>
        <rect id="Rectangle_426258" data-name="Rectangle 426258" width="1.84" height="1.84" rx="0.92" transform="translate(11.961 5.52)"/>
        <path id="Path_1328639" data-name="Path 1328639" d="M16.779,8.88a4.591,4.591,0,0,0,0-4.876l-1.559.975a2.749,2.749,0,0,1,0,2.922Z"/>
        <path id="Path_1328640" data-name="Path 1328640" d="M8.982,4a4.591,4.591,0,0,0,0,4.876L10.541,7.9a2.749,2.749,0,0,1,0-2.922Z"/>
        <path id="Path_1328641" data-name="Path 1328641" d="M19.9,10.838a8.287,8.287,0,0,0,0-8.8l-1.564.975a6.452,6.452,0,0,1,0,6.845Z"/>
        <path id="Path_1328642" data-name="Path 1328642" d="M5.863,2.042a8.287,8.287,0,0,0,0,8.8l1.559-.975a6.452,6.452,0,0,1,0-6.845Z"/>
        <path id="Path_1328643" data-name="Path 1328643" d="M52.442,45.082h-.949a4.6,4.6,0,1,0-5.463,0h-.949a3.68,3.68,0,0,0-3.68,3.68v8.28h1.84v-8.28a1.84,1.84,0,0,1,1.84-1.84h7.36a1.84,1.84,0,0,1,1.84,1.84v8.28h1.84v-8.28a3.68,3.68,0,0,0-3.68-3.68Zm-3.68-.92a2.76,2.76,0,1,1,2.76-2.76,2.76,2.76,0,0,1-2.76,2.76Z"/>
        <path id="Path_1328644" data-name="Path 1328644" d="M44.162,48.762H46v8.28h-1.84Z"/>
        <path id="Path_1328645" data-name="Path 1328645" d="M51.522,48.762h1.84v8.28h-1.84Z"/>
        <path id="Path_1328646" data-name="Path 1328646" d="M27.092,24.018a.92.92,0,0,0-.963.087l-7.146,5.359-11.694.9a.92.92,0,0,0-.849.92v3.68a.92.92,0,0,0,.849.92l.991.074v4.527a.92.92,0,0,0,.92.92h3.68a.92.92,0,0,0,.92-.92v-4.1l5.183.4,7.146,5.359A.92.92,0,0,0,27.6,41.4V24.841A.92.92,0,0,0,27.092,24.018ZM8.28,34.11V32.133l1.84-.142v2.26Zm3.68,5.452H10.12V36.1l1.84.142Zm13.8,0-5.888-4.416a.92.92,0,0,0-.481-.184l-7.431-.569V31.85l7.431-.569a.92.92,0,0,0,.481-.184l5.888-4.416Z"/>
        <path id="Path_1328647" data-name="Path 1328647" d="M30.361,32.2h5.52v1.84h-5.52Z"/>
        <path id="Path_1328648" data-name="Path 1328648" d="M54.282,13.8H43.242a2.76,2.76,0,0,0-2.76,2.76V27.6a2.76,2.76,0,0,0,2.76,2.76h3.112l1.585,3.171a.92.92,0,0,0,1.647,0l1.585-3.171h3.112a2.76,2.76,0,0,0,2.76-2.76V16.561a2.76,2.76,0,0,0-2.76-2.76Zm.92,13.8a.92.92,0,0,1-.92.92H50.6a.92.92,0,0,0-.828.509l-1.012,2.034L47.75,29.03a.92.92,0,0,0-.828-.509h-3.68a.92.92,0,0,1-.92-.92V16.561a.92.92,0,0,1,.92-.92h11.04a.92.92,0,0,1,.92.92Z"/>
        <path id="Path_1328649" data-name="Path 1328649" d="M48.3,20.241h.92a.46.46,0,0,1,.46.46h1.84a2.3,2.3,0,0,0-1.84-2.253v-.967h-1.84v.967A2.3,2.3,0,0,0,48.3,23h.92a.46.46,0,1,1,0,.92H48.3a.46.46,0,0,1-.46-.46H46a2.3,2.3,0,0,0,1.84,2.253v.967h1.84v-.967a2.3,2.3,0,0,0-.46-4.553H48.3a.46.46,0,1,1,0-.92Z"/>
        <path id="Path_1328650" data-name="Path 1328650" d="M31.295,37.131h1.842v5.523H31.295Z" transform="matrix(0.606, -0.796, 0.796, 0.606, -19.032, 41.331)"/>
        <path id="Path_1328651" data-name="Path 1328651" d="M29.454,25.457h5.523V27.3H29.454Z" transform="matrix(0.796, -0.606, 0.606, 0.796, -9.392, 24.894)"/>
      </g>
    </g>
  </g>
</svg>
