<svg xmlns="http://www.w3.org/2000/svg" xmlns:xlink="http://www.w3.org/1999/xlink" width="98" height="97.998" viewBox="0 0 98 97.998">
  <defs>
    <clipPath id="clip-path">
      <rect id="Rectangle_412572" data-name="Rectangle 412572" width="57" height="55" transform="translate(1140.051 3879)" fill="#fff" stroke="#707070" stroke-width="1"/>
    </clipPath>
  </defs>
  <g id="Group_1206216" data-name="Group 1206216" transform="translate(-1119.086 -3857.107)">
    <g id="Group_1204751" data-name="Group 1204751" transform="translate(1119.086 3857.106)">
      <g id="Group_1204438" data-name="Group 1204438">
        <g id="Group_1204285" data-name="Group 1204285">
          <g id="Group_1204180" data-name="Group 1204180">
            <g id="Group_1204143" data-name="Group 1204143">
              <g id="Group_1188789" data-name="Group 1188789" transform="translate(0)">
                <path id="Path_1243039" data-name="Path 1243039" d="M41.05,0h0a41.05,41.05,0,0,1,0,82.1h0a41.05,41.05,0,0,1,0-82.1Z" transform="translate(7.951 7.949)" fill="#ffc63f"/>
                <rect id="Rectangle_400907" data-name="Rectangle 400907" width="88.438" height="88.437" rx="44.218" transform="translate(4.782 4.781)" fill="none"/>
                <g id="Group_1098742" data-name="Group 1098742" transform="translate(0)">
                  <g id="Rectangle_400898" data-name="Rectangle 400898" transform="translate(0)" fill="none" stroke="#fff" stroke-width="2" opacity="0.859">
                    <rect width="98" height="97.999" rx="48.999" stroke="none"/>
                    <rect x="1" y="1" width="96" height="95.999" rx="47.999" fill="none"/>
                  </g>
                  <g id="Rectangle_400907-2" data-name="Rectangle 400907" transform="translate(0)" fill="none" stroke="#0f1f33" stroke-linecap="round" stroke-width="2">
                    <rect width="98" height="97.999" rx="48.999" stroke="none"/>
                    <rect x="1" y="1" width="96" height="95.999" rx="47.999" fill="none"/>
                  </g>
                </g>
              </g>
            </g>
          </g>
        </g>
      </g>
    </g>
    <g id="Mask_Group_1099531" data-name="Mask Group 1099531" clip-path="url(#clip-path)">
      <g id="Layer_32" data-name="Layer 32" transform="translate(1140.164 3878.113)">
        <path id="Path_1328567" data-name="Path 1328567" d="M7.1,13.306H49.677V43.468H7.1Z" fill="#698cb2"/>
        <rect id="Rectangle_426256" data-name="Rectangle 426256" width="40.806" height="27.5" rx="1.459" transform="translate(7.984 14.194)" fill="#d7e0ef"/>
        <path id="Path_1328568" data-name="Path 1328568" d="M49.677,42.581,55,47.9A7.1,7.1,0,0,1,47.9,55H8.871a7.1,7.1,0,0,1-7.1-7.1L7.1,42.581Z" fill="#698cb2"/>
        <path id="Path_1328569" data-name="Path 1328569" d="M1.774,47.9H55l-5.323-5.323H7.1Z" fill="#a5badb"/>
        <path id="Path_1328570" data-name="Path 1328570" d="M9.758,41.694l20.4-27.5h5.323l-19.516,27.5Z" fill="#f2f5f9"/>
        <path id="Path_1328571" data-name="Path 1328571" d="M21.29,41.694l20.4-27.5h5.323L27.5,41.694Z" fill="#f2f5f9"/>
        <path id="Path_1328572" data-name="Path 1328572" d="M40.634,41.694,48.79,30.2V26.343L37.4,41.694Z" fill="#f2f5f9"/>
        <path id="Path_1328573" data-name="Path 1328573" d="M7.984,30.443l11.532-16.25H16.855L7.984,26.15Z" fill="#f2f5f9"/>
        <path id="Path_1328574" data-name="Path 1328574" d="M20.4,7.984H36.371V19.516H20.4Z" fill="#f9cb5d"/>
        <path id="Path_1328575" data-name="Path 1328575" d="M20.4,7.984v4.435a2.661,2.661,0,0,0,2.661-2.661,2.661,2.661,0,1,0,5.323,0,2.661,2.661,0,1,0,5.323,0,2.661,2.661,0,0,0,2.661,2.661V7.984Z" fill="#edb340"/>
        <path id="Path_1328576" data-name="Path 1328576" d="M26.613,14.194h3.548v5.323H26.613Z" fill="#3693cf"/>
        <path id="Path_1328577" data-name="Path 1328577" d="M17.742,7.984V7.1L20.4,1.774H36.371L39.032,7.1v.887a2.661,2.661,0,1,1-5.323,0,2.661,2.661,0,1,1-5.323,0,2.661,2.661,0,1,1-5.323,0,2.661,2.661,0,1,1-5.323,0Z" fill="#d53e7a"/>
        <path id="Path_1328578" data-name="Path 1328578" d="M33.71,7.1,31.935,1.774h4.435L39.032,7.1Z" fill="#df5b90"/>
        <path id="Path_1328579" data-name="Path 1328579" d="M33.71,7.1H28.387V1.774h3.548Z" fill="#f769a3"/>
        <path id="Path_1328580" data-name="Path 1328580" d="M23.065,7.1l1.774-5.323H20.4L17.742,7.1Z" fill="#f769a3"/>
        <path id="Path_1328581" data-name="Path 1328581" d="M28.387,7.1H33.71v.887a2.661,2.661,0,1,1-5.323,0Z" fill="#f74d8b"/>
        <path id="Path_1328582" data-name="Path 1328582" d="M17.742,7.1h5.323v.887a2.661,2.661,0,1,1-5.323,0Z" fill="#f74d8b"/>
        <path id="Path_1328583" data-name="Path 1328583" d="M38.145,47.9l-1.774,3.548H20.4L18.629,47.9Z" fill="#d7e0ef"/>
        <path id="Path_1328584" data-name="Path 1328584" d="M28.387,7.1H23.065l1.774-5.323h3.548Z" fill="#df5b90"/>
        <path id="Path_1328585" data-name="Path 1328585" d="M30.161,35.485,27.5,38.146l-1.774-9.759,9.758,1.775-2.661,2.661,3.548,3.548L33.71,39.033Z" fill="#e73844"/>
        <g id="Group_1207101" data-name="Group 1207101">
          <path id="Path_1328586" data-name="Path 1328586" d="M24.839,22.177h1.774v3.548H24.839Z" fill="#ff959d"/>
          <path id="Path_1328587" data-name="Path 1328587" d="M19.516,27.5h3.548v1.774H19.516Z" fill="#ff959d"/>
          <path id="Path_1328588" data-name="Path 1328588" d="M21.731,23.4H23.5v3.763H21.731Z" transform="translate(-11.252 23.401) rotate(-45)" fill="#ff959d"/>
          <path id="Path_1328589" data-name="Path 1328589" d="M27.074,24.338h3.613v1.774H27.074Z" transform="translate(-9.379 27.813) rotate(-45)" fill="#ff959d"/>
          <path id="Path_1328590" data-name="Path 1328590" d="M20.812,30.632H24.36v1.774H20.812Z" transform="translate(-15.674 25.206) rotate(-45)" fill="#ff959d"/>
        </g>
        <path id="Path_1328591" data-name="Path 1328591" d="M50.565,42.213V13.306a.887.887,0,0,0-.887-.887H37.258V11.406a3.548,3.548,0,0,0,2.661-3.422V7.1a.887.887,0,0,0-.089-.4L37.169,1.378a.887.887,0,0,0-.8-.491H20.4a.887.887,0,0,0-.794.491L16.948,6.7a.887.887,0,0,0-.093.4v.887a3.548,3.548,0,0,0,2.661,3.422v1.013H7.1a.887.887,0,0,0-.887.887V42.213L1.147,47.276a.887.887,0,0,0-.26.627,7.994,7.994,0,0,0,7.984,7.984H47.9A7.994,7.994,0,0,0,55.887,47.9a.887.887,0,0,0-.26-.627ZM29.274,18.629H27.5V15.081h1.774Zm.887-5.323H26.613a.887.887,0,0,0-.887.887v4.435H21.29v-7.22a3.548,3.548,0,0,0,1.774-1.08,3.544,3.544,0,0,0,5.323,0,3.544,3.544,0,0,0,5.323,0,3.548,3.548,0,0,0,1.774,1.08v7.22H31.048V14.194A.887.887,0,0,0,30.161,13.306Zm-.887-7.1V2.661H31.3L32.479,6.21Zm3.548,1.774a1.774,1.774,0,1,1-3.548,0ZM27.5,6.21H24.295l1.183-3.548H27.5Zm0,1.774a1.774,1.774,0,1,1-3.548,0Zm8.871,1.774A1.774,1.774,0,0,1,34.6,7.984h3.548A1.774,1.774,0,0,1,36.371,9.758ZM37.6,6.21H34.349L33.167,2.661h2.656ZM20.951,2.661h2.656L22.425,6.21H19.177ZM18.629,7.984h3.548a1.774,1.774,0,0,1-3.548,0Zm.887,6.21v5.323a.887.887,0,0,0,.887.887H36.371a.887.887,0,0,0,.887-.887V14.194H48.79v27.5H7.984v-27.5ZM7.464,43.468H49.31l3.548,3.548H3.916ZM36.71,48.79l-.887,1.774H20.951l-.887-1.774ZM47.9,54.113H8.871A6.217,6.217,0,0,1,2.728,48.79H18.081l1.528,3.058a.887.887,0,0,0,.794.491H36.371a.887.887,0,0,0,.8-.491l1.524-3.058H54.046A6.217,6.217,0,0,1,47.9,54.113Z"/>
        <path id="Path_1328592" data-name="Path 1328592" d="M25.1,27.76a.887.887,0,0,0-.246.786L26.627,38.3a.887.887,0,0,0,1.5.468l2.034-2.032,2.921,2.92a.887.887,0,0,0,1.254,0L37,37a.887.887,0,0,0,0-1.254l-2.921-2.922,2.034-2.034a.887.887,0,0,0-.468-1.5l-9.758-1.774a.887.887,0,0,0-.786.245Zm8.56,2.973L32.2,32.2a.887.887,0,0,0,0,1.254l2.921,2.92L33.71,37.779l-2.921-2.921a.887.887,0,0,0-1.254,0L28.07,36.322l-1.242-6.831Z"/>
        <path id="Path_1328593" data-name="Path 1328593" d="M24.839,22.177h1.774v3.548H24.839Z"/>
        <path id="Path_1328594" data-name="Path 1328594" d="M19.516,27.5h3.548v1.774H19.516Z"/>
        <path id="Path_1328595" data-name="Path 1328595" d="M21.731,23.4H23.5v3.763H21.731Z" transform="translate(-11.252 23.401) rotate(-45)"/>
        <path id="Path_1328596" data-name="Path 1328596" d="M27.074,24.338h3.613v1.774H27.074Z" transform="translate(-9.379 27.813) rotate(-45)"/>
        <path id="Path_1328597" data-name="Path 1328597" d="M20.812,30.632H24.36v1.774H20.812Z" transform="translate(-15.674 25.206) rotate(-45)"/>
      </g>
    </g>
  </g>
</svg>
