<svg xmlns="http://www.w3.org/2000/svg" xmlns:xlink="http://www.w3.org/1999/xlink" width="98" height="97.998" viewBox="0 0 98 97.998">
  <defs>
    <clipPath id="clip-path">
      <rect id="Rectangle_412572" data-name="Rectangle 412572" width="57" height="55" transform="translate(1140.051 3879)" fill="#fff" stroke="#707070" stroke-width="1"/>
    </clipPath>
  </defs>
  <g id="Group_1206220" data-name="Group 1206220" transform="translate(-1119.086 -3857.106)">
    <g id="Group_1204751" data-name="Group 1204751" transform="translate(1119.086 3857.106)">
      <g id="Group_1204438" data-name="Group 1204438">
        <g id="Group_1204285" data-name="Group 1204285">
          <g id="Group_1204180" data-name="Group 1204180">
            <g id="Group_1204143" data-name="Group 1204143">
              <g id="Group_1188789" data-name="Group 1188789" transform="translate(0)">
                <path id="Path_1243039" data-name="Path 1243039" d="M41.05,0h0a41.05,41.05,0,0,1,0,82.1h0a41.05,41.05,0,0,1,0-82.1Z" transform="translate(7.951 7.949)" fill="#ffc63f"/>
                <rect id="Rectangle_400907" data-name="Rectangle 400907" width="88.438" height="88.437" rx="44.218" transform="translate(4.782 4.781)" fill="none"/>
                <g id="Group_1098742" data-name="Group 1098742" transform="translate(0)">
                  <g id="Rectangle_400898" data-name="Rectangle 400898" transform="translate(0)" fill="none" stroke="#fff" stroke-width="2" opacity="0.859">
                    <rect width="98" height="97.999" rx="48.999" stroke="none"/>
                    <rect x="1" y="1" width="96" height="95.999" rx="47.999" fill="none"/>
                  </g>
                  <g id="Rectangle_400907-2" data-name="Rectangle 400907" transform="translate(0)" fill="none" stroke="#0f1f33" stroke-linecap="round" stroke-width="2">
                    <rect width="98" height="97.999" rx="48.999" stroke="none"/>
                    <rect x="1" y="1" width="96" height="95.999" rx="47.999" fill="none"/>
                  </g>
                </g>
              </g>
            </g>
          </g>
        </g>
      </g>
    </g>
    <g id="Mask_Group_1099541" data-name="Mask Group 1099541" clip-path="url(#clip-path)">
      <g id="_x32_5_Chat_notification" transform="translate(1140.995 3878.944)">
        <g id="Group_1207138" data-name="Group 1207138">
          <path id="Path_1328708" data-name="Path 1328708" d="M33.938,3.027V52.082a2.323,2.323,0,0,1-2.323,2.323H5.028a2.323,2.323,0,0,1-2.323-2.323V3.027A2.323,2.323,0,0,1,5.028.7H31.615a2.323,2.323,0,0,1,2.323,2.323Z" fill="#e6e8e7"/>
          <path id="Path_1328709" data-name="Path 1328709" d="M2.705,46.737v5.345a2.323,2.323,0,0,0,2.323,2.323H31.615a2.323,2.323,0,0,0,2.323-2.323V46.737Z" fill="#405d6b"/>
          <path id="Path_1328710" data-name="Path 1328710" d="M33.936,3.027V52.085a2.321,2.321,0,0,1-2.321,2.321H27.6a2.321,2.321,0,0,0,2.321-2.321V3.027A2.321,2.321,0,0,0,27.6.705h4.01a2.321,2.321,0,0,1,2.321,2.321Z" opacity="0.1"/>
          <path id="Path_1328711" data-name="Path 1328711" d="M33.922,15c-8.009,0-14.5,4.658-14.5,10.4,0,3.239,2.067,6.131,5.3,8.039a8.633,8.633,0,0,1-3.1,2.68.845.845,0,0,0,.3,1.581,12.628,12.628,0,0,0,8.436-2.23,19.909,19.909,0,0,0,3.568.33c8.008,0,14.5-4.658,14.5-10.4S41.93,15,33.922,15Z" fill="#37d0f9"/>
          <path id="Path_1328712" data-name="Path 1328712" d="M48.427,25.4c0,5.742-6.5,10.4-14.508,10.4q-.884,0-1.741-.078C39.35,35.091,44.9,30.709,44.9,25.4s-5.561-9.7-12.741-10.324c.572-.052,1.161-.078,1.758-.078,8.012,0,14.508,4.66,14.508,10.4Z" opacity="0.1"/>
          <path id="Path_1328713" data-name="Path 1328713" d="M49.52,15.728a5.339,5.339,0,1,1-5.339-5.339A5.34,5.34,0,0,1,49.52,15.728Z" fill="#fd4746"/>
          <path id="Path_1328714" data-name="Path 1328714" d="M45.921,17.621a.484.484,0,0,1,0,.688.5.5,0,0,1-.341.132H42.811a.577.577,0,0,1-.395-.156.552.552,0,0,1-.155-.389,1.321,1.321,0,0,1,.251-.789,2.419,2.419,0,0,1,.568-.592c.185-.15.443-.329.831-.586.269-.167.5-.323.676-.46a1.9,1.9,0,0,0,.4-.389.674.674,0,0,0-.078-.9,1.146,1.146,0,0,0-.748-.191,2.914,2.914,0,0,0-1.154.239.427.427,0,0,1-.52-.084.414.414,0,0,1-.126-.317.457.457,0,0,1,.245-.419,3.738,3.738,0,0,1,1.674-.383,2.048,2.048,0,0,1,.909.2,1.7,1.7,0,0,1,.67.574,1.586,1.586,0,0,1,.239.855,1.546,1.546,0,0,1-.275.885,2.955,2.955,0,0,1-.628.67c-.221.179-.514.383-.9.64-.347.227-.586.4-.742.526a1.172,1.172,0,0,0-.126.108H45.58a.466.466,0,0,1,.341.144Z"/>
          <path id="Path_1328715" data-name="Path 1328715" d="M31.615.056H5.025A2.974,2.974,0,0,0,2.053,3.027V52.085a2.974,2.974,0,0,0,2.971,2.971H31.615a2.977,2.977,0,0,0,2.972-2.973c0-1.6,0,5.8,0-15.656,8.047-.257,14.49-5.1,14.49-11.028a8.685,8.685,0,0,0-1.47-4.761,5.986,5.986,0,1,0-9.337-5.821,20.269,20.269,0,0,0-3.683-.449V3.026A2.973,2.973,0,0,0,31.615.056ZM5.025,1.355H31.615a1.673,1.673,0,0,1,1.671,1.671V14.371c-8.059.244-14.516,5.09-14.516,11.028,0,3.162,1.811,6.12,5,8.21a8.089,8.089,0,0,1-2.443,1.934,1.448,1.448,0,0,0-.773,1.577,1.484,1.484,0,0,0,1.289,1.224,11.422,11.422,0,0,0,1.31.074A13.545,13.545,0,0,0,30.5,36.157a20.681,20.681,0,0,0,2.791.267v9.663H3.352V3.026A1.674,1.674,0,0,1,5.025,1.355Zm26.591,52.4H5.028a1.675,1.675,0,0,1-1.673-1.673v-4.7H33.287v4.7a1.672,1.672,0,0,1-1.671,1.67ZM47.777,25.4c0,5.378-6.217,9.753-13.858,9.753a19.293,19.293,0,0,1-3.451-.32.658.658,0,0,0-.484.1,12.011,12.011,0,0,1-7.993,2.116.183.183,0,0,1-.161-.163.159.159,0,0,1,.091-.192,9.29,9.29,0,0,0,3.331-2.886.649.649,0,0,0-.2-.935c-3.165-1.862-4.98-4.588-4.98-7.478,0-5.378,6.213-9.752,13.849-9.752a19.08,19.08,0,0,1,4.294.488,5.977,5.977,0,0,0,8.249,5.133A7.42,7.42,0,0,1,47.777,25.4Zm-3.6-14.36a4.691,4.691,0,1,1-4.69,4.689A4.695,4.695,0,0,1,44.181,11.039Z"/>
          <path id="Path_1328716" data-name="Path 1328716" d="M23.44,4.238h.688a.65.65,0,0,0,0-1.3H23.44a.65.65,0,0,0,0,1.3Z"/>
          <path id="Path_1328717" data-name="Path 1328717" d="M12.516,4.238h6.751a.65.65,0,0,0,0-1.3H12.516a.65.65,0,1,0,0,1.3Z"/>
          <path id="Path_1328718" data-name="Path 1328718" d="M19.365,49.921H17.277a.65.65,0,0,0,0,1.3h2.088a.65.65,0,1,0,0-1.3Z"/>
          <path id="Path_1328719" data-name="Path 1328719" d="M42.059,28.717H25.785a.65.65,0,1,0,0,1.3H42.059a.65.65,0,0,0,0-1.3Z"/>
          <path id="Path_1328720" data-name="Path 1328720" d="M42.059,24.748H25.785a.65.65,0,1,0,0,1.3H42.059a.65.65,0,0,0,0-1.3Z"/>
          <path id="Path_1328721" data-name="Path 1328721" d="M25.785,22.079h10.1a.65.65,0,0,0,0-1.3h-10.1a.65.65,0,1,0,0,1.3Z"/>
          <path id="Path_1328722" data-name="Path 1328722" d="M44.831,8.177V7.5a.65.65,0,1,0-1.3,0v.674a.65.65,0,1,0,1.3,0Z"/>
          <path id="Path_1328723" data-name="Path 1328723" d="M49.574,9.418l-.512.512a.65.65,0,1,0,.919.919l.512-.512a.65.65,0,1,0-.919-.919Z"/>
          <path id="Path_1328724" data-name="Path 1328724" d="M52.409,16.38a.65.65,0,0,0,0-1.3h-.674a.65.65,0,0,0,0,1.3Z"/>
          <path id="Path_1328725" data-name="Path 1328725" d="M50.493,22.043a.649.649,0,0,0,0-.919l-.512-.512a.65.65,0,0,0-.919.919l.512.512a.649.649,0,0,0,.919,0Z"/>
          <path id="Path_1328726" data-name="Path 1328726" d="M38.84,11.039A.65.65,0,0,0,39.3,9.93l-.512-.512a.65.65,0,1,0-.919.919l.512.512a.647.647,0,0,0,.459.19Z"/>
          <path id="Path_1328727" data-name="Path 1328727" d="M44.587,15.468c-.179.138-.407.293-.676.46-.389.257-.646.436-.831.586a2.42,2.42,0,0,0-.568.592,1.321,1.321,0,0,0-.251.789.552.552,0,0,0,.155.389.577.577,0,0,0,.395.155H45.58a.5.5,0,0,0,.341-.132.487.487,0,0,0-.341-.831H43.427a1.171,1.171,0,0,1,.126-.108c.156-.126.395-.3.742-.526.389-.257.682-.46.9-.64a2.957,2.957,0,0,0,.628-.67,1.547,1.547,0,0,0,.275-.885,1.586,1.586,0,0,0-.239-.855,1.7,1.7,0,0,0-.67-.574,2.049,2.049,0,0,0-.909-.2,3.736,3.736,0,0,0-1.674.383.457.457,0,0,0-.245.419.414.414,0,0,0,.126.317.427.427,0,0,0,.52.084,2.914,2.914,0,0,1,1.154-.239,1.146,1.146,0,0,1,.748.191.674.674,0,0,1,.078.9,1.9,1.9,0,0,1-.4.389Z"/>
        </g>
      </g>
    </g>
  </g>
</svg>
