<svg xmlns="http://www.w3.org/2000/svg" xmlns:xlink="http://www.w3.org/1999/xlink" width="98" height="97.998" viewBox="0 0 98 97.998">
  <defs>
    <clipPath id="clip-path">
      <rect id="Rectangle_412572" data-name="Rectangle 412572" width="57" height="55" transform="translate(1140.051 3879)" fill="#fff" stroke="#707070" stroke-width="1"/>
    </clipPath>
  </defs>
  <g id="Group_1206569" data-name="Group 1206569" transform="translate(-1119.086 -3857.106)">
    <g id="Group_1204751" data-name="Group 1204751" transform="translate(1119.086 3857.106)">
      <g id="Group_1204438" data-name="Group 1204438">
        <g id="Group_1204285" data-name="Group 1204285">
          <g id="Group_1204180" data-name="Group 1204180">
            <g id="Group_1204143" data-name="Group 1204143">
              <g id="Group_1188789" data-name="Group 1188789" transform="translate(0)">
                <path id="Path_1243039" data-name="Path 1243039" d="M41.05,0h0a41.05,41.05,0,0,1,0,82.1h0a41.05,41.05,0,0,1,0-82.1Z" transform="translate(7.951 7.949)" fill="#ffc63f"/>
                <rect id="Rectangle_400907" data-name="Rectangle 400907" width="88.438" height="88.437" rx="44.218" transform="translate(4.782 4.781)" fill="none"/>
                <g id="Group_1098742" data-name="Group 1098742" transform="translate(0)">
                  <g id="Rectangle_400898" data-name="Rectangle 400898" transform="translate(0)" fill="none" stroke="#fff" stroke-width="2" opacity="0.859">
                    <rect width="98" height="97.999" rx="48.999" stroke="none"/>
                    <rect x="1" y="1" width="96" height="95.999" rx="47.999" fill="none"/>
                  </g>
                  <g id="Rectangle_400907-2" data-name="Rectangle 400907" transform="translate(0)" fill="none" stroke="#0f1f33" stroke-linecap="round" stroke-width="2">
                    <rect width="98" height="97.999" rx="48.999" stroke="none"/>
                    <rect x="1" y="1" width="96" height="95.999" rx="47.999" fill="none"/>
                  </g>
                </g>
              </g>
            </g>
          </g>
        </g>
      </g>
    </g>
    <g id="Mask_Group_1099549" data-name="Mask Group 1099549" clip-path="url(#clip-path)">
      <g id="tech-support_2653577" transform="translate(1140.164 3878.113)">
        <g id="Group_1207207" data-name="Group 1207207">
          <g id="Group_1207194" data-name="Group 1207194">
            <path id="Path_1328868" data-name="Path 1328868" d="M53.1,8.862a14.19,14.19,0,0,0-26.48,6.689,5.737,5.737,0,0,1,.506.417,14.207,14.207,0,0,1,4.808,10.645v.435A14.2,14.2,0,0,0,53.1,8.862Z" fill="#69d6f4"/>
          </g>
          <g id="Group_1207195" data-name="Group 1207195">
            <path id="Path_1328869" data-name="Path 1328869" d="M51.452,44.355H55V55H51.452Z" fill="#b4dd7f"/>
          </g>
          <g id="Group_1207196" data-name="Group 1207196">
            <path id="Path_1328870" data-name="Path 1328870" d="M44.355,37.258H47.9V55H44.355Z" fill="#b4dd7f"/>
          </g>
          <g id="Group_1207197" data-name="Group 1207197">
            <path id="Path_1328871" data-name="Path 1328871" d="M37.258,40.806h3.548V55H37.258Z" fill="#b4dd7f"/>
          </g>
          <g id="Group_1207198" data-name="Group 1207198">
            <path id="Path_1328872" data-name="Path 1328872" d="M19.516,7.1v7.1a1.779,1.779,0,0,1-1.774,1.774H12.419v2.448a1.1,1.1,0,0,1-2.076.5L8.871,15.968H7.1a1.779,1.779,0,0,1-1.774-1.774V7.1A1.779,1.779,0,0,1,7.1,5.323H17.742A1.779,1.779,0,0,1,19.516,7.1Z" fill="#e6e9ed"/>
          </g>
          <g id="Group_1207199" data-name="Group 1207199">
            <path id="Path_1328873" data-name="Path 1328873" d="M7.1,34.6v8.871H6.21a4.441,4.441,0,0,1-3.14-7.576,4.162,4.162,0,0,1,.479-.408A4.383,4.383,0,0,1,6.21,34.6Z" fill="#fcd770"/>
          </g>
          <g id="Group_1207200" data-name="Group 1207200">
            <path id="Path_1328874" data-name="Path 1328874" d="M31.935,35.484a4.432,4.432,0,0,1-2.661,7.984h-.887V34.6h.887A4.383,4.383,0,0,1,31.935,35.484Z" fill="#fcd770"/>
          </g>
          <g id="Group_1207201" data-name="Group 1207201">
            <path id="Path_1328875" data-name="Path 1328875" d="M28.387,49.677v1.774A3.547,3.547,0,0,1,24.839,55H10.645A3.547,3.547,0,0,1,7.1,51.452V49.677h21.29Z" fill="#969faa"/>
          </g>
          <g id="Group_1207202" data-name="Group 1207202">
            <path id="Path_1328876" data-name="Path 1328876" d="M28.387,26.613v3.548H7.1V26.613a3.547,3.547,0,0,1,3.548-3.548H24.839A3.547,3.547,0,0,1,28.387,26.613Z" fill="#969faa"/>
          </g>
          <g id="Group_1207203" data-name="Group 1207203">
            <path id="Path_1328877" data-name="Path 1328877" d="M7.1,30.161V49.677h21.29V30.161Z" fill="#69d6f4"/>
          </g>
          <g id="Group_1207204" data-name="Group 1207204">
            <path id="Path_1328878" data-name="Path 1328878" d="M24.839,47.9v1.774H10.645V47.9a7.114,7.114,0,0,1,3.992-6.387l3.1,3.726,3.1-3.717a7.293,7.293,0,0,1,1.916,1.357A7.11,7.11,0,0,1,24.839,47.9Z" fill="#ff826e"/>
          </g>
          <g id="Group_1207205" data-name="Group 1207205">
            <path id="Path_1328879" data-name="Path 1328879" d="M20.847,41.525l-3.1,3.717-3.1-3.726a7.124,7.124,0,0,1,3.1-.71A7.007,7.007,0,0,1,20.847,41.525Z" fill="#f0d0b4"/>
          </g>
          <g id="Group_1207206" data-name="Group 1207206">
            <circle id="Ellipse_13034" data-name="Ellipse 13034" cx="3.548" cy="3.548" r="3.548" transform="translate(14.194 33.71)" fill="#f0d0b4"/>
          </g>
        </g>
        <g id="Group_1207208" data-name="Group 1207208">
          <path id="Path_1328880" data-name="Path 1328880" d="M32.823,35.076V28.746a15.077,15.077,0,1,0-6.942-14.823,14.946,14.946,0,0,0-5.478-2.14V7.1a2.665,2.665,0,0,0-2.661-2.661H7.1A2.665,2.665,0,0,0,4.435,7.1v7.1A2.657,2.657,0,0,0,6.364,16.74a15.079,15.079,0,0,0-3.7,9.873v8.463A5.315,5.315,0,0,0,6.21,44.355v7.1a4.441,4.441,0,0,0,4.435,4.435H24.839a4.441,4.441,0,0,0,4.435-4.435v-7.1a5.315,5.315,0,0,0,3.548-9.279ZM40.806,2.661c1.98,0,3.774,2.118,4.92,5.323h-9.84c1.146-3.205,2.94-5.323,4.92-5.323Zm5.464,7.1a25.161,25.161,0,0,1,.724,5.323H34.618a25.161,25.161,0,0,1,.724-5.323Zm7.8,5.323h-5.3A26.982,26.982,0,0,0,48.1,9.758h4.466a13.2,13.2,0,0,1,1.5,5.323ZM40.806,29.274c-1.98,0-3.774-2.118-4.92-5.323h9.84c-1.146,3.205-2.94,5.323-4.92,5.323Zm-8.225-5.323h1.426a14.73,14.73,0,0,0,2.3,4.544,13.186,13.186,0,0,1-3.483-1.9,15.166,15.166,0,0,0-.241-2.647Zm2.762-1.774a25.16,25.16,0,0,1-.724-5.323H46.995a25.161,25.161,0,0,1-.724,5.323Zm13.424-5.323h5.3a13.2,13.2,0,0,1-1.5,5.323H48.1a26.982,26.982,0,0,0,.667-5.323ZM32.846,15.081h-5.3a13.2,13.2,0,0,1,1.5-5.323h4.466A26.982,26.982,0,0,0,32.846,15.081Zm0,1.774a26.982,26.982,0,0,0,.667,5.323H32.144a15.1,15.1,0,0,0-2.922-5.323ZM45.329,28.466a14.774,14.774,0,0,0,2.276-4.514h3.822A13.348,13.348,0,0,1,45.329,28.466Zm6.1-20.482H47.605a14.774,14.774,0,0,0-2.276-4.514A13.348,13.348,0,0,1,51.427,7.984ZM36.284,3.469a14.774,14.774,0,0,0-2.276,4.514H30.186A13.348,13.348,0,0,1,36.284,3.469ZM6.21,7.1A.887.887,0,0,1,7.1,6.21H17.742a.887.887,0,0,1,.887.887v7.1a.887.887,0,0,1-.887.887h-6.21V18.42a.217.217,0,0,1-.4.093L9.419,15.081H7.1a.887.887,0,0,1-.887-.887ZM4.435,26.613a13.3,13.3,0,0,1,4.017-9.5l1.1,2.194a1.983,1.983,0,0,0,3.757-.888V16.855h4.435A2.665,2.665,0,0,0,20.4,14.194v-.612A13.317,13.317,0,0,1,31.048,26.613V34.02a5.3,5.3,0,0,0-1.774-.31v-7.1a4.441,4.441,0,0,0-4.435-4.435H10.645A4.441,4.441,0,0,0,6.21,26.613v7.1a5.3,5.3,0,0,0-1.774.31ZM15.081,37.258a2.661,2.661,0,1,1,2.661,2.661A2.665,2.665,0,0,1,15.081,37.258Zm2.661,4.435a6.193,6.193,0,0,1,1.617.221l-1.617,1.942-1.617-1.941A6.156,6.156,0,0,1,17.742,41.694Zm-3.308.964,3.308,3.971,3.309-3.97a6.2,6.2,0,0,1,2.9,5.245v.887H11.532V47.9A6.2,6.2,0,0,1,14.434,42.658Zm6.3-2.15a4.436,4.436,0,1,0-5.991,0,7.993,7.993,0,0,0-4.988,7.4v.887H7.984V31.048H27.5V48.79H25.726V47.9a7.993,7.993,0,0,0-4.988-7.4ZM27.5,29.274H7.984V26.613a2.665,2.665,0,0,1,2.661-2.661H24.839A2.665,2.665,0,0,1,27.5,26.613ZM2.661,39.032A3.552,3.552,0,0,1,6.21,35.484v7.1A3.552,3.552,0,0,1,2.661,39.032ZM24.839,54.113H10.645a2.665,2.665,0,0,1-2.661-2.661v-.887H27.5v.887A2.665,2.665,0,0,1,24.839,54.113Zm4.435-11.532v-7.1a3.548,3.548,0,1,1,0,7.1Z"/>
          <path id="Path_1328881" data-name="Path 1328881" d="M15.081,25.726H20.4V27.5H15.081Z"/>
          <path id="Path_1328882" data-name="Path 1328882" d="M7.984,9.758H9.758v1.774H7.984Z"/>
          <path id="Path_1328883" data-name="Path 1328883" d="M11.532,9.758h1.774v1.774H11.532Z"/>
          <path id="Path_1328884" data-name="Path 1328884" d="M15.081,9.758h1.774v1.774H15.081Z"/>
          <path id="Path_1328885" data-name="Path 1328885" d="M50.565,54.113H48.79V36.371H43.468V54.113H41.694V39.919H36.371V55.887H55.887V43.468H50.565Zm-10.645,0H38.145V41.694h1.774Zm5.323-15.968h1.774V54.113H45.242Zm7.1,7.1h1.774v8.871H52.339Z"/>
        </g>
      </g>
    </g>
  </g>
</svg>
