<svg xmlns="http://www.w3.org/2000/svg" xmlns:xlink="http://www.w3.org/1999/xlink" width="98" height="97.999" viewBox="0 0 98 97.999">
  <defs>
    <clipPath id="clip-path">
      <rect id="Rectangle_412572" data-name="Rectangle 412572" width="57" height="55" transform="translate(1140.051 3879)" fill="#fff" stroke="#707070" stroke-width="1"/>
    </clipPath>
  </defs>
  <g id="Group_1204760" data-name="Group 1204760" transform="translate(-1119.086 -3857.106)">
    <g id="Group_1204751" data-name="Group 1204751" transform="translate(1119.086 3857.106)">
      <g id="Group_1204438" data-name="Group 1204438">
        <g id="Group_1204285" data-name="Group 1204285">
          <g id="Group_1204180" data-name="Group 1204180">
            <g id="Group_1204143" data-name="Group 1204143">
              <g id="Group_1188789" data-name="Group 1188789" transform="translate(0)">
                <path id="Path_1243039" data-name="Path 1243039" d="M41.05,0h0a41.05,41.05,0,0,1,0,82.1h0a41.05,41.05,0,0,1,0-82.1Z" transform="translate(7.951 7.949)" fill="#ffc63f"/>
                <rect id="Rectangle_400907" data-name="Rectangle 400907" width="88.438" height="88.437" rx="44.218" transform="translate(4.782 4.781)" fill="none"/>
                <g id="Group_1098742" data-name="Group 1098742" transform="translate(0)">
                  <g id="Rectangle_400898" data-name="Rectangle 400898" transform="translate(0)" fill="none" stroke="#fff" stroke-width="2" opacity="0.859">
                    <rect width="98" height="97.999" rx="48.999" stroke="none"/>
                    <rect x="1" y="1" width="96" height="95.999" rx="47.999" fill="none"/>
                  </g>
                  <g id="Rectangle_400907-2" data-name="Rectangle 400907" transform="translate(0)" fill="none" stroke="#0f1f33" stroke-linecap="round" stroke-width="2">
                    <rect width="98" height="97.999" rx="48.999" stroke="none"/>
                    <rect x="1" y="1" width="96" height="95.999" rx="47.999" fill="none"/>
                  </g>
                </g>
              </g>
            </g>
          </g>
        </g>
      </g>
    </g>
    <g id="Mask_Group_1099528" data-name="Mask Group 1099528" clip-path="url(#clip-path)">
      <g id="channel_18308543" transform="translate(1139.012 3876.961)">
        <path id="Path_1328484" data-name="Path 1328484" d="M9.285,14.212a.921.921,0,0,1,.412-1.8l17.865,4.1L49.313,9.708a.92.92,0,0,1,1.155.605.9.9,0,0,1,.026.455L46.506,34.582a.92.92,0,0,1-1.815-.3l3.742-22.362-20.56,6.43a.917.917,0,0,1-.481.02L9.285,14.212Z" fill="#666"/>
        <g id="Group_1207098" data-name="Group 1207098">
          <path id="Path_1328485" data-name="Path 1328485" d="M27.6,11.553a5.914,5.914,0,1,1-5.914,5.914A5.914,5.914,0,0,1,27.6,11.553Z" fill="#3cb54b" fill-rule="evenodd"/>
          <path id="Path_1328486" data-name="Path 1328486" d="M27.6,23.38a5.914,5.914,0,0,1,0-11.827V23.38Z" fill="#62c36d" fill-rule="evenodd"/>
          <path id="Path_1328487" data-name="Path 1328487" d="M18.07,50.626a10.469,10.469,0,0,1-4.324-8.462V36.444a2.092,2.092,0,0,1,4.183,0V32.888a2.093,2.093,0,0,1,4.187,0v-4.4a2.092,2.092,0,0,1,4.183,0V23.053a2.093,2.093,0,1,1,4.187,0V35.191a2.092,2.092,0,1,1,4.183,0v6.973a10.472,10.472,0,0,1-4.327,8.462H18.07Z" fill="#efc9ae" fill-rule="evenodd"/>
          <path id="Path_1328488" data-name="Path 1328488" d="M17.929,36.443V32.888a2.091,2.091,0,0,1,.808-1.649v8.867a.81.81,0,0,1-.808.808Zm4.187-3.555v-4.4a2.093,2.093,0,0,1,.8-1.649V40.107a.807.807,0,0,1-.8.808Zm4.183-4.4V23.053a2.091,2.091,0,0,1,.808-1.649v18.7a.81.81,0,0,1-.808.808Zm4.187,6.7a2.077,2.077,0,0,1,.808-1.649v6.564a.81.81,0,0,1-.808.808Z" fill="#e2b698" fill-rule="evenodd"/>
          <path id="Path_1328489" data-name="Path 1328489" d="M15.355,54.508v-2.26a1.626,1.626,0,0,1,1.622-1.622H31.434a1.629,1.629,0,0,1,1.626,1.622v2.26a1.632,1.632,0,0,1-1.626,1.626H16.977A1.629,1.629,0,0,1,15.355,54.508Z" fill="#f2992c" fill-rule="evenodd"/>
          <path id="Path_1328490" data-name="Path 1328490" d="M15.355,53.131v-.883a1.626,1.626,0,0,1,1.622-1.622H31.434a1.629,1.629,0,0,1,1.626,1.622v.883a1.632,1.632,0,0,1-1.626,1.626H16.977A1.629,1.629,0,0,1,15.355,53.131Z" fill="#f3a328" fill-rule="evenodd"/>
          <path id="Path_1328491" data-name="Path 1328491" d="M45.6,26.785a7.644,7.644,0,1,1-7.647,7.644A7.645,7.645,0,0,1,45.6,26.785Z" fill="#ee2b39" fill-rule="evenodd"/>
          <path id="Path_1328492" data-name="Path 1328492" d="M45.6,26.785a7.645,7.645,0,0,1,7.644,7.644H37.953A7.645,7.645,0,0,1,45.6,26.785Z" fill="#f2535f" fill-rule="evenodd"/>
          <path id="Path_1328493" data-name="Path 1328493" d="M9.491,5.669a7.645,7.645,0,0,1,4.5,13.822l-1.1,4.988-3.4-3.519a7.645,7.645,0,0,1,0-15.291Z" fill="#11bef7" fill-rule="evenodd"/>
          <path id="Path_1328494" data-name="Path 1328494" d="M9.491,20.96a7.645,7.645,0,0,1,0-15.291V20.96Z" fill="#3ecbf9" fill-rule="evenodd"/>
          <path id="Path_1328495" data-name="Path 1328495" d="M6.511,14.843a1.732,1.732,0,1,0-1.73-1.73A1.733,1.733,0,0,0,6.511,14.843Z" fill="#fff" fill-rule="evenodd"/>
          <path id="Path_1328496" data-name="Path 1328496" d="M12.107,14.843a1.732,1.732,0,1,0-1.73-1.73A1.733,1.733,0,0,0,12.107,14.843Z" fill="#ebebeb" fill-rule="evenodd"/>
          <path id="Path_1328497" data-name="Path 1328497" d="M45.077,38.01,49.6,35.2a.91.91,0,0,0,0-1.544l-4.523-2.81a.909.909,0,0,0-1.387.772v5.619a.906.906,0,0,0,1.387.772Z" fill="#ebebeb" fill-rule="evenodd"/>
          <path id="Path_1328498" data-name="Path 1328498" d="M50.029,34.429a.888.888,0,0,0-.428-.772l-4.523-2.81a.909.909,0,0,0-1.387.772v2.81Z" fill="#fff" fill-rule="evenodd"/>
          <path id="Path_1328499" data-name="Path 1328499" d="M48.04,2.944a9.191,9.191,0,1,1-9.191,9.191A9.191,9.191,0,0,1,48.04,2.944Z" fill="#7985eb" fill-rule="evenodd"/>
          <path id="Path_1328500" data-name="Path 1328500" d="M43.808,8.926h8.465a.452.452,0,0,1,.451.451v5.515a.454.454,0,0,1-.451.451H43.808a.454.454,0,0,1-.451-.451V9.378a.452.452,0,0,1,.451-.451Z" fill="#ccc" fill-rule="evenodd"/>
          <path id="Path_1328501" data-name="Path 1328501" d="M43.752,8.926h8.576a.373.373,0,0,1,.285.137L48.04,14.287,43.468,9.064a.373.373,0,0,1,.285-.137Z" fill="#e6e6e6" fill-rule="evenodd"/>
          <path id="Path_1328502" data-name="Path 1328502" d="M48.04,21.326a9.191,9.191,0,0,1,0-18.382V21.326Z" fill="#929cef" fill-rule="evenodd"/>
          <path id="Path_1328503" data-name="Path 1328503" d="M43.808,8.926H48.04v6.417H43.808a.454.454,0,0,1-.451-.451V9.378a.452.452,0,0,1,.451-.451Z" fill="#d6d6d6" fill-rule="evenodd"/>
          <path id="Path_1328504" data-name="Path 1328504" d="M43.752,8.926H48.04v5.361L43.468,9.064a.373.373,0,0,1,.285-.137Z" fill="#ebebeb" fill-rule="evenodd"/>
          <path id="Path_1328505" data-name="Path 1328505" d="M33.243,16.508A.807.807,0,0,1,33,14.932l5.776-1.809a.808.808,0,0,1,.481,1.544l-5.773,1.805a.775.775,0,0,1-.242.036Zm-11.408.445a.874.874,0,0,1-.183-.02l-4.89-1.122a.809.809,0,0,1,.363-1.577l4.89,1.122a.809.809,0,0,1-.18,1.6ZM46.863,27.7a.6.6,0,0,1-.134-.013.8.8,0,0,1-.664-.929l.929-5.567a.809.809,0,0,1,1.6.268l-.932,5.567A.809.809,0,0,1,46.863,27.7Z" fill-rule="evenodd"/>
          <path id="Path_1328506" data-name="Path 1328506" d="M23.27,22.3a.8.8,0,0,1-.592-.258,6.719,6.719,0,1,1,10.581-.952A.808.808,0,0,1,31.9,20.22a5.106,5.106,0,1,0-8.04.726A.806.806,0,0,1,23.27,22.3Z" fill-rule="evenodd"/>
          <path id="Path_1328507" data-name="Path 1328507" d="M18.07,51.434a.808.808,0,0,1-.474-.157,11.314,11.314,0,0,1-4.658-9.112V36.443a2.9,2.9,0,0,1,4.183-2.6v-.958a2.9,2.9,0,0,1,4.187-2.6v-1.8a2.9,2.9,0,0,1,4.183-2.6V23.053a2.9,2.9,0,0,1,5.8,0v9.538a2.858,2.858,0,0,1,1.282-.3,2.9,2.9,0,0,1,2.9,2.9v6.973a11.314,11.314,0,0,1-4.658,9.112.808.808,0,1,1-.952-1.305,9.7,9.7,0,0,0,3.994-7.807V35.191a1.284,1.284,0,1,0-2.568,0,.808.808,0,1,1-1.616,0V23.053a1.285,1.285,0,0,0-2.571,0v5.439a.808.808,0,0,1-1.616,0,1.284,1.284,0,1,0-2.568,0v4.4a.808.808,0,0,1-1.616,0,1.285,1.285,0,1,0-2.571,0v3.555a.808.808,0,1,1-1.616,0,1.285,1.285,0,0,0-2.571,0v5.721a9.7,9.7,0,0,0,4,7.807.809.809,0,0,1-.477,1.462Z" fill-rule="evenodd"/>
          <path id="Path_1328508" data-name="Path 1328508" d="M16.163,55.326H32.252V51.434H16.163Zm16.9,1.616h-17.7a.808.808,0,0,1-.808-.808V50.626a.805.805,0,0,1,.808-.808h17.7a.808.808,0,0,1,.808.808v5.508A.81.81,0,0,1,33.06,56.942Z" fill-rule="evenodd"/>
          <path id="Path_1328509" data-name="Path 1328509" d="M30.486,40.915a.808.808,0,0,1-.808-.808V35.191a.808.808,0,0,1,1.616,0v4.916A.81.81,0,0,1,30.486,40.915Z" fill-rule="evenodd"/>
          <path id="Path_1328510" data-name="Path 1328510" d="M26.3,40.915a.81.81,0,0,1-.808-.808V28.492a.808.808,0,0,1,1.616,0V40.107A.81.81,0,0,1,26.3,40.915Z" fill-rule="evenodd"/>
          <path id="Path_1328511" data-name="Path 1328511" d="M22.116,40.915a.808.808,0,0,1-.808-.808V32.888a.808.808,0,0,1,1.616,0v7.219A.81.81,0,0,1,22.116,40.915Z" fill-rule="evenodd"/>
          <path id="Path_1328512" data-name="Path 1328512" d="M17.929,40.915a.81.81,0,0,1-.808-.808V36.443a.808.808,0,0,1,1.616,0v3.663A.81.81,0,0,1,17.929,40.915Z" fill-rule="evenodd"/>
          <path id="Path_1328513" data-name="Path 1328513" d="M48.04,3.749a8.385,8.385,0,1,0,8.383,8.386A8.394,8.394,0,0,0,48.04,3.749Zm0,18.385a10,10,0,1,1,10-10A10.009,10.009,0,0,1,48.04,22.134Z" fill-rule="evenodd"/>
          <path id="Path_1328514" data-name="Path 1328514" d="M45.6,27.593a6.836,6.836,0,1,0,6.836,6.836A6.846,6.846,0,0,0,45.6,27.593Zm0,15.288a8.452,8.452,0,1,1,8.452-8.452A8.463,8.463,0,0,1,45.6,42.88Z" fill-rule="evenodd"/>
          <path id="Path_1328515" data-name="Path 1328515" d="M9.491,6.477a6.836,6.836,0,0,0,0,13.672.818.818,0,0,1,.582.249l2.358,2.437.775-3.516a.805.805,0,0,1,.311-.478A6.838,6.838,0,0,0,9.491,6.476Zm3.4,18.81a.812.812,0,0,1-.579-.245L9.141,21.758a8.446,8.446,0,1,1,5.58-1.8l-1.034,4.7a.812.812,0,0,1-.569.6.735.735,0,0,1-.222.033Z" fill-rule="evenodd"/>
          <path id="Path_1328516" data-name="Path 1328516" d="M6.511,12.187a.924.924,0,1,0,.922.926A.926.926,0,0,0,6.511,12.187Zm0,3.464a2.54,2.54,0,1,1,2.538-2.538,2.543,2.543,0,0,1-2.538,2.538Z" fill-rule="evenodd"/>
          <path id="Path_1328517" data-name="Path 1328517" d="M12.107,12.187a.924.924,0,1,0,.922.926A.926.926,0,0,0,12.107,12.187Zm0,3.464a2.54,2.54,0,1,1,2.538-2.538A2.543,2.543,0,0,1,12.107,15.651Z" fill-rule="evenodd"/>
          <path id="Path_1328518" data-name="Path 1328518" d="M44.6,31.514a.121.121,0,0,0-.052.016.083.083,0,0,0-.049.088v5.619a.081.081,0,0,0,.049.088.084.084,0,0,0,.1,0l4.523-2.81a.081.081,0,0,0,.046-.085.084.084,0,0,0-.046-.085l-4.523-2.81a.1.1,0,0,0-.052-.02Zm0,7.444a1.72,1.72,0,0,1-1.717-1.72V31.619a1.714,1.714,0,0,1,2.62-1.455l4.527,2.81a1.718,1.718,0,0,1,0,2.914L45.5,38.7a1.719,1.719,0,0,1-.9.262Z" fill-rule="evenodd"/>
          <path id="Path_1328519" data-name="Path 1328519" d="M52.273,9.734h0Zm-8.108,4.8h7.752v-4.8H44.164Zm8.108,1.616H43.808a1.259,1.259,0,0,1-1.259-1.256V9.378a1.262,1.262,0,0,1,1.259-1.259h8.465a1.26,1.26,0,0,1,1.259,1.259v5.515A1.257,1.257,0,0,1,52.273,16.148Z" fill-rule="evenodd"/>
          <path id="Path_1328520" data-name="Path 1328520" d="M48.04,15.1a.808.808,0,0,1-.608-.278L42.859,9.6a.809.809,0,0,1,1.217-1.066l3.964,4.53L52,8.531A.809.809,0,0,1,53.221,9.6l-4.573,5.22a.808.808,0,0,1-.608.278Z" fill-rule="evenodd"/>
        </g>
      </g>
    </g>
  </g>
</svg>
