<svg xmlns="http://www.w3.org/2000/svg" xmlns:xlink="http://www.w3.org/1999/xlink" width="98" height="97.999" viewBox="0 0 98 97.999">
  <defs>
    <clipPath id="clip-path">
      <rect id="Rectangle_412572" data-name="Rectangle 412572" width="57" height="55" transform="translate(1140.051 3879)" fill="#fff" stroke="#707070" stroke-width="1"/>
    </clipPath>
  </defs>
  <g id="Group_1207251" data-name="Group 1207251" transform="translate(-1119.086 -3857.106)">
    <g id="Group_1204751" data-name="Group 1204751" transform="translate(1119.086 3857.106)">
      <g id="Group_1204438" data-name="Group 1204438">
        <g id="Group_1204285" data-name="Group 1204285">
          <g id="Group_1204180" data-name="Group 1204180">
            <g id="Group_1204143" data-name="Group 1204143">
              <g id="Group_1188789" data-name="Group 1188789" transform="translate(0)">
                <path id="Path_1243039" data-name="Path 1243039" d="M41.05,0h0a41.05,41.05,0,0,1,0,82.1h0a41.05,41.05,0,0,1,0-82.1Z" transform="translate(7.951 7.949)" fill="#ffc63f"/>
                <rect id="Rectangle_400907" data-name="Rectangle 400907" width="88.438" height="88.437" rx="44.218" transform="translate(4.782 4.781)" fill="none"/>
                <g id="Group_1098742" data-name="Group 1098742" transform="translate(0)">
                  <g id="Rectangle_400898" data-name="Rectangle 400898" transform="translate(0)" fill="none" stroke="#fff" stroke-width="2" opacity="0.859">
                    <rect width="98" height="97.999" rx="48.999" stroke="none"/>
                    <rect x="1" y="1" width="96" height="95.999" rx="47.999" fill="none"/>
                  </g>
                  <g id="Rectangle_400907-2" data-name="Rectangle 400907" transform="translate(0)" fill="none" stroke="#0f1f33" stroke-linecap="round" stroke-width="2">
                    <rect width="98" height="97.999" rx="48.999" stroke="none"/>
                    <rect x="1" y="1" width="96" height="95.999" rx="47.999" fill="none"/>
                  </g>
                </g>
              </g>
            </g>
          </g>
        </g>
      </g>
    </g>
    <g id="Mask_Group_1099571" data-name="Mask Group 1099571" clip-path="url(#clip-path)">
      <g id="auto_15447603" transform="translate(1140.834 3878.783)">
        <rect id="Rectangle_426275" data-name="Rectangle 426275" width="51.969" height="24.252" rx="3.465" transform="translate(1.732 29.449)" fill="#f0f0ff"/>
        <path id="Path_1329084" data-name="Path 1329084" d="M5.2,29.449H50.236A3.465,3.465,0,0,1,53.7,32.913v8.661H1.732V32.913A3.465,3.465,0,0,1,5.2,29.449Z" fill="#96d7ff"/>
        <path id="Path_1329085" data-name="Path 1329085" d="M11.26,47.638H44.173a2.6,2.6,0,0,1,2.6,2.6V53.7H8.661V50.236a2.6,2.6,0,0,1,2.6-2.6Z" fill="#c8c8e1"/>
        <path id="Path_1329086" data-name="Path 1329086" d="M49.37,1.732H6.063A3.465,3.465,0,0,0,2.6,5.2V19.055A3.465,3.465,0,0,0,6.063,22.52H31.181l4.331,10.394L39.843,22.52H49.37a3.465,3.465,0,0,0,3.465-3.465V5.2A3.465,3.465,0,0,0,49.37,1.732Z" fill="#bef77d"/>
        <circle id="Ellipse_13093" data-name="Ellipse 13093" cx="1.516" cy="1.516" r="1.516" transform="translate(6.28 33.996)"/>
        <circle id="Ellipse_13094" data-name="Ellipse 13094" cx="1.516" cy="1.516" r="1.516" transform="translate(12.343 33.996)"/>
        <circle id="Ellipse_13095" data-name="Ellipse 13095" cx="1.516" cy="1.516" r="1.516" transform="translate(18.406 33.996)"/>
        <path id="Path_1329087" data-name="Path 1329087" d="M11.26,5.413A4.552,4.552,0,0,0,6.713,9.961v7.362a1.516,1.516,0,1,0,3.031,0V14.508h3.031v2.815a1.516,1.516,0,1,0,3.031,0V9.961A4.552,4.552,0,0,0,11.26,5.413Zm1.516,6.063H9.744V9.961a1.516,1.516,0,0,1,3.031,0Z"/>
        <path id="Path_1329088" data-name="Path 1329088" d="M25.551,5.413a1.516,1.516,0,0,0-1.516,1.516v7.362a1.516,1.516,0,1,1-3.031,0V6.929a1.516,1.516,0,1,0-3.031,0v7.362a4.547,4.547,0,1,0,9.094,0V6.929A1.516,1.516,0,0,0,25.551,5.413Z"/>
        <path id="Path_1329089" data-name="Path 1329089" d="M32.264,17.323a1.516,1.516,0,1,0,3.031,0V8.445h1.516a1.516,1.516,0,0,0,0-3.031H30.748a1.516,1.516,0,0,0,0,3.031h1.516Z"/>
        <path id="Path_1329090" data-name="Path 1329090" d="M44.173,18.839a4.552,4.552,0,0,0,4.547-4.547V9.961a4.547,4.547,0,0,0-9.094,0v4.331A4.552,4.552,0,0,0,44.173,18.839ZM42.657,9.961a1.516,1.516,0,0,1,3.031,0v4.331a1.516,1.516,0,1,1-3.031,0Z"/>
        <path id="Path_1329091" data-name="Path 1329091" d="M50.236,27.933H39.229l1.624-3.9H49.37a4.98,4.98,0,0,0,4.98-4.98V5.2A4.98,4.98,0,0,0,49.37.217H6.063A4.98,4.98,0,0,0,1.083,5.2V19.055a4.98,4.98,0,0,0,4.98,4.98H30.17l1.624,3.9H5.2a4.986,4.986,0,0,0-4.98,4.98V50.236a4.986,4.986,0,0,0,4.98,4.98H50.236a4.986,4.986,0,0,0,4.98-4.98V32.913A4.986,4.986,0,0,0,50.236,27.933ZM31.326,21H6.063a1.949,1.949,0,0,1-1.949-1.949V5.2A1.949,1.949,0,0,1,6.063,3.248H49.37A1.949,1.949,0,0,1,51.319,5.2V19.055A1.949,1.949,0,0,1,49.37,21H39.7a1.3,1.3,0,0,0-1.2.8l-2.986,7.169L32.525,21.8a1.3,1.3,0,0,0-1.2-.8ZM16.673,52.185h-6.5V50.236a1.084,1.084,0,0,1,1.083-1.083h5.413Zm9.528,0H19.7V49.154h6.5Zm9.528,0h-6.5V49.154h6.5Zm9.528,0h-6.5V49.154h5.413a1.084,1.084,0,0,1,1.083,1.083Zm6.929-1.949a1.951,1.951,0,0,1-1.949,1.949H48.287V50.236a4.119,4.119,0,0,0-4.114-4.114H11.26a4.119,4.119,0,0,0-4.114,4.114v1.949H5.2a1.951,1.951,0,0,1-1.949-1.949V43.091H52.185Zm0-10.177H3.248V32.913A1.951,1.951,0,0,1,5.2,30.965H33.058L34.113,33.5a1.515,1.515,0,0,0,2.8,0l1.055-2.532H50.236a1.951,1.951,0,0,1,1.949,1.949Z"/>
      </g>
    </g>
  </g>
</svg>
