<svg xmlns="http://www.w3.org/2000/svg" xmlns:xlink="http://www.w3.org/1999/xlink" width="98" height="97.999" viewBox="0 0 98 97.999">
  <defs>
    <clipPath id="clip-path">
      <rect id="Rectangle_412572" data-name="Rectangle 412572" width="57" height="55" transform="translate(1140.051 3879)" fill="#fff" stroke="#707070" stroke-width="1"/>
    </clipPath>
  </defs>
  <g id="Group_1206685" data-name="Group 1206685" transform="translate(-1119.086 -3857.106)">
    <g id="Group_1204751" data-name="Group 1204751" transform="translate(1119.086 3857.106)">
      <g id="Group_1204438" data-name="Group 1204438">
        <g id="Group_1204285" data-name="Group 1204285">
          <g id="Group_1204180" data-name="Group 1204180">
            <g id="Group_1204143" data-name="Group 1204143">
              <g id="Group_1188789" data-name="Group 1188789" transform="translate(0)">
                <path id="Path_1243039" data-name="Path 1243039" d="M41.05,0h0a41.05,41.05,0,0,1,0,82.1h0a41.05,41.05,0,0,1,0-82.1Z" transform="translate(7.951 7.949)" fill="#ffc63f"/>
                <rect id="Rectangle_400907" data-name="Rectangle 400907" width="88.438" height="88.437" rx="44.218" transform="translate(4.782 4.781)" fill="none"/>
                <g id="Group_1098742" data-name="Group 1098742" transform="translate(0)">
                  <g id="Rectangle_400898" data-name="Rectangle 400898" transform="translate(0)" fill="none" stroke="#fff" stroke-width="2" opacity="0.859">
                    <rect width="98" height="97.999" rx="48.999" stroke="none"/>
                    <rect x="1" y="1" width="96" height="95.999" rx="47.999" fill="none"/>
                  </g>
                  <g id="Rectangle_400907-2" data-name="Rectangle 400907" transform="translate(0)" fill="none" stroke="#0f1f33" stroke-linecap="round" stroke-width="2">
                    <rect width="98" height="97.999" rx="48.999" stroke="none"/>
                    <rect x="1" y="1" width="96" height="95.999" rx="47.999" fill="none"/>
                  </g>
                </g>
              </g>
            </g>
          </g>
        </g>
      </g>
    </g>
    <g id="Mask_Group_1099561" data-name="Mask Group 1099561" clip-path="url(#clip-path)">
      <g id="report-issue_17871683" transform="translate(1138.217 3876.212)">
        <g id="Group_1207213" data-name="Group 1207213">
          <path id="Path_1328974" data-name="Path 1328974" d="M19.953,3.618H41.729A4.382,4.382,0,0,1,46.1,7.99V45.567H15.581V7.99a4.383,4.383,0,0,1,4.372-4.372Z" fill="#2d96d3" fill-rule="evenodd"/>
          <path id="Path_1328975" data-name="Path 1328975" d="M19.953,3.618H41.729A4.382,4.382,0,0,1,46.1,7.99V36.917a21.585,21.585,0,0,1-4.493-.346C29.092,34.3,18.672,21.86,18.336,8.785a23.147,23.147,0,0,1,.394-4.993,4.353,4.353,0,0,1,1.223-.174Z" fill="#61bfec" fill-rule="evenodd"/>
          <path id="Path_1328976" data-name="Path 1328976" d="M21.155,3.618H40.526v1.69c0,1.3-1.475,2.366-3.276,2.366H24.431c-1.8,0-3.276-1.066-3.276-2.366Z" fill="#666766" fill-rule="evenodd"/>
          <path id="Path_1328977" data-name="Path 1328977" d="M46.1,45.567v.571a4.382,4.382,0,0,1-4.372,4.372H19.953a4.382,4.382,0,0,1-4.372-4.372v-.571Z" fill="#666766" fill-rule="evenodd"/>
          <path id="Path_1328978" data-name="Path 1328978" d="M46.1,45.567v.571a4.382,4.382,0,0,1-4.372,4.372H22.882l-.091-4.943Z" fill="#838383" fill-rule="evenodd"/>
          <path id="Path_1328979" data-name="Path 1328979" d="M19.058,9.449a11.937,11.937,0,0,1,4.049,23.165L22.757,38l-4.244-4.7a11.935,11.935,0,0,1,.544-23.857Z" fill="#e57428" fill-rule="evenodd"/>
          <path id="Path_1328980" data-name="Path 1328980" d="M27.224,30.09a11.9,11.9,0,0,1-4.116,2.524L22.758,38l-4.244-4.7a11.934,11.934,0,0,1-7.894-20.359A11.874,11.874,0,0,1,15.8,11.767c6.593,0,11.936,6.055,11.936,11.936A42.726,42.726,0,0,1,27.224,30.09Z" fill="#fcb13b" fill-rule="evenodd"/>
          <path id="Path_1328981" data-name="Path 1328981" d="M19.73,13.5,26.7,25.584a.743.743,0,0,1,0,.773.751.751,0,0,1-.669.386H12.086a.751.751,0,0,1-.669-.386.743.743,0,0,1,0-.773L18.39,13.5a.77.77,0,0,1,1.339,0Z" fill="#991b1e" fill-rule="evenodd"/>
          <path id="Path_1328982" data-name="Path 1328982" d="M20.7,15.184l6,10.4a.743.743,0,0,1,0,.773.751.751,0,0,1-.669.386H14.028Z" fill="#ed2024" fill-rule="evenodd"/>
          <path id="Path_1328983" data-name="Path 1328983" d="M37.451,36.229c-.961-1.663,2.278-3.242,3.3-1.656.134.194.6.925.74,1.1-.42-1.462,2.5-2.786,3.8-.538,2.55,4.416.961,1.936,3.505,6.253l1.784,6.028q-4.844,2.8-9.681,5.592c-1.038-1.038-12.971-5.275-8.841-11.566-1.888-3.555-1.6-2.843-3.615-6.341a1.808,1.808,0,1,1,3.131-1.811l2.54,4.4c-.366-1.565,2.43-3.026,3.333-1.464Z" fill="#e2ab7f" fill-rule="evenodd"/>
          <path id="Path_1328984" data-name="Path 1328984" d="M37.451,36.229c-.961-1.663,2.278-3.242,3.3-1.656.134.194.6.925.74,1.1-.42-1.462,2.5-2.786,3.8-.538,2.55,4.416.961,1.936,3.505,6.253l1.784,6.028L47.9,48.967A23.176,23.176,0,0,1,34.747,36.152c.81-.69,2.133-.908,2.7.077Z" fill="#fad1a2" fill-rule="evenodd"/>
          <path id="Path_1328985" data-name="Path 1328985" d="M53.413,49.321l-1.042-1.8a.978.978,0,0,0-1.334-.359l-10.7,6.176a.98.98,0,0,0-.356,1.334l1.042,1.808a.98.98,0,0,0,1.334.356l10.7-6.176A.979.979,0,0,0,53.413,49.321Z" fill="#009899" fill-rule="evenodd"/>
          <path id="Path_1328986" data-name="Path 1328986" d="M45.012,50.638l-4.674,2.694a.98.98,0,0,0-.356,1.334l1.042,1.808a.98.98,0,0,0,1.334.356l4.674-2.7Z" fill="#6fccdd" fill-rule="evenodd"/>
        </g>
        <path id="Path_1328987" data-name="Path 1328987" d="M30.953,31.078a.83.83,0,0,1,0-1.66H42.569a.83.83,0,0,1,0,1.66Zm2.406-4.062a.83.83,0,0,1,0-1.66H42.57a.83.83,0,0,1,0,1.66Zm1.183-4.062a.83.83,0,1,1,0-1.66H42.57a.83.83,0,1,1,0,1.66ZM33.359,18.89a.83.83,0,1,1,0-1.66H42.57a.83.83,0,0,1,0,1.66ZM52.7,49.733l-1.042-1.8h0a.148.148,0,0,0-.091-.068.152.152,0,0,0-.114.013l-.407.232a.56.56,0,0,1-.091.053l-9.566,5.524a.765.765,0,0,1-.134.077l-.5.289a.155.155,0,0,0-.068.088.145.145,0,0,0,.013.114l1.042,1.8a.155.155,0,0,0,.091.068.145.145,0,0,0,.117-.011l10.692-6.176a.155.155,0,0,0,.068-.091.16.16,0,0,0-.009-.113Zm.39-2.63,1.042,1.808a1.8,1.8,0,0,1-.659,2.46l-10.7,6.176a1.8,1.8,0,0,1-2.463-.659l-1.042-1.8v0a1.8,1.8,0,0,1,.145-2.016l-.535-.282c-.742-.39-1.654-.867-2.611-1.441H19.953a5.209,5.209,0,0,1-5.2-5.2V33.4a12.765,12.765,0,0,1,0-24.032V7.99a5.209,5.209,0,0,1,5.2-5.2H41.731a5.209,5.209,0,0,1,5.2,5.2V36.332c.491.874.669,1.227.833,1.546.245.487.454.9,1.747,3.092a1.016,1.016,0,0,1,.081.185L51.1,46.248a1.853,1.853,0,0,1,.89.009,1.814,1.814,0,0,1,1.1.84h0ZM40.946,52.028l8.656-5-1.569-5.315c-1.291-2.187-1.5-2.6-1.747-3.092-.165-.319-.343-.672-.877-1.619-.02-.033-.04-.068-.057-.1-.205-.363-.458-.8-.773-1.354v0a1.422,1.422,0,0,0-1.152-.782,1.368,1.368,0,0,0-.584.091,1.2,1.2,0,0,0-.427.269.353.353,0,0,0-.128.322h0l1.767,2.89a.828.828,0,0,1-1.414.861L40.559,35.8c-.013-.027-.027-.051-.04-.077-.071-.108-.145-.218-.212-.322l-.222-.339a.34.34,0,0,1-.031-.044.843.843,0,0,0-.914-.242,1.847,1.847,0,0,0-.518.2,1.433,1.433,0,0,0-.373.309.454.454,0,0,0-.088.531L40.5,39.663a.827.827,0,0,1-1.414.857l-2.335-3.848a.14.14,0,0,0-.017-.027.5.5,0,0,0-.44-.252,1.264,1.264,0,0,0-.558.114,1.735,1.735,0,0,0-.535.356.817.817,0,0,0-.286.555l2.409,4.093a.827.827,0,0,1-1.427.837l-2.469-4.194-.024-.044-2.54-4.4v0a1,1,0,0,0-1.344-.357.994.994,0,0,0-.357,1.341c.685,1.189,1.128,1.929,1.475,2.509.628,1.048.951,1.59,2.157,3.857h0l2.581,4.469a.827.827,0,1,1-1.431.83l-1.791-3.1c-.581,2.44,1.656,4.526,4.005,6.068.235.154.467.3.7.447a.593.593,0,0,1,.124.073c.954.578,1.9,1.075,2.668,1.475.524.277.967.509,1.3.714Zm-7.13-2.348A10.31,10.31,0,0,1,30.9,46.4H16.42a3.557,3.557,0,0,0,3.531,3.284H33.816Zm-3.44-4.943a5.188,5.188,0,0,1,.733-3.317c-1.046-1.959-1.341-2.46-1.888-3.37-.322-.541-.733-1.227-1.489-2.537a2.634,2.634,0,0,1,4.563-2.634l1.667,2.883c.02-.024.044-.044.064-.068a3.465,3.465,0,0,1,1.068-.716,2.97,2.97,0,0,1,1.277-.242,2.18,2.18,0,0,1,.262.027,2.364,2.364,0,0,1,.346-.541,3.015,3.015,0,0,1,.823-.679,3.494,3.494,0,0,1,.995-.386,2.453,2.453,0,0,1,2.5.749,2.83,2.83,0,0,1,.961-.6,3.063,3.063,0,0,1,1.27-.194,2.885,2.885,0,0,1,1.747.705V7.99a3.551,3.551,0,0,0-3.542-3.542h-.373v.861a2.9,2.9,0,0,1-1.311,2.342,4.806,4.806,0,0,1-2.8.853H24.431a4.806,4.806,0,0,1-2.8-.853,2.906,2.906,0,0,1-1.311-2.342V4.448h-.373A3.551,3.551,0,0,0,16.409,7.99V8.9a12.764,12.764,0,0,1,7.491,24.3l-.315,4.862a.824.824,0,0,1-.877.773.814.814,0,0,1-.6-.315l-3.978-4.4a13.178,13.178,0,0,1-1.716-.242V44.737ZM18.231,23.158a.828.828,0,1,1,1.656,0v.934a.828.828,0,1,1-1.656,0Zm0-6.311a.828.828,0,1,1,1.656,0v4.445a.828.828,0,1,1-1.656,0Zm2.214-3.759,6.976,12.08a1.618,1.618,0,0,1,.218.8,1.636,1.636,0,0,1-.8,1.388,1.616,1.616,0,0,1-.8.215H12.086a1.612,1.612,0,0,1-.8-.215,1.581,1.581,0,0,1-.584-.588l-.031-.06a1.6,1.6,0,0,1-.188-.74,1.618,1.618,0,0,1,.218-.8l6.976-12.08c.013-.02.024-.04.037-.06a1.649,1.649,0,0,1,.548-.528,1.6,1.6,0,0,1,2.187.588ZM25.94,25.913,19.059,14,12.18,25.913Zm.971-12.381A11.106,11.106,0,1,0,15.757,31.993c.044.011.084.024.124.037a10.938,10.938,0,0,0,2.668.45.82.82,0,0,1,.575.273L22.059,36l.222-3.434a.829.829,0,0,1,.548-.725,11.113,11.113,0,0,0,4.082-18.307ZM21.984,4.449v.861a1.286,1.286,0,0,0,.615,1,3.141,3.141,0,0,0,1.831.538H37.25a3.141,3.141,0,0,0,1.831-.538,1.29,1.29,0,0,0,.615-1V4.449Z"/>
      </g>
    </g>
  </g>
</svg>
