<svg xmlns="http://www.w3.org/2000/svg" xmlns:xlink="http://www.w3.org/1999/xlink" width="98" height="97.999" viewBox="0 0 98 97.999">
  <defs>
    <clipPath id="clip-path">
      <rect id="Rectangle_412572" data-name="Rectangle 412572" width="57" height="55" transform="translate(1140.051 3879)" fill="#fff" stroke="#707070" stroke-width="1"/>
    </clipPath>
  </defs>
  <g id="Group_1206428" data-name="Group 1206428" transform="translate(-1119.086 -3857.106)">
    <g id="Group_1204751" data-name="Group 1204751" transform="translate(1119.086 3857.106)">
      <g id="Group_1204438" data-name="Group 1204438">
        <g id="Group_1204285" data-name="Group 1204285">
          <g id="Group_1204180" data-name="Group 1204180">
            <g id="Group_1204143" data-name="Group 1204143">
              <g id="Group_1188789" data-name="Group 1188789" transform="translate(0)">
                <path id="Path_1243039" data-name="Path 1243039" d="M41.05,0h0a41.05,41.05,0,0,1,0,82.1h0a41.05,41.05,0,0,1,0-82.1Z" transform="translate(7.951 7.949)" fill="#ffc63f"/>
                <rect id="Rectangle_400907" data-name="Rectangle 400907" width="88.438" height="88.437" rx="44.218" transform="translate(4.782 4.781)" fill="none"/>
                <g id="Group_1098742" data-name="Group 1098742" transform="translate(0)">
                  <g id="Rectangle_400898" data-name="Rectangle 400898" transform="translate(0)" fill="none" stroke="#fff" stroke-width="2" opacity="0.859">
                    <rect width="98" height="97.999" rx="48.999" stroke="none"/>
                    <rect x="1" y="1" width="96" height="95.999" rx="47.999" fill="none"/>
                  </g>
                  <g id="Rectangle_400907-2" data-name="Rectangle 400907" transform="translate(0)" fill="none" stroke="#0f1f33" stroke-linecap="round" stroke-width="2">
                    <rect width="98" height="97.999" rx="48.999" stroke="none"/>
                    <rect x="1" y="1" width="96" height="95.999" rx="47.999" fill="none"/>
                  </g>
                </g>
              </g>
            </g>
          </g>
        </g>
      </g>
    </g>
    <g id="Mask_Group_1099546" data-name="Mask Group 1099546" clip-path="url(#clip-path)">
      <g id="promotion_10793580" transform="translate(1140.049 3877.998)">
        <path id="Path_1328808" data-name="Path 1328808" d="M36.2,36.249V50.422a4.814,4.814,0,0,1-4.8,4.8H9.891a4.812,4.812,0,0,1-4.8-4.8V6.582a4.812,4.812,0,0,1,4.8-4.8H31.4a4.814,4.814,0,0,1,4.8,4.8V36.249Z" fill="#e7e7e5" fill-rule="evenodd"/>
        <path id="Path_1328809" data-name="Path 1328809" d="M16.251,50.864a.779.779,0,1,1,0-1.559h8.792a.779.779,0,1,1,0,1.559Z" fill="#fff"/>
        <g id="Group_1207177" data-name="Group 1207177">
          <path id="Path_1328810" data-name="Path 1328810" d="M13.091,16.871l6.722-4.693a1.439,1.439,0,0,1,1.663,0L28.2,16.871a1.414,1.414,0,0,1,.621,1.19v15.3a1.454,1.454,0,0,1-1.452,1.452H13.921a1.451,1.451,0,0,1-1.448-1.452v-15.3a1.41,1.41,0,0,1,.618-1.19Z" fill="#ffbf00" fill-rule="evenodd"/>
          <path id="Path_1328811" data-name="Path 1328811" d="M45.46,33.638l-2.673-9C41.2,28.3,38.1,32.265,34.113,33.445l-4.02,1.2c-2.057.612-1.834,2.393-1.364,3.967s1.25,3.188,3.308,2.579l4.02-1.2c3.982-1.18,8.745.445,12.074,2.648Z" fill="#ffbf00" fill-rule="evenodd"/>
          <path id="Path_1328812" data-name="Path 1328812" d="M44.847,31.58,46.072,35.7a2.147,2.147,0,0,0-1.225-4.115Z" fill="#fd9200" fill-rule="evenodd"/>
          <path id="Path_1328813" data-name="Path 1328813" d="M16.251,50.864a.779.779,0,1,1,0-1.559h8.792a.779.779,0,1,1,0,1.559Z" fill="#5b5d5a" fill-rule="evenodd"/>
          <path id="Path_1328814" data-name="Path 1328814" d="M5.094,45.726v4.7a4.811,4.811,0,0,0,4.8,4.8H31.4a4.814,4.814,0,0,0,4.8-4.8v-4.7Z" fill="#5b5d5a" fill-rule="evenodd"/>
          <path id="Path_1328815" data-name="Path 1328815" d="M30.093,34.642c-2.057.612-1.834,2.393-1.364,3.967s1.25,3.188,3.308,2.579l3.124-.927v0l-1.944-6.542Z" fill="#fd9200" fill-rule="evenodd"/>
        </g>
        <path id="Path_1328816" data-name="Path 1328816" d="M22.547,28.491a1,1,0,1,1,1-1A1,1,0,0,1,22.547,28.491Zm30.243,5.7L49.4,33.745a.78.78,0,1,0-.2,1.546l3.387.445c.035,0,.067.007.1.007a.78.78,0,0,0,.1-1.553Zm-.8,3.251-2.91-1.784a.78.78,0,1,0-.815,1.329l2.91,1.784a.791.791,0,0,0,.4.114.78.78,0,0,0,.411-1.443Zm-5.6-6.962a.737.737,0,0,0,.332.076.778.778,0,0,0,.707-.445l1.467-3.083a.781.781,0,0,0-1.411-.669l-1.464,3.083a.775.775,0,0,0,.369,1.039Zm1.259.965a.776.776,0,0,0,.593.272.768.768,0,0,0,.505-.186l2.594-2.219a.779.779,0,0,0-1.012-1.184l-2.594,2.216A.782.782,0,0,0,47.646,31.445Zm.757,1.392a.779.779,0,0,0,.748.559.753.753,0,0,0,.22-.031l3.273-.972a.78.78,0,1,0-.445-1.5l-3.273.972A.78.78,0,0,0,48.4,32.836ZM38.128,38.817a11.158,11.158,0,0,0-2.472.272L34.145,34a10.425,10.425,0,0,0,1.626-.76.424.424,0,0,0,.05-.029,17.085,17.085,0,0,0,6-6.447l2.109,7.1v0l2.111,7.1a17.537,17.537,0,0,0-7.915-2.147ZM30.62,54.442H9.115a4.026,4.026,0,0,1-4.024-4.02v-4.7h29.55v4.7a4.026,4.026,0,0,1-4.021,4.02Zm2.035-19.977,1.5,5.049-3.119.925a1.3,1.3,0,0,1-1.471-.265,4.6,4.6,0,0,1-.871-1.786c-.625-2.111-.167-2.7.839-3Zm-5.393-1.1a.673.673,0,0,1-.676.669H13.145a.67.67,0,0,1-.672-.669V18.061a.622.622,0,0,1,.284-.549l6.726-4.693a.65.65,0,0,1,.767,0l6.722,4.693a.628.628,0,0,1,.291.549V33.367ZM9.115,2.562h21.5a4.026,4.026,0,0,1,4.02,4.02v25.5a8.746,8.746,0,0,1-1.528.619l-.139.041a.027.027,0,0,1-.016,0s-.009,0-.012.007L29.089,33.9c-.132.041-.253.086-.37.132a2.154,2.154,0,0,0,.1-.659V18.061a2.209,2.209,0,0,0-.956-1.827l-6.722-4.7a2.22,2.22,0,0,0-2.553,0l-6.726,4.693a2.207,2.207,0,0,0-.95,1.827V33.367A2.232,2.232,0,0,0,13.144,35.6H26.586a2.261,2.261,0,0,0,.511-.06,2.746,2.746,0,0,0-.177.578,5.838,5.838,0,0,0,.281,2.718,5.835,5.835,0,0,0,1.247,2.433,2.846,2.846,0,0,0,3.033.672L34.639,41v3.172H5.091V6.582a4.027,4.027,0,0,1,4.024-4.02ZM45.99,33.254a1.365,1.365,0,0,1-.243,1.24l-.318-1.077-.322-1.077A1.375,1.375,0,0,1,45.99,33.254Zm.239,2.868a2.928,2.928,0,0,0-1.607-5.409l-1.868-6.3a.781.781,0,0,0-1.464-.088A17.419,17.419,0,0,1,36.2,31.1V6.582A5.586,5.586,0,0,0,30.62,1H9.115a5.586,5.586,0,0,0-5.58,5.58v43.84A5.586,5.586,0,0,0,9.115,56h21.5a5.586,5.586,0,0,0,5.58-5.58V40.565c3.693-.76,7.906.862,10.727,2.723a.755.755,0,0,0,.43.129.774.774,0,0,0,.745-1ZM24.263,49.305H15.471a.779.779,0,1,0,0,1.559h8.792a.779.779,0,1,0,0-1.559ZM17.188,25.067a1,1,0,1,1,1-1A1,1,0,0,1,17.188,25.067Zm5.359-.136a2.551,2.551,0,0,0-1.572.54L22.6,22.9a.779.779,0,1,0-1.316-.834l-1.593,2.522a2.618,2.618,0,0,0,.053-.521,2.56,2.56,0,1,0-2.56,2.563,2.532,2.532,0,0,0,1.54-.518l-1.7,2.685a.779.779,0,0,0,.243,1.077.755.755,0,0,0,.413.12.772.772,0,0,0,.659-.363l1.7-2.685a2.411,2.411,0,0,0-.06.549,2.56,2.56,0,1,0,2.561-2.56Z" fill="#000001"/>
      </g>
    </g>
  </g>
</svg>
