<svg xmlns="http://www.w3.org/2000/svg" xmlns:xlink="http://www.w3.org/1999/xlink" width="98" height="97.999" viewBox="0 0 98 97.999">
  <defs>
    <clipPath id="clip-path">
      <rect id="Rectangle_412572" data-name="Rectangle 412572" width="57" height="55" transform="translate(1140.051 3879)" fill="#fff" stroke="#707070" stroke-width="1"/>
    </clipPath>
  </defs>
  <g id="Group_1206426" data-name="Group 1206426" transform="translate(-1119.086 -3857.106)">
    <g id="Group_1204751" data-name="Group 1204751" transform="translate(1119.086 3857.106)">
      <g id="Group_1204438" data-name="Group 1204438">
        <g id="Group_1204285" data-name="Group 1204285">
          <g id="Group_1204180" data-name="Group 1204180">
            <g id="Group_1204143" data-name="Group 1204143">
              <g id="Group_1188789" data-name="Group 1188789" transform="translate(0)">
                <path id="Path_1243039" data-name="Path 1243039" d="M41.05,0h0a41.05,41.05,0,0,1,0,82.1h0a41.05,41.05,0,0,1,0-82.1Z" transform="translate(7.951 7.949)" fill="#ffc63f"/>
                <rect id="Rectangle_400907" data-name="Rectangle 400907" width="88.438" height="88.437" rx="44.218" transform="translate(4.782 4.781)" fill="none"/>
                <g id="Group_1098742" data-name="Group 1098742" transform="translate(0)">
                  <g id="Rectangle_400898" data-name="Rectangle 400898" transform="translate(0)" fill="none" stroke="#fff" stroke-width="2" opacity="0.859">
                    <rect width="98" height="97.999" rx="48.999" stroke="none"/>
                    <rect x="1" y="1" width="96" height="95.999" rx="47.999" fill="none"/>
                  </g>
                  <g id="Rectangle_400907-2" data-name="Rectangle 400907" transform="translate(0)" fill="none" stroke="#0f1f33" stroke-linecap="round" stroke-width="2">
                    <rect width="98" height="97.999" rx="48.999" stroke="none"/>
                    <rect x="1" y="1" width="96" height="95.999" rx="47.999" fill="none"/>
                  </g>
                </g>
              </g>
            </g>
          </g>
        </g>
      </g>
    </g>
    <g id="Mask_Group_1099547" data-name="Mask Group 1099547" clip-path="url(#clip-path)">
      <g id="message_2643739" transform="translate(1140.164 3878.113)">
        <g id="Group_1207192" data-name="Group 1207192">
          <g id="Group_1207178" data-name="Group 1207178">
            <path id="Path_1328817" data-name="Path 1328817" d="M51.452,1.774H5.323A3.547,3.547,0,0,0,1.774,5.323V46.129a3.547,3.547,0,0,0,3.548,3.548H19.516l5.66,4.852a1.968,1.968,0,0,0,1.269.47,1.938,1.938,0,0,0,1.943-1.943v-3.38H51.452A3.547,3.547,0,0,0,55,46.129V5.323A3.547,3.547,0,0,0,51.452,1.774Z" fill="#e6e9ed"/>
          </g>
          <g id="Group_1207179" data-name="Group 1207179">
            <path id="Path_1328818" data-name="Path 1328818" d="M5.323,5.323H17.742v5.323H5.323Z" fill="#b4dd7f"/>
          </g>
          <g id="Group_1207180" data-name="Group 1207180">
            <path id="Path_1328819" data-name="Path 1328819" d="M8.871,33.71h-7.1V19.516H12.419a1.779,1.779,0,0,1,1.774,1.774V31.935a1.779,1.779,0,0,1-1.774,1.774Z" fill="#ff826e"/>
          </g>
          <g id="Group_1207181" data-name="Group 1207181">
            <circle id="Ellipse_13030" data-name="Ellipse 13030" cx="1.774" cy="1.774" r="1.774" transform="translate(7.097 23.065)" fill="#ffeaa7"/>
          </g>
          <g id="Group_1207182" data-name="Group 1207182">
            <path id="Path_1328820" data-name="Path 1328820" d="M46.129,39.032v3.548a3.547,3.547,0,0,1-3.548,3.548H24.839a3.547,3.547,0,0,1-3.548-3.548V39.032Z" fill="#969faa"/>
          </g>
          <g id="Group_1207183" data-name="Group 1207183">
            <path id="Path_1328821" data-name="Path 1328821" d="M33.71,12.419H21.29V8.871a3.547,3.547,0,0,1,3.548-3.548h5.323V8.871A3.547,3.547,0,0,0,33.71,12.419Z" fill="#969faa"/>
          </g>
          <g id="Group_1207184" data-name="Group 1207184">
            <path id="Path_1328822" data-name="Path 1328822" d="M46.129,8.871v3.548H33.71a3.544,3.544,0,0,0,3.548-3.548V5.323h5.323A3.547,3.547,0,0,1,46.129,8.871Z" fill="#969faa"/>
          </g>
          <g id="Group_1207185" data-name="Group 1207185">
            <path id="Path_1328823" data-name="Path 1328823" d="M37.258,5.323V8.871a3.548,3.548,0,0,1-7.1,0V5.323Z" fill="#fcd770"/>
          </g>
          <g id="Group_1207186" data-name="Group 1207186">
            <path id="Path_1328824" data-name="Path 1328824" d="M49.677,21.29a1.779,1.779,0,0,1,1.774,1.774,1.787,1.787,0,0,1-1.774,1.774H46.129V21.29Z" fill="#f0d0b4"/>
          </g>
          <g id="Group_1207187" data-name="Group 1207187">
            <path id="Path_1328825" data-name="Path 1328825" d="M47.016,24.839a1.779,1.779,0,0,1,1.774,1.774,1.787,1.787,0,0,1-1.774,1.774H45.242a1.779,1.779,0,0,1-1.774-1.774,1.787,1.787,0,0,1,1.774-1.774h1.774Z" fill="#f0d0b4"/>
          </g>
          <g id="Group_1207188" data-name="Group 1207188">
            <path id="Path_1328826" data-name="Path 1328826" d="M47.016,28.387a1.779,1.779,0,0,1,1.774,1.774,1.787,1.787,0,0,1-1.774,1.774H45.242a1.779,1.779,0,0,1-1.774-1.774,1.787,1.787,0,0,1,1.774-1.774Z" fill="#f0d0b4"/>
          </g>
          <g id="Group_1207189" data-name="Group 1207189">
            <path id="Path_1328827" data-name="Path 1328827" d="M47.016,31.935A1.779,1.779,0,0,1,48.79,33.71a1.787,1.787,0,0,1-1.774,1.774H45.242a1.779,1.779,0,0,1-1.774-1.774,1.787,1.787,0,0,1,1.774-1.774Z" fill="#f0d0b4"/>
          </g>
          <g id="Group_1207190" data-name="Group 1207190">
            <path id="Path_1328828" data-name="Path 1328828" d="M46.129,35.484v3.548H21.29V22.958a5.08,5.08,0,0,0,.674-.568l1.1-1.1H27.5a2.665,2.665,0,0,0,2.661-2.661.89.89,0,0,0-.887-.887H21.29V12.419H46.129V24.839h-.887a1.787,1.787,0,0,0-1.774,1.774,1.779,1.779,0,0,0,1.774,1.774,1.787,1.787,0,0,0-1.774,1.774,1.779,1.779,0,0,0,1.774,1.774,1.787,1.787,0,0,0-1.774,1.774,1.779,1.779,0,0,0,1.774,1.774Z" fill="#69d6f4"/>
          </g>
          <g id="Group_1207191" data-name="Group 1207191">
            <path id="Path_1328829" data-name="Path 1328829" d="M21.29,22.958V35.484h-.8a5.3,5.3,0,0,1-3.318-1.162l-2.981-2.386V21.29L17.174,18.9a5.3,5.3,0,0,1,3.318-1.162h8.782a.89.89,0,0,1,.887.887A2.665,2.665,0,0,1,27.5,21.29H23.065l-1.1,1.1a5.08,5.08,0,0,1-.674.568Z" fill="#f0d0b4"/>
          </g>
        </g>
        <g id="Group_1207193" data-name="Group 1207193">
          <circle id="Ellipse_13031" data-name="Ellipse 13031" cx="0.887" cy="0.887" r="0.887" transform="translate(32.823 7.984)"/>
          <circle id="Ellipse_13032" data-name="Ellipse 13032" cx="0.887" cy="0.887" r="0.887" transform="translate(41.694 7.984)"/>
          <path id="Path_1328830" data-name="Path 1328830" d="M30.161,41.694h7.1v1.774h-7.1Z"/>
          <path id="Path_1328831" data-name="Path 1328831" d="M23.952,41.694h1.774v1.774H23.952Z"/>
          <path id="Path_1328832" data-name="Path 1328832" d="M41.694,41.694h1.774v1.774H41.694Z"/>
          <path id="Path_1328833" data-name="Path 1328833" d="M51.452.887H5.323A4.441,4.441,0,0,0,.887,5.323V46.129a4.441,4.441,0,0,0,4.435,4.435H19.188L24.6,55.2a2.829,2.829,0,0,0,4.671-2.147V50.565H51.452a4.441,4.441,0,0,0,4.435-4.435V5.323A4.441,4.441,0,0,0,51.452.887ZM7.984,24.839a.887.887,0,1,1,.887.887A.888.888,0,0,1,7.984,24.839Zm1.774,2.5a2.661,2.661,0,1,0-1.774,0v5.486H2.661V20.4h9.758a.888.888,0,0,1,.887.887V31.935a.888.888,0,0,1-.887.887H9.758ZM54.113,46.129a2.665,2.665,0,0,1-2.661,2.661H27.5v4.268a1.056,1.056,0,0,1-1.742.8L19.844,48.79H5.323a2.665,2.665,0,0,1-2.661-2.661V34.6h9.758a2.66,2.66,0,0,0,2.208-1.178l1.99,1.591A6.231,6.231,0,0,0,20.4,36.362v6.219a4.441,4.441,0,0,0,4.435,4.435H42.581a4.441,4.441,0,0,0,4.435-4.435v-6.21a2.65,2.65,0,0,0,1.969-4.435,2.621,2.621,0,0,0,0-3.548,2.579,2.579,0,0,0,.529-2.661h.163a2.661,2.661,0,1,0,0-5.323H47.016V8.871a4.441,4.441,0,0,0-4.435-4.435H24.839A4.441,4.441,0,0,0,20.4,8.871v7.992a6.237,6.237,0,0,0-3.786,1.352l-1.99,1.591a2.661,2.661,0,0,0-2.208-1.177H2.661V5.323A2.665,2.665,0,0,1,5.323,2.661H51.452a2.665,2.665,0,0,1,2.661,2.661ZM47.9,33.71a.888.888,0,0,1-.887.887H45.242a.887.887,0,0,1,0-1.774h1.774A.888.888,0,0,1,47.9,33.71Zm-25.726,6.21H45.242v2.661a2.665,2.665,0,0,1-2.661,2.661H24.839a2.665,2.665,0,0,1-2.661-2.661ZM47.9,30.161a.888.888,0,0,1-.887.887H45.242a.887.887,0,0,1,0-1.774h1.774A.888.888,0,0,1,47.9,30.161Zm0-3.548a.888.888,0,0,1-.887.887H45.242a.887.887,0,0,1,0-1.774h1.774A.888.888,0,0,1,47.9,26.613Zm-.887-2.661V22.177h2.661a.887.887,0,0,1,0,1.774ZM45.242,11.532H37.235a4.39,4.39,0,0,0,.91-2.661V6.21h4.435a2.665,2.665,0,0,1,2.661,2.661ZM36.371,8.871a2.661,2.661,0,1,1-5.323,0V6.21h5.323Zm-6.187,2.661H22.177V8.871A2.665,2.665,0,0,1,24.839,6.21h4.435V8.871A4.39,4.39,0,0,0,30.184,11.532Zm-8.007,1.774H45.242V23.952a2.65,2.65,0,0,0-1.969,4.435,2.621,2.621,0,0,0,0,3.548,2.65,2.65,0,0,0,1.969,4.435v1.774H22.177V23.394c.141-.119.28-.242.412-.374l.843-.842H27.5a3.552,3.552,0,0,0,3.548-3.548,1.776,1.776,0,0,0-1.774-1.774h-7.1ZM20.5,18.629h8.779A1.776,1.776,0,0,1,27.5,20.4H22.7l-1.363,1.362a4.406,4.406,0,0,1-3.136,1.3H16.855v1.774H18.2a6.191,6.191,0,0,0,2.2-.408V34.589a4.445,4.445,0,0,1-2.678-.964l-2.644-2.116V21.717L17.725,19.6a4.452,4.452,0,0,1,2.77-.972Z"/>
          <path id="Path_1328834" data-name="Path 1328834" d="M32.823,15.081H43.468v1.774H32.823Z"/>
          <path id="Path_1328835" data-name="Path 1328835" d="M32.823,18.629H43.468V20.4H32.823Z"/>
          <path id="Path_1328836" data-name="Path 1328836" d="M23.952,23.952H34.6v1.774H23.952Z"/>
          <path id="Path_1328837" data-name="Path 1328837" d="M23.952,27.5H34.6v1.774H23.952Z"/>
          <path id="Path_1328838" data-name="Path 1328838" d="M31.935,31.048h8.871v1.774H31.935Z"/>
          <path id="Path_1328839" data-name="Path 1328839" d="M35.484,34.6h1.774v1.774H35.484Z"/>
          <path id="Path_1328840" data-name="Path 1328840" d="M31.935,34.6H33.71v1.774H31.935Z"/>
          <path id="Path_1328841" data-name="Path 1328841" d="M39.032,34.6h1.774v1.774H39.032Z"/>
          <path id="Path_1328842" data-name="Path 1328842" d="M4.435,38.145H16.855v1.774H4.435Z"/>
          <path id="Path_1328843" data-name="Path 1328843" d="M4.435,41.694H16.855v1.774H4.435Z"/>
          <path id="Path_1328844" data-name="Path 1328844" d="M15.081,45.242h1.774v1.774H15.081Z"/>
          <path id="Path_1328845" data-name="Path 1328845" d="M11.532,45.242h1.774v1.774H11.532Z"/>
          <path id="Path_1328846" data-name="Path 1328846" d="M4.435,45.242H6.21v1.774H4.435Z"/>
          <path id="Path_1328847" data-name="Path 1328847" d="M7.984,45.242H9.758v1.774H7.984Z"/>
          <path id="Path_1328848" data-name="Path 1328848" d="M4.435,11.532H18.629v-7.1H4.435ZM6.21,6.21H16.855V9.758H6.21Z"/>
          <path id="Path_1328849" data-name="Path 1328849" d="M4.435,13.306H18.629v1.774H4.435Z"/>
        </g>
      </g>
    </g>
  </g>
</svg>
