<svg xmlns="http://www.w3.org/2000/svg" xmlns:xlink="http://www.w3.org/1999/xlink" width="98" height="97.999" viewBox="0 0 98 97.999">
  <defs>
    <clipPath id="clip-path">
      <rect id="Rectangle_412572" data-name="Rectangle 412572" width="57" height="55" transform="translate(1140.051 3879)" fill="#fff" stroke="#707070" stroke-width="1"/>
    </clipPath>
  </defs>
  <g id="Group_1206432" data-name="Group 1206432" transform="translate(-1119.086 -3857.106)">
    <g id="Group_1204751" data-name="Group 1204751" transform="translate(1119.086 3857.106)">
      <g id="Group_1204438" data-name="Group 1204438">
        <g id="Group_1204285" data-name="Group 1204285">
          <g id="Group_1204180" data-name="Group 1204180">
            <g id="Group_1204143" data-name="Group 1204143">
              <g id="Group_1188789" data-name="Group 1188789" transform="translate(0)">
                <path id="Path_1243039" data-name="Path 1243039" d="M41.05,0h0a41.05,41.05,0,0,1,0,82.1h0a41.05,41.05,0,0,1,0-82.1Z" transform="translate(7.951 7.949)" fill="#ffc63f"/>
                <rect id="Rectangle_400907" data-name="Rectangle 400907" width="88.438" height="88.437" rx="44.218" transform="translate(4.782 4.781)" fill="none"/>
                <g id="Group_1098742" data-name="Group 1098742" transform="translate(0)">
                  <g id="Rectangle_400898" data-name="Rectangle 400898" transform="translate(0)" fill="none" stroke="#fff" stroke-width="2" opacity="0.859">
                    <rect width="98" height="97.999" rx="48.999" stroke="none"/>
                    <rect x="1" y="1" width="96" height="95.999" rx="47.999" fill="none"/>
                  </g>
                  <g id="Rectangle_400907-2" data-name="Rectangle 400907" transform="translate(0)" fill="none" stroke="#0f1f33" stroke-linecap="round" stroke-width="2">
                    <rect width="98" height="97.999" rx="48.999" stroke="none"/>
                    <rect x="1" y="1" width="96" height="95.999" rx="47.999" fill="none"/>
                  </g>
                </g>
              </g>
            </g>
          </g>
        </g>
      </g>
    </g>
    <g id="Mask_Group_1099542" data-name="Mask Group 1099542" clip-path="url(#clip-path)">
      <g id="cash-back_1476901" transform="translate(1142.376 3879)">
        <path id="Path_1328728" data-name="Path 1328728" d="M29.469,3.613V51.372a2.8,2.8,0,0,1-2.8,2.8H3.613a2.8,2.8,0,0,1-2.8-2.8V3.613a2.8,2.8,0,0,1,2.8-2.8H26.666a2.8,2.8,0,0,1,2.8,2.8Zm0,0" fill="#c2eaf2"/>
        <path id="Path_1328729" data-name="Path 1328729" d="M22.924.811l-.717,4.158a.656.656,0,0,1-.646.545H8.815a.657.657,0,0,1-.644-.531L7.356.811Zm0,0" fill="#7cd2e3"/>
        <path id="Path_1328730" data-name="Path 1328730" d="M26.546,9.641V49.884a1.393,1.393,0,0,1-1.393,1.392H5.126a1.392,1.392,0,0,1-1.391-1.392V9.641A1.392,1.392,0,0,1,5.126,8.249H25.153A1.393,1.393,0,0,1,26.546,9.641Zm0,0" fill="#958fca"/>
        <path id="Path_1328731" data-name="Path 1328731" d="M26.546,9.641V49.884a1.393,1.393,0,0,1-1.393,1.392H8.37a1.392,1.392,0,0,1-1.391-1.392V9.641A1.392,1.392,0,0,1,8.37,8.249H25.153A1.393,1.393,0,0,1,26.546,9.641Zm0,0" fill="#aba6d5"/>
        <path id="Path_1328732" data-name="Path 1328732" d="M6.726,21.926V41.518a.8.8,0,0,0,.8.8H22.757a.8.8,0,0,0,.8-.8V21.926a.8.8,0,0,0-.8-.8H7.522a.8.8,0,0,0-.8.8Zm0,0" fill="#f44545"/>
        <path id="Path_1328733" data-name="Path 1328733" d="M44.014,39.506a7.2,7.2,0,1,1-6.047-7.115A7.21,7.21,0,0,1,44.014,39.506Zm0,0" fill="#5db33a"/>
        <path id="Path_1328734" data-name="Path 1328734" d="M44.014,39.506a7.21,7.21,0,0,1-6.047,7.115,7.209,7.209,0,0,1,0-14.23A7.209,7.209,0,0,1,44.014,39.506Zm0,0" fill="#6dc54a"/>
        <path id="Path_1328735" data-name="Path 1328735" d="M36.828,54.18A14.737,14.737,0,0,1,26.162,29.266,15.188,15.188,0,0,1,34.6,24.821c-.574-.917-.79-1.145-.767-1.688a1.411,1.411,0,0,1,2.443-.9l2.69,2.913a1.41,1.41,0,0,1-.023,1.936l-2.768,2.857a1.409,1.409,0,0,1-2.453-.985l.028-1.094-1.027.377a11.926,11.926,0,1,0,12.928,3.178,1.415,1.415,0,0,1,1.033-2.377,1.373,1.373,0,0,1,1.025.45A14.746,14.746,0,0,1,36.828,54.18Zm0,0" fill="#5db33a"/>
        <path id="Path_1328736" data-name="Path 1328736" d="M19.369,53.363H3.613a1.993,1.993,0,0,1-1.991-1.992V15.314a.811.811,0,1,0-1.622,0V51.372a3.617,3.617,0,0,0,3.613,3.613H19.369a.811.811,0,0,0,0-1.621Zm0,0"/>
        <path id="Path_1328737" data-name="Path 1328737" d="M15.977,2.315H10.595a.811.811,0,1,0,0,1.621h5.382a.811.811,0,0,0,0-1.621Zm0,0"/>
        <path id="Path_1328738" data-name="Path 1328738" d="M20.238,3.195a.811.811,0,1,1-.811-.811A.811.811,0,0,1,20.238,3.195Zm0,0"/>
        <path id="Path_1328739" data-name="Path 1328739" d="M37.095,42.082a.808.808,0,0,0-.558.034c-.919-.078-1.19-.788-1.591-.788-.32,0-.589.434-.589.723,0,.492.7,1.039,1.695,1.219v.865a.811.811,0,0,0,1.622,0v-.93a2.047,2.047,0,0,0,1.53-2.115c0-2.676-3.317-2.232-3.317-3.513a.743.743,0,0,1,.616-.725.807.807,0,0,0,.817-.057c.655.069.876.378,1.16.378.372,0,.538-.475.538-.713,0-.5-.718-.708-1.344-.786v-.826a.811.811,0,1,0-1.621,0v.921A1.909,1.909,0,0,0,34.543,37.7c0,2.449,3.317,1.974,3.317,3.524a.864.864,0,0,1-.765.857Zm0,0"/>
        <path id="Path_1328740" data-name="Path 1328740" d="M48.282,28.954a2.219,2.219,0,0,0-3.255,3.017A11.1,11.1,0,0,1,30.28,48.421V44.142a8.018,8.018,0,1,0,0-9.3v-4.38A11.031,11.031,0,0,1,32.9,29.047a2.22,2.22,0,0,0,3.845,1.469l2.765-2.855a2.22,2.22,0,0,0,.036-3.049L36.855,21.7a2.221,2.221,0,0,0-3.846,1.416,2.2,2.2,0,0,0,.284,1.18,15.363,15.363,0,0,0-3.013,1.035V3.613A3.617,3.617,0,0,0,26.666,0H3.613A3.617,3.617,0,0,0,0,3.613V12.07a.811.811,0,1,0,1.622,0V3.613A1.993,1.993,0,0,1,3.613,1.622H6.688l.687,3.517a1.471,1.471,0,0,0,1.44,1.185H21.56a1.463,1.463,0,0,0,1.446-1.218l.6-3.484h3.059a1.993,1.993,0,0,1,1.992,1.991V26.2a15.211,15.211,0,0,0-1.3.9V9.641a2.205,2.205,0,0,0-2.2-2.2H5.127a2.2,2.2,0,0,0-2.2,2.2V49.884a2.205,2.205,0,0,0,2.2,2.2H25.153a2.2,2.2,0,0,0,1.656-.752,15.565,15.565,0,0,0,1.521,1.13,1.988,1.988,0,0,1-1.664.9H22.612a.811.811,0,1,0,0,1.621h4.054a3.613,3.613,0,0,0,3.066-1.7,15.545,15.545,0,0,0,18.55-24.327ZM36.806,33.1a6.4,6.4,0,1,1-6.4,6.4A6.4,6.4,0,0,1,36.806,33.1ZM21.43,4.7H8.942l-.6-3.081H21.961Zm3.723,45.763H5.126a.582.582,0,0,1-.582-.582V9.641a.582.582,0,0,1,.582-.582H25.153a.582.582,0,0,1,.582.582v18.9a15.754,15.754,0,0,0-1.37,1.59V26.955a.811.811,0,1,0-1.621,0v5.866A15.5,15.5,0,0,0,21.4,41.5H7.536V21.94H22.743v1.772a.811.811,0,1,0,1.621,0V21.926a1.609,1.609,0,0,0-1.608-1.608h-2.59v-1.29a5.027,5.027,0,1,0-10.054,0v1.29H7.522a1.609,1.609,0,0,0-1.608,1.608V41.517a1.609,1.609,0,0,0,1.608,1.608H21.7a15.537,15.537,0,0,0,3.92,7.1.578.578,0,0,1-.47.24ZM11.734,20.318v-1.29a3.406,3.406,0,1,1,6.811,0v1.29Zm16.924,30.4A13.925,13.925,0,0,1,30.28,27.144a15.613,15.613,0,0,1,4.483-1.516.811.811,0,0,0,.509-1.221c-.6-.958-.654-.988-.643-1.225a.6.6,0,0,1,1.034-.381l2.688,2.911a.6.6,0,0,1-.01.82l-2.766,2.855a.6.6,0,0,1-.878.047c-.242-.234-.182-.4-.152-1.539a.811.811,0,0,0-1.09-.783,13.18,13.18,0,0,0-7.721,6.073,12.721,12.721,0,1,0,20.492-2.3.6.6,0,0,1,.859-.834A13.921,13.921,0,0,1,28.658,50.723Zm0-18.813V46.979A11.079,11.079,0,0,1,28.658,31.91Zm0,0"/>
      </g>
    </g>
  </g>
</svg>
