<svg xmlns="http://www.w3.org/2000/svg" xmlns:xlink="http://www.w3.org/1999/xlink" width="98" height="97.999" viewBox="0 0 98 97.999">
  <defs>
    <clipPath id="clip-path">
      <rect id="Rectangle_412572" data-name="Rectangle 412572" width="57" height="55" transform="translate(1140.051 3879)" fill="#fff" stroke="#707070" stroke-width="1"/>
    </clipPath>
  </defs>
  <g id="Group_1206227" data-name="Group 1206227" transform="translate(-1119.086 -3857.106)">
    <g id="Group_1204751" data-name="Group 1204751" transform="translate(1119.086 3857.106)">
      <g id="Group_1204438" data-name="Group 1204438">
        <g id="Group_1204285" data-name="Group 1204285">
          <g id="Group_1204180" data-name="Group 1204180">
            <g id="Group_1204143" data-name="Group 1204143">
              <g id="Group_1188789" data-name="Group 1188789" transform="translate(0)">
                <path id="Path_1243039" data-name="Path 1243039" d="M41.05,0h0a41.05,41.05,0,0,1,0,82.1h0a41.05,41.05,0,0,1,0-82.1Z" transform="translate(7.951 7.949)" fill="#ffc63f"/>
                <rect id="Rectangle_400907" data-name="Rectangle 400907" width="88.438" height="88.437" rx="44.218" transform="translate(4.782 4.781)" fill="none"/>
                <g id="Group_1098742" data-name="Group 1098742" transform="translate(0)">
                  <g id="Rectangle_400898" data-name="Rectangle 400898" transform="translate(0)" fill="none" stroke="#fff" stroke-width="2" opacity="0.859">
                    <rect width="98" height="97.999" rx="48.999" stroke="none"/>
                    <rect x="1" y="1" width="96" height="95.999" rx="47.999" fill="none"/>
                  </g>
                  <g id="Rectangle_400907-2" data-name="Rectangle 400907" transform="translate(0)" fill="none" stroke="#0f1f33" stroke-linecap="round" stroke-width="2">
                    <rect width="98" height="97.999" rx="48.999" stroke="none"/>
                    <rect x="1" y="1" width="96" height="95.999" rx="47.999" fill="none"/>
                  </g>
                </g>
              </g>
            </g>
          </g>
        </g>
      </g>
    </g>
    <g id="Mask_Group_1099537" data-name="Mask Group 1099537" clip-path="url(#clip-path)">
      <g id="chat_3548488" transform="translate(1139.864 3877.814)">
        <g id="Group_1207117" data-name="Group 1207117">
          <g id="Group_1207116" data-name="Group 1207116">
            <g id="XMLID_1_">
              <path id="Path_1328666" data-name="Path 1328666" d="M15.846,5.779l7.425,12.858H8.424Z" fill="#ff4756"/>
              <path id="Path_1328667" data-name="Path 1328667" d="M30.726,5.328V19.091a3.2,3.2,0,0,1-3.2,3.2H15.257l-4.2,7.28L6.848,22.287H4.165a3.2,3.2,0,0,1-3.2-3.2V5.328a3.2,3.2,0,0,1,3.2-3.2H27.522a3.2,3.2,0,0,1,3.2,3.2ZM23.271,18.636,15.846,5.779,8.424,18.636Z" fill="#96cc7e"/>
              <g id="Group_1207115" data-name="Group 1207115">
                <circle id="Ellipse_13015" data-name="Ellipse 13015" cx="2.086" cy="2.086" r="2.086" transform="translate(47.22 35.804)" fill="#e6cd51"/>
                <circle id="Ellipse_13016" data-name="Ellipse 13016" cx="2.086" cy="2.086" r="2.086" transform="translate(39.444 35.804)" fill="#e6cd51"/>
                <circle id="Ellipse_13017" data-name="Ellipse 13017" cx="2.086" cy="2.086" r="2.086" transform="translate(31.665 35.804)" fill="#e6cd51"/>
              </g>
              <path id="Path_1328668" data-name="Path 1328668" d="M56.408,31.009V44.772a3.2,3.2,0,0,1-3.2,3.2H50.525l-4.2,7.28-4.2-7.28H29.851a3.2,3.2,0,0,1-3.2-3.2V31.009a3.2,3.2,0,0,1,3.2-3.2H53.207a3.2,3.2,0,0,1,3.2,3.2Zm-5.015,6.881a2.085,2.085,0,1,0-2.086,2.086A2.085,2.085,0,0,0,51.393,37.891Zm-7.779,0a2.085,2.085,0,1,0-2.083,2.086A2.081,2.081,0,0,0,43.613,37.891Zm-7.779,0a2.083,2.083,0,1,0-2.083,2.086A2.081,2.081,0,0,0,35.834,37.891Z" fill="#ffe25b"/>
            </g>
          </g>
        </g>
        <g id="Group_1207131" data-name="Group 1207131">
          <g id="Group_1207124" data-name="Group 1207124">
            <g id="Group_1207118" data-name="Group 1207118">
              <path id="Path_1328669" data-name="Path 1328669" d="M11.054,30.35a.785.785,0,0,1-.678-.391L6.4,23.07H4.169A3.987,3.987,0,0,1,.186,19.087V5.324A3.987,3.987,0,0,1,4.169,1.341H27.526a3.987,3.987,0,0,1,3.983,3.983V19.087a3.987,3.987,0,0,1-3.983,3.983H15.708l-3.979,6.889a.775.775,0,0,1-.674.391ZM4.169,2.91A2.42,2.42,0,0,0,1.751,5.328V19.091a2.42,2.42,0,0,0,2.418,2.418H6.852a.785.785,0,0,1,.678.391l3.525,6.106L14.579,21.9a.785.785,0,0,1,.678-.391H27.526a2.42,2.42,0,0,0,2.418-2.418V5.324a2.42,2.42,0,0,0-2.418-2.418H4.169Z"/>
            </g>
            <g id="Group_1207123" data-name="Group 1207123">
              <g id="Group_1207119" data-name="Group 1207119">
                <path id="Path_1328670" data-name="Path 1328670" d="M23.271,19.419H8.424a.785.785,0,0,1-.678-.391.774.774,0,0,1,0-.782L15.171,5.387a.783.783,0,0,1,1.356,0l7.425,12.858a.774.774,0,0,1,0,.782.791.791,0,0,1-.682.391ZM9.776,17.854H21.915L15.846,7.343Z"/>
              </g>
              <g id="Group_1207122" data-name="Group 1207122">
                <g id="Group_1207120" data-name="Group 1207120">
                  <path id="Path_1328671" data-name="Path 1328671" d="M15.846,14.918a.782.782,0,0,1-.782-.782v-3.6a.782.782,0,0,1,1.565,0v3.6a.782.782,0,0,1-.782.782Z"/>
                </g>
                <g id="Group_1207121" data-name="Group 1207121">
                  <path id="Path_1328672" data-name="Path 1328672" d="M15.846,17.261a.782.782,0,0,1-.782-.782v-.406a.782.782,0,1,1,1.565,0v.406A.782.782,0,0,1,15.846,17.261Z"/>
                </g>
              </g>
            </g>
          </g>
          <g id="Group_1207130" data-name="Group 1207130">
            <g id="Group_1207125" data-name="Group 1207125">
              <path id="Path_1328673" data-name="Path 1328673" d="M46.322,56.031a.785.785,0,0,1-.678-.391l-3.979-6.889H29.847a3.987,3.987,0,0,1-3.983-3.983V31.006a3.987,3.987,0,0,1,3.983-3.983H53.2a3.987,3.987,0,0,1,3.983,3.983V44.768A3.987,3.987,0,0,1,53.2,48.751H50.975L47,55.64a.77.77,0,0,1-.674.391ZM29.851,28.591a2.42,2.42,0,0,0-2.418,2.418V44.772a2.42,2.42,0,0,0,2.418,2.418H42.119a.785.785,0,0,1,.678.391l3.525,6.106,3.528-6.11a.785.785,0,0,1,.678-.391h2.683a2.42,2.42,0,0,0,2.418-2.418V31.006a2.42,2.42,0,0,0-2.418-2.418H29.851Z"/>
            </g>
            <g id="Group_1207129" data-name="Group 1207129">
              <g id="Group_1207126" data-name="Group 1207126">
                <path id="Path_1328674" data-name="Path 1328674" d="M49.31,40.756a2.869,2.869,0,1,1,2.869-2.869A2.872,2.872,0,0,1,49.31,40.756Zm0-4.169a1.3,1.3,0,1,0,1.3,1.3A1.305,1.305,0,0,0,49.31,36.587Z"/>
              </g>
              <g id="Group_1207127" data-name="Group 1207127">
                <path id="Path_1328675" data-name="Path 1328675" d="M41.531,40.756A2.869,2.869,0,1,1,44.4,37.887,2.872,2.872,0,0,1,41.531,40.756Zm0-4.169a1.3,1.3,0,1,0,1.3,1.3A1.305,1.305,0,0,0,41.531,36.587Z"/>
              </g>
              <g id="Group_1207128" data-name="Group 1207128">
                <path id="Path_1328676" data-name="Path 1328676" d="M33.751,40.756a2.869,2.869,0,1,1,2.869-2.869A2.869,2.869,0,0,1,33.751,40.756Zm0-4.169a1.3,1.3,0,1,0,1.3,1.3A1.3,1.3,0,0,0,33.751,36.587Z"/>
              </g>
            </g>
          </g>
        </g>
      </g>
    </g>
  </g>
</svg>
