<svg xmlns="http://www.w3.org/2000/svg" xmlns:xlink="http://www.w3.org/1999/xlink" width="98" height="97.998" viewBox="0 0 98 97.998">
  <defs>
    <clipPath id="clip-path">
      <rect id="Rectangle_412572" data-name="Rectangle 412572" width="57" height="55" transform="translate(1140.051 3879)" fill="#fff" stroke="#707070" stroke-width="1"/>
    </clipPath>
  </defs>
  <g id="Group_1206218" data-name="Group 1206218" transform="translate(-1119.086 -3857.107)">
    <g id="Group_1204751" data-name="Group 1204751" transform="translate(1119.086 3857.106)">
      <g id="Group_1204438" data-name="Group 1204438">
        <g id="Group_1204285" data-name="Group 1204285">
          <g id="Group_1204180" data-name="Group 1204180">
            <g id="Group_1204143" data-name="Group 1204143">
              <g id="Group_1188789" data-name="Group 1188789" transform="translate(0)">
                <path id="Path_1243039" data-name="Path 1243039" d="M41.05,0h0a41.05,41.05,0,0,1,0,82.1h0a41.05,41.05,0,0,1,0-82.1Z" transform="translate(7.951 7.949)" fill="#ffc63f"/>
                <rect id="Rectangle_400907" data-name="Rectangle 400907" width="88.438" height="88.437" rx="44.218" transform="translate(4.782 4.781)" fill="none"/>
                <g id="Group_1098742" data-name="Group 1098742" transform="translate(0)">
                  <g id="Rectangle_400898" data-name="Rectangle 400898" transform="translate(0)" fill="none" stroke="#fff" stroke-width="2" opacity="0.859">
                    <rect width="98" height="97.999" rx="48.999" stroke="none"/>
                    <rect x="1" y="1" width="96" height="95.999" rx="47.999" fill="none"/>
                  </g>
                  <g id="Rectangle_400907-2" data-name="Rectangle 400907" transform="translate(0)" fill="none" stroke="#0f1f33" stroke-linecap="round" stroke-width="2">
                    <rect width="98" height="97.999" rx="48.999" stroke="none"/>
                    <rect x="1" y="1" width="96" height="95.999" rx="47.999" fill="none"/>
                  </g>
                </g>
              </g>
            </g>
          </g>
        </g>
      </g>
    </g>
    <g id="Mask_Group_1099533" data-name="Mask Group 1099533" clip-path="url(#clip-path)">
      <g id="objectives_18493161" transform="translate(1140.724 3878.673)">
        <g id="Group_1207110" data-name="Group 1207110">
          <path id="Path_1328616" data-name="Path 1328616" d="M8.132,54.458H33.419a1.2,1.2,0,0,0,1.192-1.192V9.438a1.2,1.2,0,0,0-1.192-1.192H8.132A1.2,1.2,0,0,0,6.942,9.438V53.266a1.2,1.2,0,0,0,1.189,1.192Z" fill="#9ed5ff" fill-rule="evenodd"/>
          <path id="Path_1328617" data-name="Path 1328617" d="M27.075,12.137l1.214-3.892H13.265l1.214,3.892Z" fill="#6173bf" fill-rule="evenodd"/>
          <path id="Path_1328618" data-name="Path 1328618" d="M11.533,34.994H17.7V42.8H11.533Z" fill="#ff4f6c"/>
          <path id="Path_1328619" data-name="Path 1328619" d="M17.7,27.639h6.162V42.8H17.7Z" fill="#fadc60"/>
          <path id="Path_1328620" data-name="Path 1328620" d="M23.858,20.444h6.159V42.8H23.858Z" fill="#58b78c"/>
          <path id="Path_1328621" data-name="Path 1328621" d="M31.725,29.032A10.851,10.851,0,1,0,20.873,18.18,10.872,10.872,0,0,0,31.725,29.032Z" fill="#ff4f6c" fill-rule="evenodd"/>
          <path id="Path_1328622" data-name="Path 1328622" d="M31.725,25.5A7.323,7.323,0,1,0,24.4,18.18,7.336,7.336,0,0,0,31.725,25.5Z" fill="#f7f7f7" fill-rule="evenodd"/>
          <path id="Path_1328623" data-name="Path 1328623" d="M27.919,17.3a.866.866,0,0,1,.018,1.732l-1.384.022a.866.866,0,1,1-.022-1.732l1.387-.022Zm4.68-2.93a.866.866,0,1,1-1.732.022l-.022-1.387a.867.867,0,0,1,1.735-.018l.018,1.384Zm2.93,4.684a.866.866,0,1,1-.022-1.732l1.387-.022a.866.866,0,0,1,.018,1.732l-1.384.022Zm-4.683,2.927a.867.867,0,0,1,1.735-.018L32.6,23.35a.866.866,0,1,1-1.732.022l-.022-1.387Z" fill="#dbdbdb"/>
          <path id="Path_1328624" data-name="Path 1328624" d="M34.612,47.63H6.942v5.636a1.2,1.2,0,0,0,1.189,1.192H33.419a1.2,1.2,0,0,0,1.192-1.192Z" fill="#6173bf" fill-rule="evenodd"/>
          <path id="Path_1328625" data-name="Path 1328625" d="M18.836,51.913a.869.869,0,1,1,0-1.738h3.882a.869.869,0,1,1,0,1.738Z" fill="#f7f7f7"/>
          <path id="Path_1328626" data-name="Path 1328626" d="M31.725,21.976a3.795,3.795,0,1,0-3.8-3.8A3.8,3.8,0,0,0,31.725,21.976Z" fill="#ff4f6c" fill-rule="evenodd"/>
          <path id="Path_1328627" data-name="Path 1328627" d="M32.338,18.8a.869.869,0,0,1-1.229-1.229L42.774,5.9A.87.87,0,0,1,44,7.133Z" fill="#dbdbdb"/>
          <path id="Path_1328628" data-name="Path 1328628" d="M41.471,5.115l.32,3,3,.32,3.922-3.919-2.7-.622-.619-2.7Z" fill="#fadc60" fill-rule="evenodd"/>
        </g>
        <path id="Path_1328629" data-name="Path 1328629" d="M23.587,51.047a.869.869,0,0,1-.869.869H18.836a.869.869,0,1,1,0-1.738h3.882A.869.869,0,0,1,23.587,51.047ZM49.326,5.129,45.407,9.048a.869.869,0,0,1-.614.254.891.891,0,0,1-.091,0l-2.589-.274L40.6,10.538a11.714,11.714,0,0,1-5.118,18.748V53.269a2.061,2.061,0,0,1-2.058,2.058H8.132a2.061,2.061,0,0,1-2.058-2.058V9.441A2.062,2.062,0,0,1,8.132,7.38H27.137V7.4A11.7,11.7,0,0,1,39.369,9.309L40.883,7.8,40.61,5.207a.869.869,0,0,1,.25-.706L44.779.581A.869.869,0,0,1,46.24,1l.5,2.168,2.168.5a.869.869,0,0,1,.42,1.461ZM24.308,9.118H14.447l.671,2.151H22.27A11.817,11.817,0,0,1,24.308,9.118Zm9.435,44.151V48.5H7.811v4.767a.325.325,0,0,0,.32.32H33.422A.325.325,0,0,0,33.743,53.269Zm0-23.54a11.743,11.743,0,0,1-2.018.175c-.281,0-.559-.011-.835-.03V42.8a.869.869,0,0,1-.869.869H11.533a.869.869,0,0,1-.869-.869V35a.869.869,0,0,1,.869-.869h5.294V27.642a.869.869,0,0,1,.869-.869h5.294v-.787a11.7,11.7,0,0,1-1.775-12.98H14.479a.869.869,0,0,1-.829-.61L12.626,9.118H8.132a.326.326,0,0,0-.32.323V46.764H33.743ZM22.989,28.511H18.565V41.936h4.425Zm1.738,13.425h4.425V29.618a11.673,11.673,0,0,1-4.425-2.04Zm-7.9-6.07H12.4v6.07h4.425Zm22.539-24.1-1.272,1.272a8.2,8.2,0,1,1-1.229-1.229l1.272-1.272a9.992,9.992,0,1,0,1.229,1.229Zm-5.051,5.051L32.339,18.8a.869.869,0,0,1-1.229-1.229l1.974-1.974a2.926,2.926,0,1,0,1.23,1.227Zm1.314-3.772a6.46,6.46,0,1,0,1.229,1.229l-1.279,1.279a4.634,4.634,0,0,1,.729,1.755l.583-.009a.869.869,0,1,1,.027,1.738l-.611.01A4.677,4.677,0,0,1,32.6,22.765l.008.589a.869.869,0,0,1-.857.88h-.012a.869.869,0,0,1-.869-.857l-.008-.611a4.676,4.676,0,0,1-3.714-3.711l-.584.009h-.014a.869.869,0,0,1-.013-1.738l.61-.01A4.675,4.675,0,0,1,30.855,13.6l-.008-.589a.869.869,0,1,1,1.738-.023l.008.611a4.641,4.641,0,0,1,1.756.727l1.28-1.28ZM46.987,5.01l-1.169-.268a.869.869,0,0,1-.653-.653L44.9,2.921,42.381,5.436l.2,1.89,1.89.2L46.987,5.01Z"/>
      </g>
    </g>
  </g>
</svg>
