<svg xmlns="http://www.w3.org/2000/svg" xmlns:xlink="http://www.w3.org/1999/xlink" width="98" height="97.999" viewBox="0 0 98 97.999">
  <defs>
    <clipPath id="clip-path">
      <rect id="Rectangle_412572" data-name="Rectangle 412572" width="57" height="55" transform="translate(1140.051 3879)" fill="#fff" stroke="#707070" stroke-width="1"/>
    </clipPath>
  </defs>
  <g id="Group_1207001" data-name="Group 1207001" transform="translate(-1119.086 -3857.106)">
    <g id="Group_1204751" data-name="Group 1204751" transform="translate(1119.086 3857.106)">
      <g id="Group_1204438" data-name="Group 1204438">
        <g id="Group_1204285" data-name="Group 1204285">
          <g id="Group_1204180" data-name="Group 1204180">
            <g id="Group_1204143" data-name="Group 1204143">
              <g id="Group_1188789" data-name="Group 1188789" transform="translate(0)">
                <path id="Path_1243039" data-name="Path 1243039" d="M41.05,0h0a41.05,41.05,0,0,1,0,82.1h0a41.05,41.05,0,0,1,0-82.1Z" transform="translate(7.951 7.949)" fill="#ffc63f"/>
                <rect id="Rectangle_400907" data-name="Rectangle 400907" width="88.438" height="88.437" rx="44.218" transform="translate(4.782 4.781)" fill="none"/>
                <g id="Group_1098742" data-name="Group 1098742" transform="translate(0)">
                  <g id="Rectangle_400898" data-name="Rectangle 400898" transform="translate(0)" fill="none" stroke="#fff" stroke-width="2" opacity="0.859">
                    <rect width="98" height="97.999" rx="48.999" stroke="none"/>
                    <rect x="1" y="1" width="96" height="95.999" rx="47.999" fill="none"/>
                  </g>
                  <g id="Rectangle_400907-2" data-name="Rectangle 400907" transform="translate(0)" fill="none" stroke="#0f1f33" stroke-linecap="round" stroke-width="2">
                    <rect width="98" height="97.999" rx="48.999" stroke="none"/>
                    <rect x="1" y="1" width="96" height="95.999" rx="47.999" fill="none"/>
                  </g>
                </g>
              </g>
            </g>
          </g>
        </g>
      </g>
    </g>
    <g id="Mask_Group_1099579" data-name="Mask Group 1099579" clip-path="url(#clip-path)">
      <g id="Layer_x0020_1" transform="translate(1137.811 3875.76)">
        <g id="_303360056">
          <g id="Group_1207336" data-name="Group 1207336">
            <path id="_303364376" d="M10.182,3.842H51.3v53.8H10.182Z" fill="#e4eaf8" fill-rule="evenodd"/>
            <path id="_303363752" d="M31.341,7.438a.6.6,0,1,0-1.2,0v2.5a.6.6,0,0,0,1.2,0Z" fill="#ffce00"/>
            <path id="_303363728" d="M38.668,9.723a.6.6,0,1,0-1.037-.6l-1.248,2.162a.6.6,0,0,0,1.037.6Z" fill="#ffce00"/>
            <path id="_303363464" d="M43.873,15.365a.6.6,0,1,0-.6-1.037l-2.162,1.248a.6.6,0,0,0,.6,1.037Z" fill="#ffce00"/>
            <path id="_303363104" d="M45.558,22.855a.6.6,0,1,0,0-1.2h-2.5a.6.6,0,1,0,0,1.2Z" fill="#ffce00"/>
            <path id="_303363440" d="M15.923,21.655a.6.6,0,1,0,0,1.2h2.5a.6.6,0,0,0,0-1.2Z" fill="#ffce00"/>
            <path id="_303363080" d="M18.209,14.328a.6.6,0,0,0-.6,1.037l2.162,1.248a.6.6,0,1,0,.6-1.037Z" fill="#ffce00"/>
            <path id="_303362960" d="M23.85,9.123a.6.6,0,1,0-1.037.6l1.248,2.162a.6.6,0,1,0,1.037-.6Z" fill="#ffce00"/>
            <path id="_303363224" d="M32.9,35.567H28.583v2.257a1.662,1.662,0,0,0,1.657,1.657h1A1.662,1.662,0,0,0,32.9,37.824Z" fill="#7b7d8c" fill-rule="evenodd"/>
            <path id="_303363008" d="M27.208,32.854l3.526,1.094,3.54-1.094.758-1.11a1.337,1.337,0,0,0,.243-.786V29.85a8.73,8.73,0,0,1,1.918-5.059,7.835,7.835,0,1,0-12.9,0,8.731,8.731,0,0,1,1.918,5.059v1.108a1.337,1.337,0,0,0,.243.786Z" fill="#ffce00" fill-rule="evenodd"/>
            <g id="Group_1207335" data-name="Group 1207335">
              <path id="_303363176" d="M34.052,21.751a.6.6,0,0,0-.868-.826,2.742,2.742,0,1,1,0-3.785.6.6,0,0,0,.868-.826,3.94,3.94,0,1,0,0,5.436Z" fill="#ffe886"/>
              <path id="_303362792" d="M14,42.824a.6.6,0,1,0,0,1.2H47.477a.6.6,0,1,0,0-1.2Z" fill="#6ebdfa"/>
              <path id="_303362600" d="M14,48.134a.6.6,0,0,0,0,1.2H47.477a.6.6,0,0,0,0-1.2Z" fill="#6ebdfa"/>
              <path id="_303362408" d="M14,53.444a.6.6,0,0,0,0,1.2H47.477a.6.6,0,1,0,0-1.2Z" fill="#6ebdfa"/>
              <path id="_303362384" d="M29.633,24.951a.6.6,0,1,0-1.2,0v7.9a.6.6,0,0,0,1.2,0Z" fill="#ffe886"/>
              <path id="_303362264" d="M33.049,24.951a.6.6,0,1,0-1.2,0v7.9a.6.6,0,0,0,1.2,0Z" fill="#ffe886"/>
              <path id="_303362144" d="M27.569,24.351a.6.6,0,0,0,0,1.2h6.344a.6.6,0,0,0,0-1.2Z" fill="#ffe886"/>
              <path id="_303362240" d="M29.3,26.373a.6.6,0,1,0-.544,1.069,4.163,4.163,0,0,0,3.961,0,.6.6,0,1,0-.544-1.069,2.974,2.974,0,0,1-2.872,0Z" fill="#ffe886"/>
            </g>
            <path id="_303362624" d="M27.208,32.854h7.066v2.43a.886.886,0,0,1-.884.884h-5.3a.886.886,0,0,1-.884-.884Z" fill="#5c5e71" fill-rule="evenodd"/>
          </g>
          <g id="Group_1207337" data-name="Group 1207337">
            <path id="_303362864" d="M10.782,57.04H50.7V4.442H10.782Zm40.519,1.2H10.181a.6.6,0,0,1-.6-.6V3.841a.6.6,0,0,1,.6-.6H51.3a.6.6,0,0,1,.6.6v53.8a.6.6,0,0,1-.6.6Z" fill-rule="evenodd"/>
            <path id="_303362024" d="M30.74,10.532a.6.6,0,0,1-.6-.6v-2.5a.6.6,0,1,1,1.2,0v2.5a.6.6,0,0,1-.6.6Z" fill-rule="evenodd"/>
            <path id="_303361976" d="M36.9,12.183a.59.59,0,0,1-.3-.08.6.6,0,0,1-.22-.821L37.63,9.121a.6.6,0,1,1,1.039.6l-1.248,2.161a.6.6,0,0,1-.52.3Z" fill-rule="evenodd"/>
            <path id="_303361616" d="M41.413,16.694a.6.6,0,0,1-.3-1.121l2.163-1.248a.6.6,0,0,1,.6,1.041l-2.163,1.248a.6.6,0,0,1-.3.08Z" fill-rule="evenodd"/>
            <path id="_303361808" d="M45.559,22.854h-2.5a.6.6,0,1,1,0-1.2h2.5a.6.6,0,0,1,0,1.2Z" fill-rule="evenodd"/>
            <path id="_303361712" d="M18.418,22.854h-2.5a.6.6,0,1,1,0-1.2h2.5a.6.6,0,0,1,0,1.2Z" fill-rule="evenodd"/>
            <path id="_303361496" d="M20.069,16.694a.608.608,0,0,1-.3-.08l-2.161-1.248a.6.6,0,1,1,.6-1.041l2.162,1.248a.6.6,0,0,1-.3,1.121Z" fill-rule="evenodd"/>
            <path id="_303361856" d="M24.58,12.183a.6.6,0,0,1-.521-.3L22.811,9.722a.6.6,0,1,1,1.041-.6L25.1,11.283a.6.6,0,0,1-.219.821A.593.593,0,0,1,24.58,12.183Z" fill-rule="evenodd"/>
            <path id="_303361112" d="M27.807,33.454v1.83a.287.287,0,0,0,.284.283h5.3a.286.286,0,0,0,.283-.283v-1.83Zm5.584,3.314h-5.3a1.486,1.486,0,0,1-1.485-1.483v-2.43a.6.6,0,0,1,.6-.6h7.067a.6.6,0,0,1,.6.6v2.43a1.485,1.485,0,0,1-1.484,1.483Z" fill-rule="evenodd"/>
            <path id="_303360896" d="M31.242,40.082h-1a2.26,2.26,0,0,1-2.257-2.258V36.167a.6.6,0,1,1,1.2,0v1.657a1.058,1.058,0,0,0,1.056,1.057h1A1.058,1.058,0,0,0,32.3,37.824V36.167a.6.6,0,1,1,1.2,0v1.657a2.261,2.261,0,0,1-2.258,2.258Z" fill-rule="evenodd"/>
            <path id="_303360800" d="M29.032,33.454a.6.6,0,0,1-.6-.6v-7.9a.6.6,0,1,1,1.2,0v7.9A.6.6,0,0,1,29.032,33.454Z" fill-rule="evenodd"/>
            <path id="_303360656" d="M32.449,33.454a.6.6,0,0,1-.6-.6v-7.9a.6.6,0,1,1,1.2,0v7.9A.6.6,0,0,1,32.449,33.454Z" fill-rule="evenodd"/>
            <path id="_303361280" d="M33.913,25.551H27.568a.6.6,0,1,1,0-1.2h6.345a.6.6,0,0,1,0,1.2Z" fill-rule="evenodd"/>
            <path id="_303361064" d="M30.74,27.944a4.346,4.346,0,0,1-1.982-.5.6.6,0,0,1,.545-1.071,2.974,2.974,0,0,0,2.872,0,.6.6,0,0,1,.545,1.071A4.345,4.345,0,0,1,30.74,27.944Z" fill-rule="evenodd"/>
            <path id="_303361328" d="M34.273,33.454a.6.6,0,0,1-.494-.939l.758-1.109a.745.745,0,0,0,.138-.448V29.85a9.376,9.376,0,0,1,2.025-5.4,7.236,7.236,0,1,0-11.917,0,9.383,9.383,0,0,1,2.024,5.4v1.107a.747.747,0,0,0,.137.448l.759,1.109a.6.6,0,0,1-.992.678l-.758-1.111a1.929,1.929,0,0,1-.348-1.125V29.85a8.135,8.135,0,0,0-1.813-4.718,8.436,8.436,0,1,1,13.894,0,8.135,8.135,0,0,0-1.812,4.718v1.107a1.937,1.937,0,0,1-.347,1.125l-.759,1.111a.6.6,0,0,1-.5.261Z" fill-rule="evenodd"/>
            <path id="_303360608" d="M31.2,22.971a3.94,3.94,0,1,1,2.85-6.659.6.6,0,0,1-.869.829,2.739,2.739,0,1,0,0,3.781.6.6,0,0,1,.869.831A3.911,3.911,0,0,1,31.2,22.971Z" fill-rule="evenodd"/>
            <path id="_303360704" d="M47.478,44.025H14a.6.6,0,1,1,0-1.2H47.478a.6.6,0,0,1,0,1.2Z" fill-rule="evenodd"/>
            <path id="_303360872" d="M47.478,49.335H14a.6.6,0,1,1,0-1.2H47.478a.6.6,0,0,1,0,1.2Z" fill-rule="evenodd"/>
            <path id="_303361016" d="M47.478,54.646H14a.6.6,0,1,1,0-1.2H47.478a.6.6,0,0,1,0,1.2Z" fill-rule="evenodd"/>
          </g>
        </g>
      </g>
    </g>
  </g>
</svg>
