<svg xmlns="http://www.w3.org/2000/svg" xmlns:xlink="http://www.w3.org/1999/xlink" width="98" height="97.999" viewBox="0 0 98 97.999">
  <defs>
    <clipPath id="clip-path">
      <rect id="Rectangle_412572" data-name="Rectangle 412572" width="57" height="55" transform="translate(1140.051 3879)" fill="#fff" stroke="#707070" stroke-width="1"/>
    </clipPath>
  </defs>
  <g id="Group_1206566" data-name="Group 1206566" transform="translate(-1119.086 -3857.106)">
    <g id="Group_1204751" data-name="Group 1204751" transform="translate(1119.086 3857.106)">
      <g id="Group_1204438" data-name="Group 1204438">
        <g id="Group_1204285" data-name="Group 1204285">
          <g id="Group_1204180" data-name="Group 1204180">
            <g id="Group_1204143" data-name="Group 1204143">
              <g id="Group_1188789" data-name="Group 1188789" transform="translate(0)">
                <path id="Path_1243039" data-name="Path 1243039" d="M41.05,0h0a41.05,41.05,0,0,1,0,82.1h0a41.05,41.05,0,0,1,0-82.1Z" transform="translate(7.951 7.949)" fill="#ffc63f"/>
                <rect id="Rectangle_400907" data-name="Rectangle 400907" width="88.438" height="88.437" rx="44.218" transform="translate(4.782 4.781)" fill="none"/>
                <g id="Group_1098742" data-name="Group 1098742" transform="translate(0)">
                  <g id="Rectangle_400898" data-name="Rectangle 400898" transform="translate(0)" fill="none" stroke="#fff" stroke-width="2" opacity="0.859">
                    <rect width="98" height="97.999" rx="48.999" stroke="none"/>
                    <rect x="1" y="1" width="96" height="95.999" rx="47.999" fill="none"/>
                  </g>
                  <g id="Rectangle_400907-2" data-name="Rectangle 400907" transform="translate(0)" fill="none" stroke="#0f1f33" stroke-linecap="round" stroke-width="2">
                    <rect width="98" height="97.999" rx="48.999" stroke="none"/>
                    <rect x="1" y="1" width="96" height="95.999" rx="47.999" fill="none"/>
                  </g>
                </g>
              </g>
            </g>
          </g>
        </g>
      </g>
    </g>
    <g id="Mask_Group_1099552" data-name="Mask Group 1099552" clip-path="url(#clip-path)">
      <g id="superb_17746433" transform="translate(1139.128 3877.077)">
        <g id="Group_1207211" data-name="Group 1207211">
          <circle id="Ellipse_13042" data-name="Ellipse 13042" cx="7.5" cy="7.5" r="7.5" transform="translate(24.267 6.212)" fill="#efc7a4"/>
          <path id="Path_1328920" data-name="Path 1328920" d="M46.274,38.467c0,8.013-29.014,8.013-29.014,0a14.507,14.507,0,0,1,29.014,0Z" fill="#66d4f1" fill-rule="evenodd"/>
          <path id="Path_1328921" data-name="Path 1328921" d="M54.231,36.594a2.884,2.884,0,0,1,2.885,2.885v7.16a2.884,2.884,0,0,1-2.885,2.885H7.5V36.594Z" fill="#f4f6f8" fill-rule="evenodd"/>
          <g id="Group_1207210" data-name="Group 1207210">
            <path id="Path_1328922" data-name="Path 1328922" d="M27.714,38.739l1.072,3.3h3.47l-2.807,2.039,1.072,3.3-2.807-2.039-2.807,2.039,1.072-3.3-2.807-2.039h3.47Z" fill="#fdcd56" fill-rule="evenodd"/>
            <path id="Path_1328923" data-name="Path 1328923" d="M39.037,38.739l1.072,3.3h3.47l-2.807,2.039,1.072,3.3-2.807-2.039L36.23,47.378l1.072-3.3-2.807-2.039h3.47Z" fill="#fdcd56" fill-rule="evenodd"/>
            <path id="Path_1328924" data-name="Path 1328924" d="M50.36,38.739l1.072,3.3H54.9l-2.807,2.039,1.072,3.3L50.36,45.339l-2.807,2.039,1.072-3.3-2.807-2.039h3.47Z" fill="#fdcd56" fill-rule="evenodd"/>
          </g>
          <circle id="Ellipse_13043" data-name="Ellipse 13043" cx="9.609" cy="9.609" r="9.609" transform="translate(1.731 33.449)" fill="#e4e8eb"/>
          <path id="Path_1328925" data-name="Path 1328925" d="M7.189,42.807a.4.4,0,0,1,.124-.3.384.384,0,0,1,.3-.12l.546.038a.409.409,0,0,0,.424-.392c.253-.876,1.364-2.011,1.484-2.507l.665-2.739a1.316,1.316,0,1,1,2.558.621l-.7,2.988a.461.461,0,0,0,.144.459c.131.118.219.1,1.111.106l2.888,0a.923.923,0,0,1,.917.982c-.062.7-.787,1.042-1.538.979.5.108,1.344.215,1.361.988.016.724-.661,1.028-1.506.979a1.06,1.06,0,0,1,1.043.988c.008.751-.539,1.058-1.372,1.055a.953.953,0,0,1,.809.913.986.986,0,0,1-.989.994l-5.488.014a6.9,6.9,0,0,1-1.393-.472l-1.058-.262a.443.443,0,0,1-.444-.442Z" fill="#efc7a4" fill-rule="evenodd"/>
          <path id="Path_1328926" data-name="Path 1328926" d="M8.012,48.777l-1.512,0a.6.6,0,0,1-.6-.594q-.01-3.073-.022-6.147a.6.6,0,0,1,.594-.6l1.511,0a.6.6,0,0,1,.6.593q.011,3.073.021,6.147a.594.594,0,0,1-.593.6Z" fill="#f4f6f8"/>
        </g>
        <path id="Path_1328927" data-name="Path 1328927" d="M18.8,50.284a10.416,10.416,0,1,1-1.776-16,15.319,15.319,0,0,1,29.829,1.46h7.383a3.692,3.692,0,0,1,3.692,3.692v7.16a3.692,3.692,0,0,1-3.692,3.692Zm-.385-14.92q.2.183.385.375H45.2a13.7,13.7,0,0,0-26.794-.375Zm1.677,1.991a10.414,10.414,0,0,1,0,11.314H54.231a2.077,2.077,0,0,0,2.077-2.077v-7.16a2.077,2.077,0,0,0-2.077-2.077ZM11.34,34.21a8.8,8.8,0,1,0,8.8,8.8A8.806,8.806,0,0,0,11.34,34.21ZM8.8,49.3a1.351,1.351,0,0,1-.784.239h0l-1.51,0a1.406,1.406,0,0,1-1.406-1.4Q5.085,45.07,5.074,42h0a1.4,1.4,0,0,1,1.4-1.406l1.51,0a1.392,1.392,0,0,1,.385.052c.112-.175.231-.348.35-.515.234-.329.545-.812.569-.85l.661-2.72a2.124,2.124,0,0,1,4.129,1l-.6,2.555.369,0,2.884,0q.036,0,.072,0a1.7,1.7,0,0,1,1.651,1.858,1.732,1.732,0,0,1-.43,1.007,1.732,1.732,0,0,1-.327,2.2,1.787,1.787,0,0,1,.12.645,1.735,1.735,0,0,1-.46,1.259,1.6,1.6,0,0,1-.191.172,1.68,1.68,0,0,1,.088.545,1.781,1.781,0,0,1-1.779,1.8h-.016l-5.488.014h0a2.56,2.56,0,0,1-.692-.142c-.155-.051-.323-.113-.477-.172Zm.595-7.186.019,5.67L10,48l5.446-.014a.19.19,0,0,0,.192-.186.123.123,0,0,0-.111-.113.808.808,0,0,1,.113-1.608c.294,0,.564.026.562-.239,0-.191-.23-.185-.309-.192a.808.808,0,0,1,.121-1.611A1.606,1.606,0,0,0,16.474,44c.089-.022.19-.031.188-.123,0-.069-.086-.057-.138-.076a4.3,4.3,0,0,0-.585-.141.808.808,0,0,1,.237-1.595,1.052,1.052,0,0,0,.478-.06c.09-.036.179-.085.188-.185.005-.058-.061-.09-.154-.1l-2.845,0h-.007A10.246,10.246,0,0,1,12.8,41.7a1.019,1.019,0,0,1-.612-.285h0a1.249,1.249,0,0,1-.389-1.245l.7-2.988v0a.51.51,0,0,0-.374-.615h0a.509.509,0,0,0-.614.374l-.665,2.739a4.054,4.054,0,0,1-.628,1.122,6.559,6.559,0,0,0-.832,1.319Zm-2.7.09q.01,2.861.02,5.723l1.086,0L7.777,42.2Zm21.872-3.761.891,2.742h2.883a.808.808,0,0,1,.475,1.461L30.478,44.34l.891,2.742a.808.808,0,0,1-1.243.9L27.794,46.29l-2.332,1.694a.808.808,0,0,1-1.243-.9l.891-2.742-2.332-1.695a.808.808,0,0,1,.475-1.461h2.883l.891-2.742a.808.808,0,0,1,1.536,0Zm-.768,2.863-.3.936a.808.808,0,0,1-.768.558h-.984l.8.578a.808.808,0,0,1,.293.9l-.3.936.8-.578a.808.808,0,0,1,.95,0l.8.578-.3-.936a.808.808,0,0,1,.293-.9l.8-.578h-.984a.808.808,0,0,1-.768-.558Zm12.091-2.863.891,2.742h2.883a.808.808,0,0,1,.475,1.461L41.8,44.34l.891,2.742a.808.808,0,0,1-1.243.9L39.117,46.29l-2.332,1.694a.808.808,0,0,1-1.243-.9l.891-2.742L34.1,42.645a.808.808,0,0,1,.475-1.461h2.883l.891-2.742a.808.808,0,0,1,1.536,0Zm-.768,2.863-.3.936a.808.808,0,0,1-.768.558h-.984l.8.578a.808.808,0,0,1,.293.9l-.3.936.8-.578a.808.808,0,0,1,.95,0l.8.578-.3-.936a.808.808,0,0,1,.293-.9l.8-.578h-.984a.808.808,0,0,1-.768-.558Zm12.091-2.863.891,2.742h2.883a.808.808,0,0,1,.475,1.461L53.124,44.34l.891,2.742a.808.808,0,0,1-1.243.9L50.44,46.29l-2.332,1.694a.808.808,0,0,1-1.243-.9l.891-2.742-2.332-1.695a.808.808,0,0,1,.475-1.461h2.883l.891-2.742a.808.808,0,0,1,1.536,0Zm-.768,2.863-.3.936a.808.808,0,0,1-.768.558h-.984l.8.578a.808.808,0,0,1,.293.9l-.3.936.8-.578a.808.808,0,0,1,.95,0l.8.578-.3-.936a.808.808,0,0,1,.293-.9l.8-.578h-.984a.808.808,0,0,1-.768-.558ZM31.767,5.418a8.247,8.247,0,1,1-8.247,8.247,8.251,8.251,0,0,1,8.247-8.247Zm0,1.615A6.632,6.632,0,1,0,38.4,13.665a6.635,6.635,0,0,0-6.632-6.632Z" fill-rule="evenodd"/>
      </g>
    </g>
  </g>
</svg>
