<svg xmlns="http://www.w3.org/2000/svg" xmlns:xlink="http://www.w3.org/1999/xlink" width="98" height="97.999" viewBox="0 0 98 97.999">
  <defs>
    <clipPath id="clip-path">
      <rect id="Rectangle_412572" data-name="Rectangle 412572" width="57" height="55" transform="translate(1140.051 3879)" fill="#fff" stroke="#707070" stroke-width="1"/>
    </clipPath>
  </defs>
  <g id="Group_1206796" data-name="Group 1206796" transform="translate(-1119.086 -3857.106)">
    <g id="Group_1204751" data-name="Group 1204751" transform="translate(1119.086 3857.106)">
      <g id="Group_1204438" data-name="Group 1204438">
        <g id="Group_1204285" data-name="Group 1204285">
          <g id="Group_1204180" data-name="Group 1204180">
            <g id="Group_1204143" data-name="Group 1204143">
              <g id="Group_1188789" data-name="Group 1188789" transform="translate(0)">
                <path id="Path_1243039" data-name="Path 1243039" d="M41.05,0h0a41.05,41.05,0,0,1,0,82.1h0a41.05,41.05,0,0,1,0-82.1Z" transform="translate(7.951 7.949)" fill="#ffc63f"/>
                <rect id="Rectangle_400907" data-name="Rectangle 400907" width="88.438" height="88.437" rx="44.218" transform="translate(4.782 4.781)" fill="none"/>
                <g id="Group_1098742" data-name="Group 1098742" transform="translate(0)">
                  <g id="Rectangle_400898" data-name="Rectangle 400898" transform="translate(0)" fill="none" stroke="#fff" stroke-width="2" opacity="0.859">
                    <rect width="98" height="97.999" rx="48.999" stroke="none"/>
                    <rect x="1" y="1" width="96" height="95.999" rx="47.999" fill="none"/>
                  </g>
                  <g id="Rectangle_400907-2" data-name="Rectangle 400907" transform="translate(0)" fill="none" stroke="#0f1f33" stroke-linecap="round" stroke-width="2">
                    <rect width="98" height="97.999" rx="48.999" stroke="none"/>
                    <rect x="1" y="1" width="96" height="95.999" rx="47.999" fill="none"/>
                  </g>
                </g>
              </g>
            </g>
          </g>
        </g>
      </g>
    </g>
    <g id="Mask_Group_1099569" data-name="Mask Group 1099569" clip-path="url(#clip-path)">
      <g id="social-media_16947085_1_" data-name="social-media_16947085 (1)" transform="translate(1139.939 3877.888)">
        <g id="Group_1207271" data-name="Group 1207271">
          <g id="Group_1207265" data-name="Group 1207265">
            <g id="Group_1207264" data-name="Group 1207264">
              <path id="Path_1329061" data-name="Path 1329061" d="M45.631,5.905a2.908,2.908,0,0,0-3.006-2.78H17.4a2.908,2.908,0,0,0-3.006,2.78V51.318A2.908,2.908,0,0,0,17.4,54.1H42.625a2.908,2.908,0,0,0,3.006-2.78Z" fill="#64b5f6" fill-rule="evenodd"/>
              <path id="Path_1329062" data-name="Path 1329062" d="M45.631,5.905A2.828,2.828,0,0,0,43.5,3.245a2.562,2.562,0,0,1,.07.6V49.255a2.908,2.908,0,0,1-3.006,2.78H15.333a3.205,3.205,0,0,1-.872-.12A2.973,2.973,0,0,0,17.4,54.1H42.625a2.908,2.908,0,0,0,3.006-2.78Z" fill="#42a5f5" fill-rule="evenodd"/>
              <path id="Path_1329063" data-name="Path 1329063" d="M31.723,47.927H28.3a1.466,1.466,0,1,0,0,2.932h3.425a1.466,1.466,0,0,0,0-2.932Z" fill="#e6f8ff" fill-rule="evenodd"/>
              <path id="Path_1329064" data-name="Path 1329064" d="M28.993,47.927H28.3a1.466,1.466,0,1,0,0,2.932h.695a1.466,1.466,0,0,1,0-2.932Z" fill="#e2e3e3" fill-rule="evenodd"/>
            </g>
            <path id="Path_1329065" data-name="Path 1329065" d="M14.39,9.159h31.24V44.687H14.39Z" fill="#e6f8ff"/>
            <path id="Path_1329066" data-name="Path 1329066" d="M43.567,9.159h2.064V44.687H43.567Z" fill="#d0f1ff"/>
          </g>
          <g id="Group_1207269" data-name="Group 1207269">
            <g id="Group_1207266" data-name="Group 1207266">
              <path id="Path_1329067" data-name="Path 1329067" d="M34.829,22.537H56.218V38.354H34.829V29.238L30.151,25.9l4.678-.265Z" fill="#64b5f6" fill-rule="evenodd"/>
              <path id="Path_1329068" data-name="Path 1329068" d="M55.1,22.537h1.118V38.355H34.829V37.237H55.1Zm-21.388,5.9L30.151,25.9l.416-.023,3.145,2.244Z" fill="#42a5f5" fill-rule="evenodd"/>
            </g>
            <g id="Group_1207267" data-name="Group 1207267">
              <path id="Path_1329069" data-name="Path 1329069" d="M41.307,34.638a4.228,4.228,0,0,1,8.433,0,.294.294,0,0,1-.294.317H41.6a.294.294,0,0,1-.294-.317Z" fill="#ffda2d" fill-rule="evenodd"/>
              <path id="Path_1329070" data-name="Path 1329070" d="M45.052,30.754a4.227,4.227,0,0,1,4.688,3.885.294.294,0,0,1-.294.317H48.5a.294.294,0,0,0,.294-.317A4.245,4.245,0,0,0,45.052,30.754Z" fill="#ffc700" fill-rule="evenodd"/>
              <path id="Path_1329071" data-name="Path 1329071" d="M45.523,30.506a2.285,2.285,0,1,0-2.285-2.285A2.29,2.29,0,0,0,45.523,30.506Z" fill="#ffd6bd" fill-rule="evenodd"/>
              <path id="Path_1329072" data-name="Path 1329072" d="M43.791,29.711a2.285,2.285,0,1,0,2.96-3.418,2.285,2.285,0,0,1-2.96,3.418Z" fill="#f9c6aa" fill-rule="evenodd"/>
            </g>
            <g id="Group_1207268" data-name="Group 1207268">
              <path id="Path_1329073" data-name="Path 1329073" d="M1.006,7.2H22.471v8.242l5.481,5.481-5.481.086v5.335H1.006Z" fill="#72d561" fill-rule="evenodd"/>
              <path id="Path_1329074" data-name="Path 1329074" d="M1.006,7.2H2.124V25.226H22.471v1.118H1.006ZM26.869,19.84l1.083,1.083-4.363.068v-1.1l3.28-.051Z" fill="#42c345" fill-rule="evenodd"/>
            </g>
          </g>
          <g id="Group_1207270" data-name="Group 1207270">
            <path id="Path_1329075" data-name="Path 1329075" d="M7.662,17.519l-.276,5.422,1.995,1.047h5.628a1.039,1.039,0,1,0,0-2.079h.521a1.043,1.043,0,0,0,0-2.085h.521a1.043,1.043,0,0,0,0-2.085h.521a1.043,1.043,0,0,0,0-2.085l-3.711.019c.4-1.541,1.037-3.58,1.1-4.23.139-1.5-1.1-2.562-1.812-1.383L7.662,17.52Z" fill="#ffd6bd" fill-rule="evenodd"/>
            <path id="Path_1329076" data-name="Path 1329076" d="M14.927,23.989h.081a1.039,1.039,0,0,0,.443-1.979,1.044,1.044,0,0,1-1.039,1.018h-.521a1.043,1.043,0,0,1,1.037.961Zm.521-2.079h.081a1.043,1.043,0,0,0,.443-1.985,1.044,1.044,0,0,1-1.039,1.018h-.521A1.044,1.044,0,0,1,15.449,21.91Zm.521-2.085h.081a1.043,1.043,0,0,0,.443-1.985,1.044,1.044,0,0,1-1.039,1.018h-.521a1.044,1.044,0,0,1,1.037.968Zm.521-2.085h.081a1.043,1.043,0,0,0,0-2.085l-3.711.019c.4-1.541,1.037-3.58,1.1-4.23.139-1.5-1.1-2.562-1.812-1.383l-.369.613c.593.019,1.16.848,1.063,1.887-.06.65-.7,2.689-1.1,4.23l3.711-.019a1.044,1.044,0,0,1,1.037.968Z" fill="#f9c6aa" fill-rule="evenodd"/>
            <rect id="Rectangle_426274" data-name="Rectangle 426274" width="2.18" height="7.977" rx="0.355" transform="translate(5.866 16.012)" fill="#ffda2d"/>
            <path id="Path_1329077" data-name="Path 1329077" d="M6.221,23.989H7.339a.356.356,0,0,1-.355-.355V16.367a.356.356,0,0,1,.355-.355H6.221a.356.356,0,0,0-.355.355v7.267a.356.356,0,0,0,.355.355Z" fill="#ffc700" fill-rule="evenodd"/>
          </g>
        </g>
        <path id="Path_1329078" data-name="Path 1329078" d="M42.312,34.061h6.423a3.334,3.334,0,0,0-6.423,0Zm1.82-5.84a1.391,1.391,0,1,0,1.391-1.391,1.393,1.393,0,0,0-1.391,1.391Zm-3.4,7.248a1.193,1.193,0,0,1-.314-.9h0A5.142,5.142,0,0,1,43.2,30.393a3.179,3.179,0,1,1,4.637,0,5.142,5.142,0,0,1,2.79,4.178,1.188,1.188,0,0,1-1.186,1.278H41.6a1.193,1.193,0,0,1-.872-.38ZM55.323,23.431V37.46h-19.6V29.238a.894.894,0,0,0-.375-.728L32.74,26.649l2.14-.121a.893.893,0,0,0,.844-.892V23.431ZM44.736,39.249v4.544H15.285V27.238h7.186a.894.894,0,0,0,.894-.894V21.889l4.6-.072a.894.894,0,0,0,.618-1.526l-5.219-5.219V10.053H44.736v11.59H34.829a.894.894,0,0,0-.894.894v2.254l-3.834.217a.894.894,0,0,0-.469,1.621l4.3,3.071v8.656a.894.894,0,0,0,.894.894h9.907Zm0,6.332H15.285v5.737A2.01,2.01,0,0,0,17.4,53.2H42.624a2.01,2.01,0,0,0,2.112-1.886V45.581ZM21.577,25.45V21.009a.894.894,0,0,1,.88-.894l3.369-.053-3.988-3.988a.894.894,0,0,1-.262-.632V8.095H1.9V25.45ZM15.285,6.306v-.4A2.011,2.011,0,0,1,17.4,4.019H42.624a2.011,2.011,0,0,1,2.112,1.886v2.36H23.365V7.2a.9.9,0,0,0-.894-.895Zm41.827,16.23V38.355a.894.894,0,0,1-.894.894H46.524v12.07a3.8,3.8,0,0,1-3.9,3.674H17.4a3.8,3.8,0,0,1-3.9-3.674V27.238H1.006a.894.894,0,0,1-.894-.894V7.2a.894.894,0,0,1,.894-.895H13.5v-.4a3.8,3.8,0,0,1,3.9-3.674H42.624a3.8,3.8,0,0,1,3.9,3.674V21.643h9.693a.894.894,0,0,1,.894.894ZM16.717,16.7a.151.151,0,0,0-.145-.149l-3.707.018h0a.894.894,0,0,1-.866-1.116c.144-.56.317-1.177.485-1.774a23.728,23.728,0,0,0,.588-2.316,1.291,1.291,0,0,0-.169-.817L8.939,17.13v5.618l.662.347h5.407a.145.145,0,0,0,0-.29H13.055a.894.894,0,0,1,0-1.789H15.53a.148.148,0,0,0,0-.3H13.576a.894.894,0,0,1,0-1.789h2.475a.148.148,0,0,0,0-.3H14.1a.894.894,0,1,1,0-1.788h2.475a.151.151,0,0,0,.145-.149Zm-9.566.209v6.189H6.76V16.906ZM18.505,16.7a1.938,1.938,0,0,0-1.938-1.937l-2.538.013c.057-.2.114-.409.171-.611a19.808,19.808,0,0,0,.647-2.636,2.58,2.58,0,0,0-1.481-2.784A1.665,1.665,0,0,0,11.38,9.6L8.033,15.166a1.252,1.252,0,0,0-.343-.049H6.221a1.251,1.251,0,0,0-1.249,1.249v7.267a1.251,1.251,0,0,0,1.249,1.249H7.69a1.243,1.243,0,0,0,.843-.329l.433.227a.892.892,0,0,0,.416.1h5.628A1.934,1.934,0,0,0,16.83,22.3a1.937,1.937,0,0,0,.521-2.084,1.938,1.938,0,0,0,.521-2.085,1.932,1.932,0,0,0,.634-1.433Zm9.221,32.7a.58.58,0,0,1,.572-.572h3.425a.572.572,0,0,1,0,1.144H28.3A.58.58,0,0,1,27.726,49.393Zm-1.788,0a2.363,2.363,0,0,1,2.36-2.36h3.425a2.36,2.36,0,0,1,0,4.72H28.3A2.363,2.363,0,0,1,25.938,49.393Zm.986-43.251a.894.894,0,0,0,.894.894H32.2a.894.894,0,1,0,0-1.788H27.818a.894.894,0,0,0-.894.894Z" fill-rule="evenodd"/>
      </g>
    </g>
  </g>
</svg>
