<svg xmlns="http://www.w3.org/2000/svg" xmlns:xlink="http://www.w3.org/1999/xlink" width="98" height="97.998" viewBox="0 0 98 97.998">
  <defs>
    <clipPath id="clip-path">
      <rect id="Rectangle_412572" data-name="Rectangle 412572" width="57" height="55" transform="translate(1140.051 3879)" fill="#fff" stroke="#707070" stroke-width="1"/>
    </clipPath>
  </defs>
  <g id="Group_1207003" data-name="Group 1207003" transform="translate(-1119.086 -3857.106)">
    <g id="Group_1204751" data-name="Group 1204751" transform="translate(1119.086 3857.106)">
      <g id="Group_1204438" data-name="Group 1204438">
        <g id="Group_1204285" data-name="Group 1204285">
          <g id="Group_1204180" data-name="Group 1204180">
            <g id="Group_1204143" data-name="Group 1204143">
              <g id="Group_1188789" data-name="Group 1188789" transform="translate(0)">
                <path id="Path_1243039" data-name="Path 1243039" d="M41.05,0h0a41.05,41.05,0,0,1,0,82.1h0a41.05,41.05,0,0,1,0-82.1Z" transform="translate(7.951 7.949)" fill="#ffc63f"/>
                <rect id="Rectangle_400907" data-name="Rectangle 400907" width="88.438" height="88.437" rx="44.218" transform="translate(4.782 4.781)" fill="none"/>
                <g id="Group_1098742" data-name="Group 1098742" transform="translate(0)">
                  <g id="Rectangle_400898" data-name="Rectangle 400898" transform="translate(0)" fill="none" stroke="#fff" stroke-width="2" opacity="0.859">
                    <rect width="98" height="97.999" rx="48.999" stroke="none"/>
                    <rect x="1" y="1" width="96" height="95.999" rx="47.999" fill="none"/>
                  </g>
                  <g id="Rectangle_400907-2" data-name="Rectangle 400907" transform="translate(0)" fill="none" stroke="#0f1f33" stroke-linecap="round" stroke-width="2">
                    <rect width="98" height="97.999" rx="48.999" stroke="none"/>
                    <rect x="1" y="1" width="96" height="95.999" rx="47.999" fill="none"/>
                  </g>
                </g>
              </g>
            </g>
          </g>
        </g>
      </g>
    </g>
    <g id="Mask_Group_1099581" data-name="Mask Group 1099581" clip-path="url(#clip-path)">
      <g id="aggregate_2519351" transform="translate(1140.164 3878.113)">
        <g id="Group_1207374" data-name="Group 1207374">
          <g id="Group_1207363" data-name="Group 1207363">
            <path id="Path_1329256" data-name="Path 1329256" d="M1.774,21.29H12.419V35.484H1.774Z" fill="#f0d0b4"/>
          </g>
          <g id="Group_1207364" data-name="Group 1207364">
            <path id="Path_1329257" data-name="Path 1329257" d="M1.774,40.806H12.419V55H1.774Z" fill="#f0d0b4"/>
          </g>
          <g id="Group_1207365" data-name="Group 1207365">
            <path id="Path_1329258" data-name="Path 1329258" d="M1.774,1.774H12.419V15.968H1.774Z" fill="#f0d0b4"/>
          </g>
          <g id="Group_1207366" data-name="Group 1207366">
            <path id="Path_1329259" data-name="Path 1329259" d="M31.935,1.774v8.871H23.065V55H55V1.774Z" fill="#e6e9ed"/>
          </g>
          <g id="Group_1207367" data-name="Group 1207367">
            <path id="Path_1329260" data-name="Path 1329260" d="M35.484,5.323H51.452v5.323H35.484Z" fill="#ff826e"/>
          </g>
          <g id="Group_1207368" data-name="Group 1207368">
            <path id="Path_1329261" data-name="Path 1329261" d="M31.935,1.774v8.871H23.065Z" fill="#5cd6b3"/>
          </g>
          <g id="Group_1207369" data-name="Group 1207369">
            <path id="Path_1329262" data-name="Path 1329262" d="M47.9,47.9h3.548v3.548H47.9Z" fill="#ff826e"/>
          </g>
          <g id="Group_1207370" data-name="Group 1207370">
            <path id="Path_1329263" data-name="Path 1329263" d="M40.806,47.9h3.548v3.548H40.806Z" fill="#ff826e"/>
          </g>
          <g id="Group_1207371" data-name="Group 1207371">
            <path id="Path_1329264" data-name="Path 1329264" d="M33.71,47.9h3.548v3.548H33.71Z" fill="#ff826e"/>
          </g>
          <g id="Group_1207372" data-name="Group 1207372">
            <path id="Path_1329265" data-name="Path 1329265" d="M26.613,47.9h3.548v3.548H26.613Z" fill="#ff826e"/>
          </g>
          <g id="Group_1207373" data-name="Group 1207373">
            <path id="Path_1329266" data-name="Path 1329266" d="M51.452,26.613v3.548l-2.244.745c-.053.133-.1.257-.16.381l1.065,2.12-2.51,2.51-2.12-1.065c-.124.062-.248.106-.381.16l-.745,2.244H40.806l-.745-2.244c-.133-.053-.257-.1-.381-.16l-2.12,1.065-2.51-2.51,1.065-2.12c-.062-.124-.106-.248-.16-.381l-2.244-.745V26.613l2.244-.745c.053-.133.1-.257.16-.381l-1.065-2.12,2.51-2.51,2.12,1.065c.124-.062.248-.106.381-.16l.745-2.244h3.548L45.1,21.76c.133.053.257.1.381.16l2.12-1.065,2.51,2.51-1.065,2.12c.062.124.106.248.16.381Zm-5.323,1.774a3.548,3.548,0,1,0-3.548,3.548A3.547,3.547,0,0,0,46.129,28.387Z" fill="#fcd770"/>
          </g>
        </g>
        <g id="Group_1207375" data-name="Group 1207375">
          <path id="Path_1329267" data-name="Path 1329267" d="M13.306,9.758h3.548V25.726H31.048V23.952H18.629V7.984H13.306V.887H.887V16.855H13.306Zm-1.774,5.323H2.661V2.661h8.871Z"/>
          <path id="Path_1329268" data-name="Path 1329268" d="M13.306,29.274H31.048V27.5H13.306V20.4H.887V36.371H13.306ZM11.532,34.6H2.661V22.177h8.871Z"/>
          <path id="Path_1329269" data-name="Path 1329269" d="M52.339,25.973l-2.179-.726,1.027-2.054L47.774,19.78l-2.053,1.026-.727-2.178H40.168l-.727,2.178L37.388,19.78l-3.414,3.414L35,25.248l-2.18.726V30.8L35,31.526l-1.027,2.054,3.414,3.414,2.053-1.026.727,2.179h4.827l.727-2.178,2.053,1.026,3.414-3.414-1.027-2.054,2.18-.726Zm-1.774,3.548-2.039.68-.149.395c-.043.113-.087.224-.136.333l-.172.384.959,1.918-1.6,1.6-1.918-.959-.384.172c-.111.05-.223.093-.336.137l-.391.15-.679,2.035h-2.27l-.679-2.035-.391-.15c-.114-.044-.226-.089-.336-.137l-.384-.172-1.918.959-1.6-1.6.959-1.918-.172-.384c-.049-.109-.093-.22-.136-.333l-.149-.395-2.038-.68v-2.27l2.039-.68.149-.395c.043-.113.087-.224.136-.333l.172-.384-.959-1.918,1.6-1.6,1.918.959.384-.172c.111-.05.223-.093.336-.138l.391-.15.679-2.034h2.27l.679,2.035.391.15c.114.044.226.089.336.138l.384.172,1.918-.959,1.6,1.6-.959,1.918.172.384c.049.109.093.22.136.333l.149.395,2.038.68Z"/>
          <path id="Path_1329270" data-name="Path 1329270" d="M42.581,23.952a4.435,4.435,0,1,0,4.435,4.435A4.441,4.441,0,0,0,42.581,23.952Zm0,7.1a2.661,2.661,0,1,1,2.661-2.661A2.665,2.665,0,0,1,42.581,31.048Z"/>
          <path id="Path_1329271" data-name="Path 1329271" d="M31.568.887l-9.391,9.391v11.9h1.774V11.532h8.871V2.661h21.29V54.113H23.952V34.6H22.177v21.29h33.71v-55ZM25.206,9.758l5.842-5.842V9.758Z"/>
          <path id="Path_1329272" data-name="Path 1329272" d="M52.339,4.435H34.6v7.1H52.339ZM50.565,9.758H36.371V6.21H50.565Z"/>
          <path id="Path_1329273" data-name="Path 1329273" d="M25.726,13.306H27.5v1.774H25.726Z"/>
          <path id="Path_1329274" data-name="Path 1329274" d="M29.274,13.306H52.339v1.774H29.274Z"/>
          <path id="Path_1329275" data-name="Path 1329275" d="M52.339,52.339V47.016H47.016v5.323ZM48.79,48.79h1.774v1.774H48.79Z"/>
          <path id="Path_1329276" data-name="Path 1329276" d="M45.242,52.339V47.016H39.919v5.323ZM41.694,48.79h1.774v1.774H41.694Z"/>
          <path id="Path_1329277" data-name="Path 1329277" d="M38.145,52.339V47.016H32.823v5.323ZM34.6,48.79h1.774v1.774H34.6Z"/>
          <path id="Path_1329278" data-name="Path 1329278" d="M25.726,52.339h5.323V47.016H25.726ZM27.5,48.79h1.774v1.774H27.5Z"/>
          <path id="Path_1329279" data-name="Path 1329279" d="M25.726,43.468H27.5v1.774H25.726Z"/>
          <path id="Path_1329280" data-name="Path 1329280" d="M29.274,43.468H52.339v1.774H29.274Z"/>
          <path id="Path_1329281" data-name="Path 1329281" d="M25.726,39.919H52.339v1.774H25.726Z"/>
          <path id="Path_1329282" data-name="Path 1329282" d="M4.435,43.468H9.758v1.774H4.435Z"/>
          <path id="Path_1329283" data-name="Path 1329283" d="M4.435,47.016H9.758V48.79H4.435Z"/>
          <path id="Path_1329284" data-name="Path 1329284" d="M4.435,50.565H9.758v1.774H4.435Z"/>
          <path id="Path_1329285" data-name="Path 1329285" d="M4.435,23.952H9.758v1.774H4.435Z"/>
          <path id="Path_1329286" data-name="Path 1329286" d="M4.435,27.5H9.758v1.774H4.435Z"/>
          <path id="Path_1329287" data-name="Path 1329287" d="M4.435,31.048H9.758v1.774H4.435Z"/>
          <path id="Path_1329288" data-name="Path 1329288" d="M4.435,4.435H9.758V6.21H4.435Z"/>
          <path id="Path_1329289" data-name="Path 1329289" d="M4.435,7.984H9.758V9.758H4.435Z"/>
          <path id="Path_1329290" data-name="Path 1329290" d="M4.435,11.532H9.758v1.774H4.435Z"/>
          <path id="Path_1329291" data-name="Path 1329291" d="M31.048,31.048H16.855V47.016H13.306v-7.1H.887V55.887H13.306v-7.1h5.323V32.823H31.048ZM11.532,54.113H2.661V41.694h8.871Z"/>
        </g>
      </g>
    </g>
  </g>
</svg>
