<svg xmlns="http://www.w3.org/2000/svg" xmlns:xlink="http://www.w3.org/1999/xlink" width="98" height="97.998" viewBox="0 0 98 97.998">
  <defs>
    <clipPath id="clip-path">
      <rect id="Rectangle_412572" data-name="Rectangle 412572" width="57" height="55" transform="translate(1140.051 3879)" fill="#fff" stroke="#707070" stroke-width="1"/>
    </clipPath>
  </defs>
  <g id="Group_1207002" data-name="Group 1207002" transform="translate(-1119.086 -3857.106)">
    <g id="Group_1204751" data-name="Group 1204751" transform="translate(1119.086 3857.106)">
      <g id="Group_1204438" data-name="Group 1204438">
        <g id="Group_1204285" data-name="Group 1204285">
          <g id="Group_1204180" data-name="Group 1204180">
            <g id="Group_1204143" data-name="Group 1204143">
              <g id="Group_1188789" data-name="Group 1188789" transform="translate(0)">
                <path id="Path_1243039" data-name="Path 1243039" d="M41.05,0h0a41.05,41.05,0,0,1,0,82.1h0a41.05,41.05,0,0,1,0-82.1Z" transform="translate(7.951 7.949)" fill="#ffc63f"/>
                <rect id="Rectangle_400907" data-name="Rectangle 400907" width="88.438" height="88.437" rx="44.218" transform="translate(4.782 4.781)" fill="none"/>
                <g id="Group_1098742" data-name="Group 1098742" transform="translate(0)">
                  <g id="Rectangle_400898" data-name="Rectangle 400898" transform="translate(0)" fill="none" stroke="#fff" stroke-width="2" opacity="0.859">
                    <rect width="98" height="97.999" rx="48.999" stroke="none"/>
                    <rect x="1" y="1" width="96" height="95.999" rx="47.999" fill="none"/>
                  </g>
                  <g id="Rectangle_400907-2" data-name="Rectangle 400907" transform="translate(0)" fill="none" stroke="#0f1f33" stroke-linecap="round" stroke-width="2">
                    <rect width="98" height="97.999" rx="48.999" stroke="none"/>
                    <rect x="1" y="1" width="96" height="95.999" rx="47.999" fill="none"/>
                  </g>
                </g>
              </g>
            </g>
          </g>
        </g>
      </g>
    </g>
    <g id="Mask_Group_1099582" data-name="Mask Group 1099582" clip-path="url(#clip-path)">
      <g id="monitoring_10645692" transform="translate(1140.67 3878.619)">
        <g id="Group_1207378" data-name="Group 1207378">
          <g id="Group_1207376" data-name="Group 1207376">
            <path id="Path_1329292" data-name="Path 1329292" d="M41.044,46.453H7.566V12.181L15.651,4.1H41.044Z" fill="#e0dfe1" fill-rule="evenodd"/>
            <path id="Path_1329293" data-name="Path 1329293" d="M38.147,43.556H4.669V9.284L12.754,1.2H38.147V43.556Z" fill="#f0f0f0" fill-rule="evenodd"/>
            <path id="Path_1329294" data-name="Path 1329294" d="M12.754,9.284V1.2L4.669,9.284Z" fill="#e0dfe1" fill-rule="evenodd"/>
          </g>
          <g id="Group_1207377" data-name="Group 1207377">
            <circle id="Ellipse_13111" data-name="Ellipse 13111" cx="12.695" cy="12.695" r="12.695" transform="translate(25.704 29.175)" fill="#c9f0ff"/>
            <path id="Path_1329295" data-name="Path 1329295" d="M29.546,41.87c3.612-6.8,14.094-6.8,17.706,0C43.64,48.668,33.158,48.668,29.546,41.87Z" fill="#43a2ff" fill-rule="evenodd"/>
            <circle id="Ellipse_13112" data-name="Ellipse 13112" cx="3.215" cy="3.215" r="3.215" transform="matrix(0.023, -1, 1, 0.023, 35.133, 45.012)" fill="#f0f0f0"/>
          </g>
        </g>
        <path id="Path_1329296" data-name="Path 1329296" d="M35.067,47.643a.817.817,0,0,0-1.116.3l-1.159,2.006a.817.817,0,1,0,1.415.817l1.159-2.006A.819.819,0,0,0,35.067,47.643Zm7.781.3a.817.817,0,0,0-1.415.817l1.159,2.007a.817.817,0,1,0,1.415-.817Zm-4.449.595a.817.817,0,0,0-.817.817v2.317a.817.817,0,1,0,1.634,0V49.353A.817.817,0,0,0,38.4,48.536ZM41.733,36.1a.817.817,0,0,0,1.115-.3l1.159-2.007a.817.817,0,0,0-1.415-.817L41.433,34.98a.818.818,0,0,0,.3,1.116Zm-7.782-.3a.817.817,0,1,0,1.414-.817l-1.159-2.007a.817.817,0,0,0-1.415.817ZM38.4,35.2a.816.816,0,0,0,.817-.817V32.069a.817.817,0,0,0-1.634,0v2.318A.817.817,0,0,0,38.4,35.2Zm2.4,6.667a2.4,2.4,0,1,0-2.4,2.4A2.4,2.4,0,0,0,40.8,41.87Zm1.634,0A4.031,4.031,0,1,1,38.4,37.839a4.036,4.036,0,0,1,4.032,4.031Zm3.883,0a9.456,9.456,0,0,1-15.829,0,9.455,9.455,0,0,1,15.829,0Zm1.66.383A10.718,10.718,0,0,1,38.4,47.785a10.717,10.717,0,0,1-9.573-5.532.817.817,0,0,1,0-.767A10.718,10.718,0,0,1,38.4,35.954a10.719,10.719,0,0,1,9.574,5.533A.815.815,0,0,1,47.973,42.253Zm2.3-.383A11.878,11.878,0,1,1,38.4,29.992,11.892,11.892,0,0,1,50.277,41.87ZM25.422,45.636q-.18-.619-.3-1.264H8.383v1.264Zm-19.936-2.9V10.1h7.269a.817.817,0,0,0,.817-.817V2.015H37.33V28.4a13.428,13.428,0,0,0-7.1,2.715H16.446a.817.817,0,0,0,0,1.634H28.44a13.518,13.518,0,0,0-1.634,2.188H21.143a.817.817,0,1,0,0,1.634h4.828a13.3,13.3,0,0,0-.721,2.188h-8.8a.817.817,0,0,0,0,1.634h8.523a13.5,13.5,0,0,0-.082,1.477c0,.292.011.581.03.869H5.486ZM6.64,8.467h5.3v-5.3ZM38.964,4.912V28.371q.641.028,1.263.112V4.912ZM51.911,41.87a13.51,13.51,0,0,1-25.895,5.4H7.566a.816.816,0,0,1-.817-.817V44.373H4.669a.816.816,0,0,1-.817-.817V9.284a.819.819,0,0,1,.239-.577L12.177.621a.813.813,0,0,1,.577-.24H38.147a.817.817,0,0,1,.817.817v2.08h2.08a.817.817,0,0,1,.817.817V28.808A13.536,13.536,0,0,1,51.911,41.87Zm-37.455-21.9a.817.817,0,0,0-1.152.088l-2.45,2.859-1.1-1.228a.817.817,0,1,0-1.216,1.092l1.724,1.92a.818.818,0,0,0,.608.271h.01a.82.82,0,0,0,.611-.285l3.055-3.564a.818.818,0,0,0-.088-1.153Zm0-7.644a.818.818,0,0,0-1.152.09l-2.45,2.858-1.1-1.228a.818.818,0,1,0-1.216,1.093l1.724,1.919a.814.814,0,0,0,.608.271h.01a.82.82,0,0,0,.611-.285l3.055-3.564A.818.818,0,0,0,14.456,12.33Zm0,15.289a.817.817,0,0,0-1.152.088l-2.45,2.858-1.1-1.227A.817.817,0,1,0,8.537,30.43l1.724,1.92a.817.817,0,0,0,.608.27h.01a.816.816,0,0,0,.611-.284l3.055-3.566A.816.816,0,0,0,14.456,27.619Zm0,7.644a.817.817,0,0,0-1.152.088l-2.45,2.858-1.1-1.226a.817.817,0,1,0-1.216,1.092l1.724,1.919a.814.814,0,0,0,.608.271h.01a.817.817,0,0,0,.611-.285l3.055-3.565A.816.816,0,0,0,14.456,35.263Zm19.216-7.97H21.143a.817.817,0,1,0,0,1.634H33.672a.817.817,0,1,0,0-1.634ZM16.447,25.105H33.672a.817.817,0,1,0,0-1.634H16.447a.817.817,0,0,0,0,1.634Zm17.225-5.457H21.143a.817.817,0,1,0,0,1.634H33.672a.817.817,0,1,0,0-1.634ZM16.447,17.461H33.672a.817.817,0,1,0,0-1.634H16.447a.817.817,0,0,0,0,1.634Zm17.225-5.456H21.143a.817.817,0,1,0,0,1.634H33.672a.817.817,0,1,0,0-1.634ZM19.246,9.816H33.672a.817.817,0,1,0,0-1.634H19.246a.817.817,0,1,0,0,1.634Zm4.236-4.639a.817.817,0,0,0,.817.817h9.374a.817.817,0,1,0,0-1.634H24.3A.817.817,0,0,0,23.481,5.178Z" fill-rule="evenodd"/>
      </g>
    </g>
  </g>
</svg>
