<svg xmlns="http://www.w3.org/2000/svg" xmlns:xlink="http://www.w3.org/1999/xlink" width="98" height="97.999" viewBox="0 0 98 97.999">
  <defs>
    <clipPath id="clip-path">
      <rect id="Rectangle_412572" data-name="Rectangle 412572" width="57" height="55" transform="translate(1140.051 3879)" fill="#fff" stroke="#707070" stroke-width="1"/>
    </clipPath>
  </defs>
  <g id="Group_1206794" data-name="Group 1206794" transform="translate(-1119.086 -3857.106)">
    <g id="Group_1204751" data-name="Group 1204751" transform="translate(1119.086 3857.106)">
      <g id="Group_1204438" data-name="Group 1204438">
        <g id="Group_1204285" data-name="Group 1204285">
          <g id="Group_1204180" data-name="Group 1204180">
            <g id="Group_1204143" data-name="Group 1204143">
              <g id="Group_1188789" data-name="Group 1188789" transform="translate(0)">
                <path id="Path_1243039" data-name="Path 1243039" d="M41.05,0h0a41.05,41.05,0,0,1,0,82.1h0a41.05,41.05,0,0,1,0-82.1Z" transform="translate(7.951 7.949)" fill="#ffc63f"/>
                <rect id="Rectangle_400907" data-name="Rectangle 400907" width="88.438" height="88.437" rx="44.218" transform="translate(4.782 4.781)" fill="none"/>
                <g id="Group_1098742" data-name="Group 1098742" transform="translate(0)">
                  <g id="Rectangle_400898" data-name="Rectangle 400898" transform="translate(0)" fill="none" stroke="#fff" stroke-width="2" opacity="0.859">
                    <rect width="98" height="97.999" rx="48.999" stroke="none"/>
                    <rect x="1" y="1" width="96" height="95.999" rx="47.999" fill="none"/>
                  </g>
                  <g id="Rectangle_400907-2" data-name="Rectangle 400907" transform="translate(0)" fill="none" stroke="#0f1f33" stroke-linecap="round" stroke-width="2">
                    <rect width="98" height="97.999" rx="48.999" stroke="none"/>
                    <rect x="1" y="1" width="96" height="95.999" rx="47.999" fill="none"/>
                  </g>
                </g>
              </g>
            </g>
          </g>
        </g>
      </g>
    </g>
    <g id="Mask_Group_1099568" data-name="Mask Group 1099568" clip-path="url(#clip-path)">
      <g id="self-service_11336440" transform="translate(1138.691 3878.112)">
        <g id="Group_1207263" data-name="Group 1207263">
          <g id="Group_1207258" data-name="Group 1207258">
            <path id="Path_1329045" data-name="Path 1329045" d="M44.335,52.7a2.312,2.312,0,0,1-2.3,2.3H17.537a2.312,2.312,0,0,1-2.3-2.3V4.079a2.312,2.312,0,0,1,2.3-2.3H42.03a2.312,2.312,0,0,1,2.3,2.3Z" fill="#d8ecfe" fill-rule="evenodd"/>
            <path id="Path_1329046" data-name="Path 1329046" d="M44.335,52.7a2.312,2.312,0,0,1-2.3,2.3H40.507a2.312,2.312,0,0,0,2.3-2.3V4.079a2.312,2.312,0,0,0-2.3-2.3H42.03a2.312,2.312,0,0,1,2.3,2.3V52.7Z" fill="#c4e2ff" fill-rule="evenodd"/>
            <path id="Path_1329047" data-name="Path 1329047" d="M27.76,48.174h4.047a1.518,1.518,0,0,1,1.514,1.514h0A1.518,1.518,0,0,1,31.807,51.2H27.76a1.518,1.518,0,0,1-1.514-1.514h0a1.518,1.518,0,0,1,1.514-1.514Z" fill="#c4e2ff" fill-rule="evenodd"/>
            <path id="Path_1329048" data-name="Path 1329048" d="M21.586,1.774H37.98L36.97,4.883a.451.451,0,0,1-.434.316h-13.5a.45.45,0,0,1-.434-.316Z" fill="#eceff1" fill-rule="evenodd"/>
            <path id="Path_1329049" data-name="Path 1329049" d="M21.586,1.774h1.642l.728,2.239a.365.365,0,0,0,.352.256h10.95a.365.365,0,0,0,.352-.256l.728-2.239H37.98L36.97,4.883a.451.451,0,0,1-.434.316h-13.5a.45.45,0,0,1-.434-.316Z" fill="#d1d1d6" fill-rule="evenodd"/>
          </g>
          <g id="Group_1207259" data-name="Group 1207259">
            <path id="Path_1329050" data-name="Path 1329050" d="M51.961,22.24V10.921A2.263,2.263,0,0,0,49.7,8.663H33.16A2.263,2.263,0,0,0,30.9,10.921V22.24A2.263,2.263,0,0,0,33.16,24.5h1.911v3.223a.554.554,0,0,0,.954.384L39.491,24.5H49.7a2.263,2.263,0,0,0,2.259-2.258Z" fill="#6cf5c2" fill-rule="evenodd"/>
            <path id="Path_1329051" data-name="Path 1329051" d="M51.961,22.24V10.921A2.263,2.263,0,0,0,49.7,8.663H48.593a2.263,2.263,0,0,1,2.258,2.258V22.24A2.263,2.263,0,0,1,48.593,24.5H49.7a2.263,2.263,0,0,0,2.259-2.258ZM35.1,27.912a.556.556,0,0,0,.922.194L39.491,24.5H38.382Z" fill="#00e499" fill-rule="evenodd"/>
          </g>
          <g id="Group_1207260" data-name="Group 1207260">
            <circle id="Ellipse_13088" data-name="Ellipse 13088" cx="9.271" cy="9.271" r="9.271" transform="translate(31.214 38.008) rotate(-45)" fill="#ffe177"/>
            <path id="Path_1329052" data-name="Path 1329052" d="M44.335,42.313a1.265,1.265,0,1,1-1.265,1.265A1.265,1.265,0,0,1,44.335,42.313Zm0-2.257a.987.987,0,0,1-.986-.951L43.1,32.195a.987.987,0,0,1,.986-1.023h.5a.987.987,0,0,1,.986,1.023l-.25,6.909a.987.987,0,0,1-.986.951Z" fill="#fe646f" fill-rule="evenodd"/>
            <path id="Path_1329053" data-name="Path 1329053" d="M44.335,28.734a9.273,9.273,0,0,1,0,18.546c-.186,0-.371-.006-.554-.017a9.272,9.272,0,0,0,0-18.512c.183-.011.368-.017.554-.017Z" fill="#ffd064" fill-rule="evenodd"/>
            <path id="Path_1329054" data-name="Path 1329054" d="M44.335,42.313a1.265,1.265,0,1,1-.287,2.5,1.265,1.265,0,0,0,0-2.464,1.265,1.265,0,0,1,.287-.033Zm0-2.257a.987.987,0,0,1-.287-.042.988.988,0,0,0,.7-.909L45,32.195a.987.987,0,0,0-.949-1.022h.536a.987.987,0,0,1,.986,1.023L45.321,39.1a.987.987,0,0,1-.986.951Z" fill="#fd4755" fill-rule="evenodd"/>
          </g>
          <g id="Group_1207261" data-name="Group 1207261">
            <circle id="Ellipse_13089" data-name="Ellipse 13089" cx="4.016" cy="4.016" r="4.016" transform="translate(18.806 29.151)" fill="#837683"/>
            <path id="Path_1329055" data-name="Path 1329055" d="M22.822,29.151a4.016,4.016,0,0,1,0,8.031,4.063,4.063,0,0,1-.554-.038,4.016,4.016,0,0,0,0-7.955A4.065,4.065,0,0,1,22.822,29.151Z" fill="#685e68" fill-rule="evenodd"/>
          </g>
          <g id="Group_1207262" data-name="Group 1207262">
            <path id="Path_1329056" data-name="Path 1329056" d="M19.433,42.481l4.009-6.943a1.685,1.685,0,0,0-2.919-1.685l-3.29,5.7a1.716,1.716,0,0,0-3.1-1.414,1.557,1.557,0,0,0-2.9-.888l-.126.219a1.521,1.521,0,0,0-2.828-.584L4.742,43a3.857,3.857,0,0,0-.54,1.969,1.389,1.389,0,0,1-.192.681l-.768,1.33a.546.546,0,0,0,.2.744l8.384,4.841a.546.546,0,0,0,.744-.2l.768-1.33a1.36,1.36,0,0,1,1.2-.7l1.979-.008a3.294,3.294,0,0,0,2.8-1.316l1.7-2.427a2.656,2.656,0,0,0-1.084-3.814Z" fill="#f6dccd" fill-rule="evenodd"/>
            <path id="Path_1329057" data-name="Path 1329057" d="M10.887,36.852a1.508,1.508,0,0,0-.536-.524,1.526,1.526,0,0,0-2.079.557L4.742,43a3.857,3.857,0,0,0-.54,1.969,1.388,1.388,0,0,1-.192.681l-.768,1.33a.546.546,0,0,0,.2.744l1.257.726a.545.545,0,0,1-.2-.744l.768-1.33a1.391,1.391,0,0,0,.192-.681A3.857,3.857,0,0,1,6,43.724l3.529-6.113a1.525,1.525,0,0,1,1.357-.759Zm3.242,1.286a1.721,1.721,0,0,1,2.328-.6,1.7,1.7,0,0,1,.548.5,1.722,1.722,0,0,0-1.618.822l-.545.944a.726.726,0,1,1-1.257-.726l.545-.944Zm-.236-.939a1.561,1.561,0,0,0-1.409.777l-.385.666a.726.726,0,1,1-1.257-.726l.385-.666a1.562,1.562,0,0,1,2.128-.57,1.546,1.546,0,0,1,.538.52Zm9.478-3.457a1.668,1.668,0,0,0-.546-.506,1.69,1.69,0,0,0-2.3.617L16.514,40.8a.726.726,0,0,0,1.258.726l4.008-6.943a1.691,1.691,0,0,1,1.591-.837ZM20.636,43.3a3.44,3.44,0,0,0-.7-.528l-.5-.291-1.722,2.982a.726.726,0,1,0,1.257.726Z" fill="#f1cbbc" fill-rule="evenodd"/>
            <path id="Path_1329058" data-name="Path 1329058" d="M13.339,51.033,4.011,45.648l-.768,1.33a.546.546,0,0,0,.2.744l8.384,4.841a.546.546,0,0,0,.744-.2Z" fill="#eceff1" fill-rule="evenodd"/>
            <path id="Path_1329059" data-name="Path 1329059" d="M5.269,46.374l-1.257-.726-.768,1.33-.007.012L3.23,47l-.006.012-.006.013-.005.013-.005.013,0,.013,0,.013,0,.013,0,.013,0,.013,0,.013,0,.013,0,.013,0,.013,0,.013c0,.009,0,.018,0,.026v.039q0,.013,0,.026v.039l0,.013c0,.009,0,.017,0,.026s0,.017.006.026l0,.013,0,.013.008.025.009.025,0,.012.005.012.006.012.006.012.013.023.007.011.007.011.007.011.015.022.008.011.008.01.009.01.009.01.009.01.009.01.01.009.01.009.01.009.01.009.011.008.011.008.011.008.012.008.012.007.012.007,1.257.726a.545.545,0,0,1-.2-.744Z" fill="#d1d1d6" fill-rule="evenodd"/>
          </g>
        </g>
        <path id="Path_1329060" data-name="Path 1329060" d="M44.013,32.09a.073.073,0,0,1,.073-.031h.5a.078.078,0,0,1,.073.031.066.066,0,0,1,.026.073l-.245,6.909a.1.1,0,0,1-.1.1.1.1,0,0,1-.1-.1l-.25-6.909a.078.078,0,0,1,.031-.073Zm.318,8.853a1.866,1.866,0,0,0,1.874-1.806l.25-6.909a1.871,1.871,0,0,0-1.874-1.943h-.5a1.871,1.871,0,0,0-1.874,1.943l.25,6.909A1.865,1.865,0,0,0,44.331,40.943Zm0,3.012a.378.378,0,0,1,0-.755.378.378,0,1,1,0,.755Zm0-2.529a2.152,2.152,0,1,0,2.156,2.152A2.155,2.155,0,0,0,44.331,41.425Zm0,4.968a8.386,8.386,0,1,0-8.382-8.386A8.4,8.4,0,0,0,44.331,46.393Zm-2.3,7.72H17.535a1.42,1.42,0,0,1-1.42-1.417V51.078l.538-.006a4.137,4.137,0,0,0,3.5-1.7l1.681-2.421c.016-.021.026-.043.042-.066A3.5,3.5,0,0,0,20.7,42.054l2.276-3.989a4.9,4.9,0,1,0-4.457-2.536l-.95,1.669a2.588,2.588,0,0,0-.616-.493,2.555,2.555,0,0,0-.84-.3V4.078a1.42,1.42,0,0,1,1.42-1.417h3.377l.945,2.82a.885.885,0,0,0,.84.605H36.868a.885.885,0,0,0,.84-.605l.945-2.82h3.377a1.419,1.419,0,0,1,1.414,1.417v3.7H33.162a3.149,3.149,0,0,0-3.147,3.146V22.241a3.148,3.148,0,0,0,3.147,3.145h1.023V29.1a.885.885,0,0,0,1.524.614l4.16-4.327h3.575v2.5a10.16,10.16,0,0,0,0,20.242V52.7a1.419,1.419,0,0,1-1.414,1.417ZM19.691,33.166a2.66,2.66,0,0,0,.016.29l.057-.1a2.562,2.562,0,1,1,4.452,2.537l-.057.1a3.128,3.128,0,1,0-4.468-2.828ZM13.313,49.781a2.259,2.259,0,0,1,1.357-.463l1.968-.019a2.442,2.442,0,0,0,2.056-.941l1.655-2.387a1.79,1.79,0,0,0-.8-2.553l-.5-.3a.89.89,0,0,1-.313-1.2l3.941-6.907a.787.787,0,0,0-.3-1.075.789.789,0,0,0-1.07.294l-3.241,5.681a.888.888,0,0,1-1.618-.706.818.818,0,0,0-1.482-.668.888.888,0,0,1-1.649-.508.673.673,0,0,0-.329-.62.663.663,0,0,0-.9.247l-.125.217a.886.886,0,0,1-1.649-.328A.62.62,0,0,0,10,37.078a.628.628,0,0,0-.856.233L5.677,43.4a2.963,2.963,0,0,0-.412,1.526,2.054,2.054,0,0,1-.016.253ZM4.377,47.067l.146-.255,7.756,4.422-.146.255ZM36.784,2.661h-14l.553,1.651H36.226Zm14.285,8.26A1.369,1.369,0,0,0,49.7,9.55H33.162a1.374,1.374,0,0,0-1.373,1.372V22.241a1.373,1.373,0,0,0,1.373,1.371h1.91a.891.891,0,0,1,.887.887v2.4l2.892-3.012a.882.882,0,0,1,.637-.273H49.7a1.368,1.368,0,0,0,1.367-1.371V10.921Zm3.424,27.085a10.176,10.176,0,0,0-9.275-10.121v-2.5H49.7a3.147,3.147,0,0,0,3.142-3.145V10.921A3.148,3.148,0,0,0,49.7,7.775H45.219v-3.7A3.193,3.193,0,0,0,42.03.887H17.535a3.2,3.2,0,0,0-3.194,3.191V36.229a2.326,2.326,0,0,0-.475-.36,2.441,2.441,0,0,0-2.49.046,2.334,2.334,0,0,0-.5-.379,2.4,2.4,0,0,0-3.273.9L4.137,42.526A4.7,4.7,0,0,0,3.5,44.918a.488.488,0,0,1-.073.244L2.4,46.958a.886.886,0,0,0,.329,1.21l9.3,5.3a.866.866,0,0,0,.438.116.883.883,0,0,0,.772-.448l1.023-1.8a.583.583,0,0,1,.078-.111V52.7a3.2,3.2,0,0,0,3.194,3.191H42.03A3.193,3.193,0,0,0,45.219,52.7V48.128A10.175,10.175,0,0,0,54.493,38.007ZM35.683,11.925a.887.887,0,1,0,0,1.774H47.176a.887.887,0,1,0,0-1.774Zm12.38,4.655a.887.887,0,0,0-.887-.887H35.683a.887.887,0,1,0,0,1.774H47.176A.887.887,0,0,0,48.063,16.58Zm0,3.767a.887.887,0,0,0-.887-.887H35.683a.887.887,0,1,0,0,1.774H47.176A.886.886,0,0,0,48.063,20.347ZM31.8,50.316a.636.636,0,0,0,.626-.627.628.628,0,0,0-.626-.627H27.76a.625.625,0,0,0-.626.627.636.636,0,0,0,.626.627Zm0-3.029H27.76a2.4,2.4,0,0,0,0,4.8H31.8a2.4,2.4,0,0,0,0-4.8Z" fill="#242222" fill-rule="evenodd"/>
      </g>
    </g>
  </g>
</svg>
